<?xml version="1.0" encoding="iso-8859-1"?>
<!-- Generator: Adobe Illustrator 18.0.0, SVG Export Plug-In . SVG Version: 6.00 Build 0)  -->
<!DOCTYPE svg PUBLIC "-//W3C//DTD SVG 1.1//EN" "http://www.w3.org/Graphics/SVG/1.1/DTD/svg11.dtd">
<svg version="1.1" id="Capa_1" xmlns="http://www.w3.org/2000/svg" xmlns:xlink="http://www.w3.org/1999/xlink" x="0px" y="0px"
	 viewBox="0 0 297.499 297.499" style="enable-background:new 0 0 297.499 297.499;" xml:space="preserve">
<g id="XMLID_46_">
	<g>
		<path style="fill:#7AC1A3;" d="M125.797,78.897c14.81,14.81,4.6,50.04-22.3,76.94c-17.89,17.89-40.12,29.01-58.01,29.01
			c-8.11,0-14.48-2.26-18.93-6.7c-14.81-14.81-4.59-50.05,22.3-76.95c17.89-17.89,40.12-29,58.01-29
			C114.987,72.197,121.357,74.447,125.797,78.897z"/>
		<path style="fill:#7AC1A3;" d="M248.637,101.197c26.9,26.9,37.11,62.14,22.31,76.95c-4.45,4.44-10.82,6.7-18.93,6.7
			c-17.9,0-40.12-11.12-58.02-29.01c-26.89-26.9-37.11-62.13-22.3-76.94c4.45-4.45,10.82-6.7,18.93-6.7
			C208.517,72.197,230.747,83.307,248.637,101.197z"/>
		<path style="fill:#DEC978;" d="M171.247,55.947c0,0.1-0.01,0.19-0.01,0.29c-5.07,2.08-9.57,5.03-13.37,8.83
			c-3.87,3.86-7.06,8.38-9.12,13.37c-2.05-4.99-5.25-9.51-9.11-13.37c-3.8-3.8-8.3-6.75-13.37-8.83c0-0.1-0.01-0.19-0.01-0.29
			c0-12.4,10.09-22.49,22.49-22.49C161.157,33.457,171.247,43.547,171.247,55.947z"/>
		<path style="fill:#DEC978;" d="M148.747,119.387c2.25,7.51,5.61,15.18,10.04,22.77c-3.23,0.54-6.6,0.84-10.04,0.84
			s-6.8-0.3-10.03-0.84C143.137,134.567,146.507,126.897,148.747,119.387z"/>
		<path style="fill:#DEC978;" d="M180.167,169.667c1.85,1.85,3.73,3.62,5.64,5.34c-4.81,9.24-20.07,16.41-37.06,16.41
			s-32.25-7.17-37.06-16.41c1.92-1.72,3.8-3.49,5.64-5.34c3.31-3.31,6.4-6.71,9.26-10.17c6.8,1.98,14.27,3.07,22.16,3.07
			c7.9,0,15.37-1.09,22.17-3.07C173.777,162.967,176.857,166.367,180.167,169.667z"/>
		<path style="fill:#DEC978;" d="M187.387,200.607v3.28c0,21.3-17.33,38.64-38.64,38.64c-21.3,0-38.63-17.34-38.63-38.64v-3.28
			c10.21,6.48,23.67,10.37,38.63,10.37S177.177,207.087,187.387,200.607z"/>
		<path d="M262.477,87.367c35.58,35.58,45.37,81.53,22.3,104.61c-8.13,8.13-19.46,12.43-32.76,12.43c0,0,0,0-0.01,0
			c-14.32,0-30.03-4.94-45.06-13.83v13.31c0,28.76-20.97,52.69-48.42,57.36v20.64c0,5.41-4.38,9.79-9.78,9.79s-9.78-4.38-9.78-9.79
			v-20.64c-27.45-4.67-48.41-28.6-48.41-57.36v-13.31c-15.04,8.89-30.74,13.83-45.07,13.83c-13.3,0-24.63-4.3-32.76-12.43
			c-23.08-23.08-13.28-69.03,22.3-104.61c21.74-21.74,48.58-34.72,71.81-34.73c0.37-4.74,1.52-9.25,3.34-13.42
			c-0.21-0.18-0.42-0.36-0.62-0.56l-16.14-16.14c-3.82-3.82-3.82-10.01,0-13.83s10.01-3.82,13.83,0l14.8,14.79
			c7.27-5.98,16.57-9.59,26.7-9.59s19.44,3.61,26.71,9.59l14.79-14.79c3.82-3.82,10.01-3.82,13.84,0c3.82,3.82,3.82,10.01,0,13.83
			l-16.14,16.14c-0.2,0.2-0.41,0.38-0.62,0.56c1.81,4.17,2.96,8.68,3.34,13.42C213.887,52.647,240.737,65.627,262.477,87.367z
			 M270.947,178.147c14.8-14.81,4.59-50.05-22.31-76.95c-17.89-17.89-40.12-29-58.01-29c-8.11,0-14.48,2.25-18.93,6.7
			c-14.81,14.81-4.59,50.04,22.3,76.94c17.9,17.89,40.12,29.01,58.02,29.01C260.127,184.847,266.497,182.587,270.947,178.147z
			 M187.387,203.887v-3.28c-10.21,6.48-23.68,10.37-38.64,10.37s-28.42-3.89-38.63-10.37v3.28c0,21.3,17.33,38.64,38.63,38.64
			C170.057,242.527,187.387,225.187,187.387,203.887z M185.807,175.007c-1.91-1.72-3.79-3.49-5.64-5.34
			c-3.31-3.3-6.39-6.7-9.25-10.17c-6.8,1.98-14.27,3.07-22.17,3.07c-7.89,0-15.36-1.09-22.16-3.07c-2.86,3.46-5.95,6.86-9.26,10.17
			c-1.84,1.85-3.72,3.62-5.64,5.34c4.81,9.24,20.07,16.41,37.06,16.41S180.997,184.247,185.807,175.007z M171.237,56.237
			c0-0.1,0.01-0.19,0.01-0.29c0-12.4-10.09-22.49-22.5-22.49c-12.4,0-22.49,10.09-22.49,22.49c0,0.1,0.01,0.19,0.01,0.29
			c5.07,2.08,9.57,5.03,13.37,8.83c3.86,3.86,7.06,8.38,9.11,13.37c2.06-4.99,5.25-9.51,9.12-13.37
			C161.667,61.267,166.167,58.317,171.237,56.237z M158.787,142.157c-4.43-7.59-7.79-15.26-10.04-22.77
			c-2.24,7.51-5.61,15.18-10.03,22.77c3.23,0.54,6.59,0.84,10.03,0.84S155.557,142.697,158.787,142.157z M103.497,155.837
			c26.9-26.9,37.11-62.13,22.3-76.94c-4.44-4.45-10.81-6.7-18.93-6.7c-17.89,0-40.12,11.11-58.01,29
			c-26.89,26.9-37.11,62.14-22.3,76.95c4.45,4.44,10.82,6.7,18.93,6.7C63.377,184.847,85.607,173.727,103.497,155.837z"/>
	</g>
	<g>
	</g>
</g>
<g>
</g>
<g>
</g>
<g>
</g>
<g>
</g>
<g>
</g>
<g>
</g>
<g>
</g>
<g>
</g>
<g>
</g>
<g>
</g>
<g>
</g>
<g>
</g>
<g>
</g>
<g>
</g>
<g>
</g>
</svg>
