<svg id="Summer" xmlns="http://www.w3.org/2000/svg" viewBox="0 0 623.62 623.62">
  <defs>
    <style>
      .cls-1 {
        fill: #11462d;
      }

      .cls-2 {
        fill: #0e3a24;
      }

      .cls-3 {
        fill: #21513e;
      }

      .cls-4 {
        fill: #35684b;
      }

      .cls-5 {
        fill: #447a52;
      }

      .cls-6 {
        fill: #72af50;
      }

      .cls-7 {
        fill: #699e46;
      }

      .cls-8 {
        fill: #85bf60;
      }
    </style>
  </defs>
  <g>
    <path class="cls-1" d="M495.5,259.62a32.86,32.86,0,0,0-6.73-15.08c-.45-.56-.91-1.09-1.39-1.62l0,0a34.8,34.8,0,0,0-11.83-8.21,44.52,44.52,0,0,0-7.85-2.58c-1.33-.37-2.7-.56-4-.84s-2.72-.42-4.1-.51a87.37,87.37,0,0,0-16,0,14.43,14.43,0,0,1-1.59-9.08,23.21,23.21,0,0,1,3.82-9.13c3.68-5.64,8.48-10.51,13.09-15.5s9.31-10.06,12.82-16a30,30,0,0,0,3.78-9.61,20.69,20.69,0,0,0-.66-10.3,28.63,28.63,0,0,0-1.46-6.23,24.44,24.44,0,0,0-3.36-6.37A27.8,27.8,0,0,0,459.44,140a46.06,46.06,0,0,0-13-3.94,68.76,68.76,0,0,0-13.06-.84c2-6.47,4-13,5.54-19.6A82.72,82.72,0,0,0,441.4,95a36,36,0,0,0-1.72-10.28A21.38,21.38,0,0,0,434.09,76,22.56,22.56,0,0,0,425,71a41.62,41.62,0,0,0-10.28-1.52h0c-.42,0-.85.06-1.28.06a11.89,11.89,0,0,1-5.3-1.21,14.52,14.52,0,0,1-5.07-4.38c-2.71-3.64-4.48-7.88-6.27-12a98.69,98.69,0,0,0-5.88-12.27,30,30,0,0,0-3.73-5l-.43-.45c-.29-.29-.6-.56-.92-.83l-.47-.4-1.91-1.58h0l-3.9-3.06a6.4,6.4,0,0,0-.49-.42,12.6,12.6,0,0,0-1.58-1.13A13.35,13.35,0,0,0,372.65,25a29,29,0,0,0-10.33.55c-3.41.66-6.77,1.5-10.2,1.95a22.15,22.15,0,0,1-10.24-.68,20.9,20.9,0,0,0-9.34-2.9,15.47,15.47,0,0,0-9.29,2.9,32.31,32.31,0,0,0-7,6.88c-.36.46-.72.93-1.07,1.4,0,0,0,0,0,0-1.6,2.16-3.07,4.41-4.52,6.68-1.76,2.76-3.47,5.56-5.28,8.3a46.94,46.94,0,0,1-6.09,7.65c-2.11,2.08-4.85,3.75-7.81,3.79l-.8,0c-3.23-.28-6.06-2.19-8.49-4.29l0,0a46.25,46.25,0,0,0-9.3-9,35.76,35.76,0,0,0-11.73-5.51,36.68,36.68,0,0,0-25.39,2.83,43.19,43.19,0,0,0-12.11,8.91h0a43.74,43.74,0,0,0-12.1,33.89c-1.43,4.86-1.15,10-.25,14.88a142.56,142.56,0,0,0,3.84,14.44c1.37,4.74,2.73,9.51,3,14.39a23.4,23.4,0,0,1-.59,7.19,17.75,17.75,0,0,1-3.05,6.36,7.33,7.33,0,0,1-5.16,1.15,17.46,17.46,0,0,1-5.44-1.82c-1.75-.85-3.46-1.87-5.19-2.87a35.46,35.46,0,0,0-5.36-2.72,99.13,99.13,0,0,0-11.89-4.74A60.13,60.13,0,0,0,168.9,132a37.05,37.05,0,0,0-12.8.91,29.12,29.12,0,0,0-11.35,6,35.15,35.15,0,0,0-7.82,10.16,53.9,53.9,0,0,0-4.48,12,101,101,0,0,0-2.62,25.22,17.86,17.86,0,0,0-2.3,9.1,27.15,27.15,0,0,0,2.09,9.26,67,67,0,0,0,9.95,16c7.92,9.73,17.05,18.33,26.23,26.76s18.66,16.56,27.5,25.29c2.19,2.2,4.33,4.44,6.34,6.77A44.86,44.86,0,0,1,205,286.8a14,14,0,0,1,1.61,4,5.18,5.18,0,0,1-.43,3.73,6.73,6.73,0,0,1-3,2.53,12.6,12.6,0,0,1-2,.81c-.37.15-.61.18-.9.28s-.54.18-.81.29c-.73-.39-1.44-.76-2.17-1.12l-2.65-1.07-2.72-.91-2.75-.72a50.53,50.53,0,0,0-11.3-1.28,51.82,51.82,0,0,0-18.18,3.16h0c-1.33.49-2.63,1-3.91,1.65a39.13,39.13,0,0,0-9.54,6.36,30.28,30.28,0,0,0-6.94,9.25,29,29,0,0,0-2.75,11.27A36.58,36.58,0,0,0,138,336.49l0,.06,0,.08c5,12.5,13.14,23.34,21.88,33.26s18.33,19.05,27.51,28.44,18.05,19.09,25.07,30A93.25,93.25,0,0,1,218,438a74.62,74.62,0,0,1,3.24,7.67A66.24,66.24,0,0,1,225,462.79c-3.08-.17-6.17-.24-9.28-.16A51.84,51.84,0,0,0,204.48,464a19.28,19.28,0,0,0-5.48,2.3,9.46,9.46,0,0,0-4,5,11.87,11.87,0,0,0-.05,6.23,28.15,28.15,0,0,0,2,5.44c3.31,6.79,7.74,12.64,11.44,18.81a37.09,37.09,0,0,1,4.45,9.43,7.6,7.6,0,0,1,0,4.43,5.73,5.73,0,0,1-2.93,3l-.27.15-.12.13c-.43.5-.89.94-1.28,1.47a10.15,10.15,0,0,0-1.06,1.73,8.49,8.49,0,0,0-.9,4,11.9,11.9,0,0,0,.82,3.91,21.9,21.9,0,0,0,1.75,3.29c2.63,4.07,5.85,7.38,8.85,10.82,2.07,2.35,4.08,4.71,5.91,7.16a51.08,51.08,0,0,1,5.14,6.23c1.63,2.51,2.6,5.54,3.79,8.27a35.4,35.4,0,0,1,1.47,4.11,24.25,24.25,0,0,1,8.58-7.52,14.16,14.16,0,0,1,7.76-5.28c.11-.11.21-.23.33-.34a42.61,42.61,0,0,0,7.47-4.87,68.37,68.37,0,0,0,6.54-6.17c4.07-4.29,7.76-8.79,12-12.68,8.3-5.73,17.27-10.5,26.18-15.51s17.77-10.33,25.62-17.07a19.11,19.11,0,0,0,8.83-8.32,16.14,16.14,0,0,0,.62-12.38,24.81,24.81,0,0,0-6.75-10.18,26.92,26.92,0,0,0-10.35-6c-.22-.12-.44-.26-.63-.39l-.14-.11a4.17,4.17,0,0,1-1.6-2.34,11.76,11.76,0,0,1,0-4.43,31.81,31.81,0,0,1,15.63-23,31,31,0,0,1,8.91-3.47,91.58,91.58,0,0,1,9.75-1.46c6.56-.7,13.21-1,19.88-1.29s13.33-.63,20-1.41c3.33-.38,6.67-.9,10-1.61a56.74,56.74,0,0,0,9.77-2.92,34.82,34.82,0,0,0,9-5.09,27.24,27.24,0,0,0,6.72-7.89c.39-.77.87-1.51,1.19-2.32l1-2.42a38.11,38.11,0,0,0,1.26-5,49.5,49.5,0,0,0,.68-10.08,17.06,17.06,0,0,0-1.48-8.48,24.91,24.91,0,0,0-4.88-7c-3.91-4-8.47-7.13-12.73-10.43a56.74,56.74,0,0,1-6.05-5.24,15.78,15.78,0,0,1-4.07-6.42,11.1,11.1,0,0,1,.44-7.33,24.24,24.24,0,0,1,4-6.68,33.16,33.16,0,0,1,5.62-5.55,32,32,0,0,1,6.87-3.9,42,42,0,0,1,15.59-3A58.91,58.91,0,0,0,467,315.47a63.75,63.75,0,0,0,19.54-19.08c1-1.55,2-3.15,2.87-4.78a58.9,58.9,0,0,0,5.72-15.47A44.55,44.55,0,0,0,495.5,259.62Z"/>
    <path class="cls-2" d="M218,438a93.25,93.25,0,0,0-5.43-9.64c-7-10.95-15.92-20.64-25.07-30s-18.73-18.51-27.51-28.44-16.86-20.76-21.88-33.26l0-.08,0-.06a36.58,36.58,0,0,1-1.47-11.42,29,29,0,0,1,2.75-11.27,30.28,30.28,0,0,1,6.94-9.25,39.13,39.13,0,0,1,9.54-6.36c1.28-.61,2.58-1.16,3.91-1.65-4.77,8.37-5.54,18.27,7.75,26.39,0,0,48.08,24.05,74.39,60.27C267.77,418.92,217.05,392.37,218,438Z"/>
    <path class="cls-2" d="M225,462.79c-3.08-.17-6.17-.24-9.28-.16A51.84,51.84,0,0,0,204.48,464a19.28,19.28,0,0,0-5.48,2.3,9.46,9.46,0,0,0-4,5,11.87,11.87,0,0,0-.05,6.23,28.15,28.15,0,0,0,2,5.44c3.31,6.79,7.74,12.64,11.44,18.81a37.09,37.09,0,0,1,4.45,9.43,7.6,7.6,0,0,1,0,4.43,5.73,5.73,0,0,1-2.93,3l-.27.15-.12.13c-.43.5-.89.94-1.28,1.47a10.15,10.15,0,0,0-1.06,1.73,8.49,8.49,0,0,0-.9,4,11.9,11.9,0,0,0,.82,3.91,21.9,21.9,0,0,0,1.75,3.29c2.63,4.07,5.85,7.38,8.85,10.82,2.07,2.35,4.08,4.71,5.91,7.16a51.08,51.08,0,0,1,5.14,6.23c1.63,2.51,2.6,5.54,3.79,8.27a35.4,35.4,0,0,1,1.47,4.11,21.16,21.16,0,0,1,3.79-4.23c3.91-11,6.79-22.66,7.53-34.05C248.35,486,227.7,483.84,225,462.79Z"/>
    <path class="cls-2" d="M315.13,35.1c-7.48,8.62-11.22,24.16-23.7,26.42-6.84,18.87-13.71,40-26,40.6-24.19,1.23-41.54-35.26-41.87-47.68C211,67,209.66,86.5,211.24,103.21c1.76,9.76,6.15,18.94,6.88,28.83.26,21.67-11.93,14.53-24.79,7.29-18.33-9.84-46.19-12.46-56.4,9.75,54.74-30.1,129,69.56,149.5,99.28a25.44,25.44,0,0,1,3.53,22.1c-9.43,29.69-50.67-25.29-63.1-40.76L227,231c-27.6-34.23-64.26-66.85-64.26-66.85-21.31,35.11,21.51,99.88,55.86,116.46,7.3,3.53,12.4,9.36,16.81,15.79,22.89,30.77,20.15,73,22.3,108.65,1.34,27.13,2.65,57.95-5.57,90C272.94,417.89,285,378.41,291.9,343.6c.18.19-.16-.18,0,0-1.91-.47,9.37-35.17,9.42-36.38,4.33-55.07,22.63-134.8,24.59-174.6C330.35,92.66,302.83,53.31,315.13,35.1Z"/>
    <path class="cls-2" d="M392.69,118.39c.92,1.81-63.34,79.07-75.56,127.83,8.65-47.76,15.94-78.38,15.43-79.51s12.66-7.77,23.61-17.16S392.69,118.39,392.69,118.39Z"/>
    <path class="cls-2" d="M428.92,238.59c-17.31,18.62-58.5,31.71-76.47,36.88a9.31,9.31,0,0,1-1.77,1.16l.65-.13c-2.32,1.21-7.22,4-17.46,10.26a131.77,131.77,0,0,0-30,25.7s-6.72,2.35-10.47,36.85c6.17-32.79,69.43-72.59,86.05-79.66h0C401.38,263.08,419.51,253.78,428.92,238.59Z"/>
    <path class="cls-2" d="M487.36,242.9c-21.79-14.45-33.23-3.75-46-8.45S439,209.93,456.48,194s18.72-31.41,16.84-39.1h0a28.63,28.63,0,0,1,1.46,6.23,20.69,20.69,0,0,1,.66,10.3,30,30,0,0,1-3.78,9.61c-3.51,5.95-8.21,11-12.82,16s-9.41,9.86-13.09,15.5a23.21,23.21,0,0,0-3.82,9.13,14.43,14.43,0,0,0,1.59,9.08,87.37,87.37,0,0,1,16,0c1.38.09,2.73.34,4.1.51s2.71.47,4,.84a44.52,44.52,0,0,1,7.85,2.58A34.8,34.8,0,0,1,487.36,242.9Z"/>
    <path class="cls-2" d="M486.51,296.39A63.75,63.75,0,0,1,467,315.47a58.91,58.91,0,0,1-31.45,8.94,42,42,0,0,0-15.59,3,32,32,0,0,0-6.87,3.9,33.16,33.16,0,0,0-5.62,5.55,24.24,24.24,0,0,0-4,6.68,11.1,11.1,0,0,0-.44,7.33,15.78,15.78,0,0,0,4.07,6.42,56.74,56.74,0,0,0,6.05,5.24c4.26,3.3,8.82,6.39,12.73,10.43a24.91,24.91,0,0,1,4.88,7,17.06,17.06,0,0,1,1.48,8.48,49.5,49.5,0,0,1-.68,10.08,38.11,38.11,0,0,1-1.26,5c3.23-13.08-.36-25.18-11.28-32.58S397,361,399.09,341.93s29.74-20.87,44.61-21.71S480.25,304.42,486.51,296.39Z"/>
    <path class="cls-2" d="M337.94,479.81a24.81,24.81,0,0,0-6.75-10.18,26.92,26.92,0,0,0-10.35-6c-.22-.12-.44-.26-.63-.39,1.88,1.48,22,17.68,6.19,19-33,2.8-36.75,8.38-47.51,11.51s-18.19,13.89-21.32,17.8c0,0-7,10.76-8.35,11.55-.93.56-5.14,25.72-7,39.59.14-.08,1.07-.65,1.21-.72,1.8-1,3.58-2,5.36-3a15.93,15.93,0,0,1,1.92-2.17,42.61,42.61,0,0,0,7.47-4.87,68.37,68.37,0,0,0,6.54-6.17c4.07-4.29,7.76-8.79,12-12.68,8.3-5.73,17.27-10.5,26.18-15.51s17.77-10.33,25.62-17.07a19.11,19.11,0,0,0,8.83-8.32A16.14,16.14,0,0,0,337.94,479.81Z"/>
    <path class="cls-3" d="M448.76,141.07c-9.06-2.4-86.46,13.93-109.2,73.31-9.08,23.73,31.16-26.19,54.6-36.71S460.61,144.2,448.76,141.07Z"/>
    <path class="cls-3" d="M448.76,283.2c-11.52-1.68-82.95,32.93-108.16,54s-50,53.41-33.06,54.49,97.58-10.27,94.44-17.9-31.68-19.13-16.63-36.47S464.9,285.56,448.76,283.2Z"/>
    <path class="cls-3" d="M307.54,454.45c-5.59-2.19-33.89,14.21-35.3,27.82S319,459,307.54,454.45Z"/>
    <path class="cls-3" d="M421.09,196c-10.66,5.21-94.17,48.64-98,98,18.1-11.61,140.47-101.85,144.12-128.41S448.84,182.41,421.09,196Z"/>
    <path class="cls-4" d="M263.24,394.57q-.83,8.28-2.25,16.49c-.05.27-.09.53-.14.8l-1.19-.25c.15-.68.29-1.36.44-2.05,1-5,1.86-10,2.54-15.05a115.62,115.62,0,0,0,1.17-17.34A116.26,116.26,0,0,1,263.24,394.57Z"/>
    <path class="cls-4" d="M235.42,376.9l-1.17.29q-.25-1.17-.48-2.34c-.39-2-.72-3.94-1-5.93-.41-2.77-.78-5.54-1-8.33s-.4-5.58-.36-8.38a47.44,47.44,0,0,1,.75-8.33,47.4,47.4,0,0,0-.45,8.33c.06,2.78.34,5.56.66,8.32s.79,5.5,1.31,8.24,1.05,5.21,1.7,7.78C235.36,376.67,235.39,376.78,235.42,376.9Z"/>
    <path class="cls-4" d="M254.65,402.82l-.79.29a96,96,0,0,1-10.69,3.24,102.57,102.57,0,0,1-11.79,2.13,75.84,75.84,0,0,1-12,.39,53.19,53.19,0,0,1-11.75-2.05,53.31,53.31,0,0,0,11.77,1.75,76,76,0,0,0,11.87-.69,100,100,0,0,0,11.63-2.41,97.49,97.49,0,0,0,10.25-3.37l1-.4Z"/>
    <path class="cls-4" d="M213.63,356.64h0c-5.78.08-11.56-.06-17.31-.46-2.88-.19-5.76-.49-8.62-.92a37.16,37.16,0,0,1-8.39-2.06,37.3,37.3,0,0,0,8.43,1.76c2.86.33,5.73.52,8.61.62,5.33.19,10.68.14,16-.09l1.2-.05h.05v.05Z"/>
    <path class="cls-4" d="M276.22,363.57l-.24,1.19-.74-.17h0q-7.74-1.79-15.38-3.92c-2.67-.75-5.32-1.55-8-2.42a64.28,64.28,0,0,1-7.74-3A63.64,63.64,0,0,0,252,358c2.65.77,5.33,1.48,8,2.12,4.84,1.18,9.72,2.23,14.61,3.19Z"/>
    <path class="cls-4" d="M264.27,343.07v.05h-1.21c0-.57,0-1.13,0-1.7,0-4-.15-8-.47-12-.18-2.28-.43-4.55-.79-6.8a30.94,30.94,0,0,0-1.65-6.63,31.32,31.32,0,0,1,1.95,6.58c.46,2.24.81,4.51,1.09,6.78C263.74,333.94,264.09,338.49,264.27,343.07Z"/>
    <path class="cls-4" d="M307.54,378.64a76.66,76.66,0,0,0-6.36,10.91q-2.81,5.67-5.28,11.49c-2.95,6.85-5.69,13.8-8.25,20.8a0,0,0,0,1,0,0c-.33.9-.65,1.81-1,2.71l-1.14-.42c.11-.29.22-.57.34-.86,3-7.59,6.1-15.09,9.48-22.49,1.75-3.84,3.6-7.64,5.57-11.37A75.31,75.31,0,0,1,307.54,378.64Z"/>
    <path class="cls-4" d="M335.43,424.35a31.91,31.91,0,0,1-9.9.15,85.53,85.53,0,0,1-9.81-1.68,172.14,172.14,0,0,1-18.43-5.31l-.69-.24.43-1.13c.51.2,1,.4,1.55.58a168.44,168.44,0,0,0,17.28,5.51,86.8,86.8,0,0,0,9.7,2A31.73,31.73,0,0,0,335.43,424.35Z"/>
    <path class="cls-4" d="M347.72,384a27.65,27.65,0,0,0-4.43,3.56,37.91,37.91,0,0,0-3.69,4.32,48.76,48.76,0,0,0-3.05,4.77c-.72,1.3-1.4,2.63-2,4-.16.37-.32.73-.47,1.1l-1.12-.47.12-.24a49.12,49.12,0,0,1,2.69-4.82,50.29,50.29,0,0,1,3.35-4.68,39,39,0,0,1,4-4.17A27.56,27.56,0,0,1,347.72,384Z"/>
    <path class="cls-4" d="M377.34,405.73l-2.55-.67c-.84-.27-1.69-.51-2.52-.79a52.12,52.12,0,0,1-4.93-2,35.88,35.88,0,0,1-4.67-2.55,20.88,20.88,0,0,1-4.1-3.36l-.09-.1,1-.73c.15.2.32.39.49.59h0a21.17,21.17,0,0,0,3.23,2.86,36,36,0,0,0,4.43,2.75,48.9,48.9,0,0,0,4.76,2.21c.82.33,1.65.62,2.47.93Z"/>
    <path class="cls-4" d="M289.49,439.4a34.41,34.41,0,0,0-4.1,7.26c-.87,2-1.67,4-2.37,6.12-.19.56-.37,1.11-.55,1.67l-1.14-.39.08-.2a77.65,77.65,0,0,1,3.44-7.47A34.52,34.52,0,0,1,289.49,439.4Z"/>
    <path class="cls-4" d="M288.24,475.4a31,31,0,0,0-5.67,5.43c-1.71,2-3.29,4.08-4.8,6.23-2.52,3.59-4.88,7.31-7.09,11.1-.44.73-.86,1.47-1.28,2.21l-1-.61.45-.73h0c2.64-4.24,5.44-8.36,8.47-12.33,1.59-2.09,3.26-4.13,5-6.07A31.24,31.24,0,0,1,288.24,475.4Z"/>
    <path class="cls-4" d="M243,510.47l-.49,1.11-.85-.4c-2.42-1.13-4.88-2.22-7.36-3.25a81,81,0,0,0-8.45-3,80,80,0,0,1,8.67,2.48c2.19.74,4.37,1.53,6.54,2.35h0Z"/>
    <path class="cls-4" d="M324.07,309.49a33.78,33.78,0,0,0-3.35,8.46c-.81,2.94-1.48,5.91-2,8.9-1,5.35-1.76,10.76-2.32,16.17-.07.64-.13,1.27-.19,1.9l-1.2-.12c0-.25.07-.51.1-.76.78-5.82,1.76-11.59,3-17.31.65-3,1.42-6,2.33-8.86A33.79,33.79,0,0,1,324.07,309.49Z"/>
    <path class="cls-4" d="M402,318l-1.5.38-1.53.22c-1,.17-2.05.23-3.07.35-2.06.18-4.11.33-6.17.45-4.12.24-8.24.4-12.36.53q-12.11.38-24.23.48h-.5v-1.21l2.49,0q11.1.15,22.22.09c4.12,0,8.24-.1,12.35-.24q3.09-.09,6.17-.29c1-.09,2.06-.13,3.08-.27l1.53-.19Z"/>
    <path class="cls-4" d="M416.8,274a38.75,38.75,0,0,0-4.53,8.31,53.81,53.81,0,0,0-2.56,8.12c-.07.3-.14.59-.2.89l-1.18-.26s0,0,0-.05h0a52.52,52.52,0,0,1,3.37-8.94A38.78,38.78,0,0,1,416.8,274Z"/>
    <path class="cls-4" d="M360.86,351.38a78.79,78.79,0,0,1-14.76,4.47,148.07,148.07,0,0,1-15.27,2.33c-5.12.56-10.26.87-15.41,1.08-4.82.18-9.64.26-14.47.16l-1,0,.05-1.21,2.1.08c4.42.15,8.86.16,13.29.08,5.13-.1,10.27-.32,15.39-.77a148.42,148.42,0,0,0,15.27-2A78.77,78.77,0,0,0,360.86,351.38Z"/>
    <path class="cls-4" d="M270.13,292.14h-1.57c-3.61,0-7.2-.06-10.8-.22q-6.39-.27-12.74-.89t-12.66-1.73a112.62,112.62,0,0,1-12.41-3A107.91,107.91,0,0,0,232.41,289c4.2.63,8.42,1.1,12.66,1.44s8.48.5,12.73.58c3.35.08,6.72.08,10.07,0,.52,0,1,0,1.53-.05C269.64,291.35,269.89,291.74,270.13,292.14Z"/>
    <path class="cls-4" d="M256.32,250.65c-.14,2.9-.4,5.79-.72,8.67s-.69,5.63-1.18,8.44l0,.2-1.19-.24c.1-.46.19-.92.28-1.38h0c.47-2.36.86-4.74,1.22-7.12.42-2.86.78-5.72,1-8.6s.42-5.76.37-8.65a48,48,0,0,0-.77-8.62,48.86,48.86,0,0,1,1.08,8.61C256.53,244.85,256.45,247.75,256.32,250.65Z"/>
    <path class="cls-4" d="M232.62,237.27h-.09q-11.28-.08-22.51-1.1c-3.75-.37-7.49-.84-11.2-1.52l-2.77-.58c-.92-.2-1.82-.49-2.73-.73a28.17,28.17,0,0,1-2.67-.94,6.78,6.78,0,0,1-1.28-.6l-1.24-.67,1.26.64a6.71,6.71,0,0,0,1.29.56,27,27,0,0,0,2.68.86c.91.22,1.81.48,2.74.65l2.77.52c3.71.57,7.46.94,11.2,1.21,7.17.47,14.37.63,21.54.5h1Z"/>
    <path class="cls-4" d="M210.62,196c-.16,4.58-.47,9.14-1,13.71l-.21,0-.81-.12a1.22,1.22,0,0,0-.15-.17l.09-.64c.66-4.23,1.14-8.51,1.47-12.79a117.57,117.57,0,0,0,.35-13.67A118.33,118.33,0,0,1,210.62,196Z"/>
    <path class="cls-4" d="M188.76,188.56v.1a1.32,1.32,0,0,1-.28,0c-3.66-.09-7.33-.21-11-.38-1.88-.09-3.74-.18-5.6-.32s-3.71-.26-5.47-.53c1.78.23,3.65.34,5.5.44s3.74.14,5.61.2q5.25.13,10.5.17h.37A3.51,3.51,0,0,1,188.76,188.56Z"/>
    <path class="cls-4" d="M336.11,261.64a48.84,48.84,0,0,0-5.72,8.78q-2.47,4.62-4.62,9.41-3.88,8.57-7.21,17.39c-.25.67-.51,1.34-.76,2l-1.13-.43a1.8,1.8,0,0,0,.08-.21h0c2.61-6.45,5.41-12.79,8.46-19,1.53-3.15,3.17-6.26,4.91-9.3A49,49,0,0,1,336.11,261.64Z"/>
    <path class="cls-4" d="M363.15,280a85.1,85.1,0,0,1-11.2,2q-5.15.66-10.34,1c-.33,0-.66.06-1,.09v-.31l1.67-.95c.47,0,.93,0,1.4,0,2.74-.08,5.49-.23,8.22-.43A88.87,88.87,0,0,0,363.15,280Z"/>
    <path class="cls-4" d="M383.6,223.15a43.17,43.17,0,0,1-9.48,5.46,75,75,0,0,1-10.39,3.48A106.83,106.83,0,0,1,353,234.33c-3.62.58-7.24,1-10.93,1.28v0l0-1.15v0h.05l1.4-.07h0c3.12-.16,6.26-.47,9.37-.88,3.6-.5,7.19-1.09,10.73-1.93A76,76,0,0,0,374,228.33,43,43,0,0,0,383.6,223.15Z"/>
    <path class="cls-4" d="M374.43,183.31a37.08,37.08,0,0,0-5.64,8.19,68.24,68.24,0,0,0-3.88,9.15c-1.1,3.13-2,6.33-2.8,9.55-.68,2.8-1.28,5.65-1.74,8.47-.09.38-.14.74-.2,1.12a1.49,1.49,0,0,0-.14.12l-1-.15H359c.61-3.31,1.39-6.55,2.29-9.78a99.92,99.92,0,0,1,3.1-9.53,67.91,67.91,0,0,1,4.19-9.09A37,37,0,0,1,374.43,183.31Z"/>
    <path class="cls-4" d="M445.05,187.2a29.75,29.75,0,0,1-6.16,1.38c-2.17.32-4.41.52-6.65.69-4.47.33-9,.48-13.51.57q-9.62.16-19.24,0h-.71l.87-.57q.35,0,.69,0,9.17.28,18.37.24c4.5,0,9-.13,13.5-.4,2.23-.14,4.46-.31,6.63-.59A31.27,31.27,0,0,0,445.05,187.2Z"/>
    <path class="cls-4" d="M431.87,150.92c-1,1.94-1.94,4.23-2.89,6.48s-1.92,4.61-2.88,6.94q-2.25,5.52-4.47,11.14a3.09,3.09,0,0,0-.14.32l-.4.24.14-.32c1.61-3.94,3.21-7.84,4.83-11.69,1-2.3,1.93-4.56,2.91-6.8S430.9,152.78,431.87,150.92Z"/>
    <path class="cls-4" d="M301.75,269.65l-.63,0c-2.57-.07-5.11-.28-7.64-.59a74.59,74.59,0,0,1-8.15-1.4,54.18,54.18,0,0,1-7.89-2.45,30.81,30.81,0,0,1-7.15-4.07,30.62,30.62,0,0,0,7.26,3.79,53.9,53.9,0,0,0,7.9,2.14,76.48,76.48,0,0,0,8.12,1.09c2.36.2,4.73.32,7.08.31h1.09Z"/>
    <path class="cls-4" d="M286,225.22q-.19,6.85-1,13.69c0,.48-.11,1-.17,1.43-.3-.45-.63-.89-1-1.32.08-.45.15-.88.21-1.33.6-4.14,1.05-8.31,1.32-12.49a78.85,78.85,0,0,0,.12-8.42,23.87,23.87,0,0,0-1.5-8.23,24.34,24.34,0,0,1,1.8,8.22A76.89,76.89,0,0,1,286,225.22Z"/>
    <path class="cls-4" d="M260,211.71l0,.09-.37,0c-4.16-.19-8.27-.48-12.36-.85q-3.15-.28-6.24-.67a39,39,0,0,1-5.82-1.14,38.71,38.71,0,0,0,5.91,1c2.07.23,4.16.41,6.27.56,3.87.27,7.78.46,11.68.58h.5Z"/>
    <path class="cls-4" d="M298,184.07l-.12,1.21-.11,0a99.66,99.66,0,0,1-14.87-3.33,129.2,129.2,0,0,1-14.38-5.21,130.9,130.9,0,0,1-13.67-6.82,136,136,0,0,1-12.8-8.31,138.31,138.31,0,0,0,12.95,8,130,130,0,0,0,13.76,6.52,128.32,128.32,0,0,0,14.39,4.9,100.87,100.87,0,0,0,14,2.9Z"/>
    <path class="cls-4" d="M293.5,147.16a184.5,184.5,0,0,1-4.14,18.14h0a1,1,0,0,1-.06.23l-.75-.23c-.1-.2-.18-.4-.26-.6.12-.35.23-.72.33-1.08,1.68-5.44,3.11-11,4.27-16.57a95.5,95.5,0,0,0,2.23-18.61A97.06,97.06,0,0,1,293.5,147.16Z"/>
    <path class="cls-4" d="M271.08,121.18l-.24.35a.19.19,0,0,1-.07-.06q-5.59-4-10.86-8.41a83.38,83.38,0,0,1-10-9.57,84.1,84.1,0,0,0,10.32,9.1c3.18,2.41,6.44,4.74,9.75,7,.18.13.37.25.57.38C270.75,120.35,270.91,120.77,271.08,121.18Z"/>
    <path class="cls-4" d="M375.72,161.11c-2.64.08-5.28,0-7.92-.15s-5.27-.31-7.91-.52q-7.83-.62-15.65-1.46h-.13l.16-1.2,1.29.19c4.78.68,9.59,1.32,14.39,1.88,2.62.3,5.24.58,7.87.81S373.08,161.09,375.72,161.11Z"/>
    <path class="cls-4" d="M369.71,121.65a19.12,19.12,0,0,0-3.37,5.9,48.77,48.77,0,0,0-2,6.54c-.52,2.21-.93,4.45-1.32,6.69l-.37,2.25-.18,1.14,0,.08-.42.36c-.17.14-.34.29-.51.42l-.42.35.3-1.31,0-.11.71-3.34c.48-2.24,1-4.48,1.62-6.69a49.33,49.33,0,0,1,2.26-6.49A19.31,19.31,0,0,1,369.71,121.65Z"/>
    <path class="cls-4" d="M412.78,112.9a27.64,27.64,0,0,1-8.39,1.78,54.78,54.78,0,0,1-8.4,0h-.25l0-.27c.18-.16.36-.33.54-.48s.23-.2.34-.29l.06,0a2.91,2.91,0,0,0,.4,0,52.83,52.83,0,0,0,7.24.47A27.34,27.34,0,0,0,412.78,112.9Z"/>
    <path class="cls-4" d="M347.18,87.69l-.34.8a1,1,0,0,1-.23-.12c-1.57-.76-3.06-1.59-4.54-2.48s-3.05-1.91-4.49-3a38.16,38.16,0,0,1-4.11-3.5,20.63,20.63,0,0,1-3.3-4.22,20.62,20.62,0,0,0,3.51,4,36.13,36.13,0,0,0,4.25,3.21c1.47,1,3,1.86,4.59,2.7,1.25.65,2.53,1.29,3.81,1.85a8.2,8.2,0,0,0,.76.32v0s0,.06,0,.09a1.14,1.14,0,0,1,.06.25Z"/>
    <path class="cls-4" d="M391.58,80a6.36,6.36,0,0,1-3,1.08,21.12,21.12,0,0,1-3.18.18,40.05,40.05,0,0,1-6.07-.63l-.26-.05,0-.17.54-.29a4.74,4.74,0,0,1,.54-.29l.25-.13.37.09a34.62,34.62,0,0,0,4.63.86,19.16,19.16,0,0,0,3.12.12A6.21,6.21,0,0,0,391.58,80Z"/>
    <path class="cls-4" d="M385.84,33.38l-.47-.4-1.91-1.58L385.37,33Z"/>
    <path class="cls-4" d="M245.37,564.11l-.08.24a1.09,1.09,0,0,0,.07-.24Z"/>
    <path class="cls-5" d="M393.58,72.83c-4.26,2.32-8.49,4.64-12.73,7l-.23.14c-.34.18-.69.37-1,.58l-.22.12c-2.43,1.34-4.86,2.68-7.29,4q-5.35,3-10.66,6.06c-3.5,2-7,4.06-10.34,6.32,0,0-.06,0-.1.06l-.21-.29h0l.23-.79.44-.29c3.16-2,6.4-3.78,9.64-5.6q5.37-3,10.78-5.86l7.29-3.87.54-.29a4.74,4.74,0,0,1,.54-.29l.25-.13C384.84,77.41,389.2,75.1,393.58,72.83Z"/>
    <path class="cls-5" d="M419.45,92.81q-10.36,9.91-21,19.62c-.44.4-.86.8-1.3,1.18a.1.1,0,0,1-.05,0c-.26.26-.54.51-.81.75l-.27.26q-9.37,8.59-18.92,17-7.26,6.39-14.65,12.61l-.42.36c-.17.14-.34.29-.51.42l-.42.35c-1.95,1.63-3.92,3.26-5.89,4.87-3.2,2.6-6.42,5.19-9.68,7.7h0l-1.32,1c-3.6,2.77-7.28,5.47-11.05,8l-.87.59-.09-.12c.12-.51.24-1,.37-1.51h0l1-.66c7.27-4.89,14.21-10.3,21.09-15.76,2.13-1.71,4.26-3.41,6.36-5.14l.4-.33c.33-.26.66-.54,1-.81a2.76,2.76,0,0,0,.27-.23c4.74-3.88,9.4-7.84,14.05-11.84q9.64-8.3,19.11-16.81c.18-.16.36-.33.54-.48s.23-.2.34-.29l.06,0,1.49-1.34Q409,102.61,419.45,92.81Z"/>
    <path class="cls-5" d="M448.76,159.15q-10.86,6.49-21.63,13.16h0c-.22.13-.44.26-.66.41-1.65,1-3.31,2-5,3.08l-.4.24q-5.22,3.26-10.43,6.56c-3.44,2.2-6.89,4.41-10.32,6.66l-.85.55-.88.57c-.4.24-.8.51-1.2.78-1.84,1.19-3.66,2.41-5.48,3.64-6.15,4.18-12.34,8.37-18,13.14-4.54,4-9.14,7.91-13.72,11.85a1.49,1.49,0,0,0-.14.12c-5.55,4.77-11.09,9.54-16.55,14.41h0q-.7.6-1.41,1.26c-.63.55-1.27,1.12-1.9,1.69-5.52,5-11,10.07-16.22,15.34-1.31,1.33-2.64,2.64-3.88,4s-2.56,2.69-3.74,4.12l-1.81,2.12-1.7,2.18a51.46,51.46,0,0,0-2.95,4.27l-.18.27-1-.61c.63-.93,1.24-1.89,1.89-2.83h0c.42-.61.87-1.23,1.35-1.8l1.74-2.21,1.85-2.12c1.21-1.44,2.51-2.78,3.79-4.13s2.61-2.69,3.93-4c5.29-5.26,10.79-10.3,16.37-15.25.81-.73,1.63-1.45,2.45-2.17h0l.05,0c5.61-5,11.31-9.8,17-14.64.44-.36.87-.74,1.3-1.09q6.57-5.58,13.13-11.19c5.79-4.76,12-8.91,18.18-13.06,1.92-1.27,3.84-2.53,5.78-3.77a5.25,5.25,0,0,1,.49-.33l.83-.52.87-.57c3.6-2.32,7.23-4.6,10.85-6.89s7.15-4.43,10.73-6.62a3.26,3.26,0,0,1,.4-.24c1.53-1,3.08-1.9,4.63-2.83.31-.22.64-.41.95-.6Q437.94,165.52,448.76,159.15Z"/>
    <path class="cls-5" d="M479.36,263.76c-17.55,5.94-34.82,12.65-51.88,19.82s-33.87,15-50.3,23.49c-7.44,3.88-14.81,7.93-22.05,12.16h0c-.67.38-1.33.76-2,1.17h0l-.18.09c-7.93,4.75-15.73,9.72-23.29,15A234.6,234.6,0,0,0,308,352.71c-2,1.81-4,3.66-5.88,5.56-.38.37-.77.76-1.15,1.15a118.15,118.15,0,0,0-11.31,13.2c-.09.11-.74,1.1-.82,1.21l-1-2,.24-1.13s0,0,0,0c.85-1.12,1.72-2.23,2.64-3.32h0a139.42,139.42,0,0,1,15.85-16.2c2.77-2.45,5.61-4.8,8.5-7.1l1.29-1h0c4-3.12,8.07-6.1,12.22-9,7.67-5.23,15.55-10.15,23.56-14.83s16.21-9,24.47-13.22q15.66-7.89,31.71-14.94h0c.45-.21.91-.4,1.36-.58h0c5.8-2.57,11.65-5,17.53-7.44C444.4,276,461.75,269.5,479.36,263.76Z"/>
    <path class="cls-5" d="M349.15,101.91h0c-.1.31-.2.62-.29.92,0,0,0,0,0,0s0,0,0,0,0,0,0,0,0,0,0,0h0c-.1.29-.18.58-.27.88a.44.44,0,0,0,0,.1h-.29v-.09a69.64,69.64,0,0,0-1.66-15.4s0,0,0-.06c0-.19-.06-.39-.11-.58s-.11-.54-.17-.81v0A152,152,0,0,0,342.19,72c-1.68-5.19-3.59-10.29-5.63-15.34s-4.21-10.08-6.58-15c2.43,4.88,4.67,9.86,6.79,14.89s4.09,10.12,5.85,15.28a152.11,152.11,0,0,1,4.47,15.39v0s0,.06,0,.09a1.14,1.14,0,0,1,.06.25l0,0a79,79,0,0,1,1.94,13.46h0C349.13,101.42,349.15,101.66,349.15,101.91Z"/>
    <path class="cls-5" d="M318.85,220.87l-1,.69s0,0,0,0c-7.7-11.54-14.07-23.85-20.11-36.27a.25.25,0,0,1,0-.07c-.19-.41-.4-.81-.58-1.22h0c-3-6.17-5.82-12.39-8.55-18.65-.1-.2-.18-.4-.26-.6q-3.81-8.73-7.4-17.53-5.26-12.8-10.12-25.71c-.26-.64-.5-1.28-.74-1.92-1.4-3.7-2.77-7.41-4.14-11.12-4.75-13-9.34-26.08-13.63-39.24,4.39,13.13,9.08,26.17,13.92,39.13,1.46,3.88,2.92,7.75,4.42,11.61.15.42.31.84.48,1.25q5,13,10.36,25.77c2.34,5.58,4.72,11.14,7.18,16.68l.74,1.67h0c2.93,6.55,5.95,13.05,9.13,19.48,6,12,12.22,24,19.69,35.08Z"/>
    <path class="cls-5" d="M293,343.19l-.09,0-1.59.36-.09,0c-4.17-17.88-12.5-34.51-21.93-50.27l-.71-1.18-.69-1.14c-4.31-7.1-8.84-14.08-13.36-21.05L247,258.34c-2.49-3.89-4.91-7.82-7.51-11.6q-3.34-4.83-6.95-9.47l-.92-1.2c-3-3.76-6-7.44-9.14-11.08-4.54-5.23-9.14-10.39-13.86-15.47a1.22,1.22,0,0,0-.15-.17c-1.52-1.63-3-3.24-4.56-4.84q-7.62-8-15.43-15.87c-.14-.14-.28-.27-.42-.42q-11.52-11.53-23.42-22.68,12.09,11.13,23.79,22.69a3.51,3.51,0,0,1,.34.33q7.83,7.73,15.46,15.63c1.46,1.5,2.89,3,4.33,4.52l.87.93Q216.34,217,223,224.55c3.29,3.76,6.52,7.59,9.61,11.51h0c2.64,3.32,5.19,6.69,7.62,10.16,2.66,3.8,5.1,7.7,7.62,11.56l5.63,8.54h0l.94,1.42,1,1.57c4.73,7.16,9.46,14.32,13.95,21.63.24.39.49.78.73,1.18.09.17.2.32.3.49,9,14.8,17.13,30.47,21.71,47.37.28,1,.54,2,.78,3h0Z"/>
    <path class="cls-5" d="M272.24,433.55h0a.2.2,0,0,1,0,.1l-2.15.86h0a181.22,181.22,0,0,0-7.84-17.06l-1.08-2.09L260,413.32l-2.32-4.08c-1.27-2-2.49-4.11-3.78-6.13-.21-.34-.44-.68-.67-1s-.36-.56-.55-.84a217,217,0,0,0-23.43-29.48q-7.44-7.9-15.58-15.14h0l-1.28-1.15h0q-5.37-4.71-11-9.14-7.43-5.83-15.26-11.14c-5.22-3.53-10.55-6.91-16.09-9.91,5.58,2.92,11,6.21,16.26,9.65s10.43,7.1,15.46,10.93q6,4.61,11.82,9.57a.12.12,0,0,1,.05.05h0c5.71,4.88,11.23,10,16.5,15.45,1.25,1.28,2.49,2.58,3.68,3.9.47.49.92,1,1.37,1.49,0,0,.05,0,0,0l.16.17a209.4,209.4,0,0,1,18.8,23.7c1.83,2.59,3.45,5.31,5.18,8l.76,1.31,0,0,.88,1.49h0l.74,1.26,1.21,2.05,1.12,2.1c2.59,4.62,4.83,9.41,6.95,14.26v0C271.43,431.68,271.84,432.62,272.24,433.55Z"/>
    <path class="cls-5" d="M407,391.73a308.23,308.23,0,0,0-37.9,3c-3.06.43-6.11.9-9.17,1.43h0l-1.37.24A251,251,0,0,0,332,402.57a183.62,183.62,0,0,0-17.86,6.31,126.41,126.41,0,0,0-15.55,7.84l-1.25.77,0,0c-9.53,5.84-18,13.55-23.75,23,0,0,0,0,0,0-.7,1.13-1.34,2.29-1.94,3.48l-.86-.44c.25-1.07.5-2.15.74-3.22.12-.51.23-1,.35-1.53h0c.95-1.5,2-3,3.07-4.36a62.63,62.63,0,0,1,6.19-6.94c1.53-1.49,3.12-2.92,4.77-4.27.58-.5,1.18-1,1.78-1.43a0,0,0,0,0,0,0,83,83,0,0,1,8.73-5.9,126.52,126.52,0,0,1,17.17-8.45,185.79,185.79,0,0,1,18.1-6.08c.48-.14.94-.27,1.43-.39h0l1.46-.39h0A261.73,261.73,0,0,1,369,394.14,311.23,311.23,0,0,1,407,391.73Z"/>
    <path class="cls-5" d="M318.2,487.54a172.6,172.6,0,0,0-19.48,3.17,138.86,138.86,0,0,0-18.87,5.51,75.24,75.24,0,0,0-17.29,8.91,34.52,34.52,0,0,0-10.41,11.34,24.3,24.3,0,0,0-1.42,3.12l-1.51-.58c.47-1.85,1-3.7,1.43-5.56a30.81,30.81,0,0,1,3.29-4.07,42.48,42.48,0,0,1,7.32-6.11,64.42,64.42,0,0,1,7.55-4.24h0c.62-.3,1.23-.59,1.86-.87a91.12,91.12,0,0,1,8.66-3.36A141.25,141.25,0,0,1,298.57,490,170.83,170.83,0,0,1,318.2,487.54Z"/>
    <path class="cls-5" d="M247.37,526.48l-.27,1.06-2.4,0-.31,0a38.66,38.66,0,0,0-1.83-13.73c-.27-.87-.58-1.72-.92-2.56-.18-.5-.38-1-.6-1.45h0a48,48,0,0,0-4.86-8.52,62.14,62.14,0,0,0-9.58-10.54,69,69,0,0,0-11.66-8.39,69,69,0,0,1,12.14,7.81,62.62,62.62,0,0,1,10.3,10.22A47,47,0,0,1,244.7,513a39.36,39.36,0,0,1,2,7h0A41.54,41.54,0,0,1,247.37,526.48Z"/>
    <path class="cls-5" d="M284.18,379.27h0c-.11.46-.22.92-.33,1.36l-.53,2.07-1.15-2.08-3.41-8.36-3.52-7.68h0l-.5-1.12a2,2,0,0,1-.11-.2c-1.48-2.79-2.83-5.65-4.39-8.37s-3.18-5.62-5-8.3-3.63-5.35-5.52-8l-3-3.79c-1-1.25-2.12-2.43-3.19-3.65s-2.25-2.32-3.37-3.48-2.36-2.22-3.6-3.25a39.53,39.53,0,0,0-8-5.45,39.76,39.76,0,0,1,8.19,5.22c1.28,1,2.49,2.09,3.72,3.15s2.38,2.22,3.5,3.39,2.26,2.35,3.32,3.58l3.17,3.72,2.58,3.37h0c.4.54.81,1.08,1.21,1.63.68.93,1.35,1.88,2,2.85,1.9,2.65,3.57,5.44,5.28,8.21s3.2,5.67,4.8,8.51l4.36,8.76,2.4,5.44h0Z"/>
    <path class="cls-5" d="M306.91,282.08v0c0,.18-.07.36-.12.54l-1.26.3-.25.06a107.14,107.14,0,0,0-3.85-12.57c-.11-.27-.2-.53-.31-.8s-.32-.77-.47-1.17h0c-1.38-3.41-2.89-6.77-4.61-10a144.78,144.78,0,0,0-11.18-18.07c-.3-.45-.63-.89-1-1.32-.69-1-1.4-1.9-2.11-2.84a199,199,0,0,0-17.52-19.87q-2.31-2.28-4.68-4.53c-.07-.07-.15-.13-.22-.21l-.34-.31-.64-.58a182.73,182.73,0,0,0-14.06-11.85,178.82,178.82,0,0,1,14.58,11.9l.49.43a.63.63,0,0,0,.12.11h0l.46.44q2.33,2.1,4.59,4.28a197.12,197.12,0,0,1,17.92,19.63l.71.91c.22.28.44.55.64.83l.26.33c.31.4.61.81.92,1.22a145,145,0,0,1,12.21,18.86,119.79,119.79,0,0,1,5.67,12.09,103.41,103.41,0,0,1,3.35,9.88h0C306.49,280.52,306.7,281.31,306.91,282.08Z"/>
    <path class="cls-5" d="M373.5,266.54c-7,3.14-13.92,6.6-20.7,10.25q-4.6,2.47-9.13,5.11l-2.06,1.21q-4.38,2.63-8.68,5.39a172.61,172.61,0,0,0-18.49,13.7,95.21,95.21,0,0,0-8.2,8,51.31,51.31,0,0,0-6.72,9.14l-.12-.07-1.45-.83a37.66,37.66,0,0,1,2.32-3.53v0a60.29,60.29,0,0,1,4.8-5.76,99.58,99.58,0,0,1,8.48-8c1.06-.87,2.11-1.72,3.2-2.56h0q.9-.71,1.8-1.38h0c4.47-3.39,9.13-6.51,13.87-9.47q4-2.5,8.16-4.85l1.67-.95q5.12-2.88,10.32-5.55C359.45,272.87,366.4,269.55,373.5,266.54Z"/>
    <path class="cls-5" d="M304.31,443.07a75.47,75.47,0,0,0-13.58,6.15,79.88,79.88,0,0,0-12.15,8.53c-1.92,1.55-3.64,3.33-5.4,5-.85.9-1.63,1.84-2.46,2.76-.4.46-.82.91-1.21,1.38l-1.11,1.47a55.71,55.71,0,0,0-5.92,9.31c-.57,1.07-1.1,2.14-1.63,3.22l-1.19-.57,1.38-5.74c1-1.66,2.11-3.28,3.3-4.83h0c.74-1,1.5-1.9,2.31-2.8l1.21-1.47c.43-.46.88-.9,1.33-1.36.88-.9,1.75-1.83,2.66-2.7,1.9-1.67,3.75-3.38,5.79-4.87,1.23-.94,2.49-1.86,3.77-2.72.53-.38,1.06-.73,1.61-1.08a82.29,82.29,0,0,1,7.35-4.23A76.45,76.45,0,0,1,304.31,443.07Z"/>
    <path class="cls-6" d="M369.08,40.16l-.06.18q-5.38,15.6-10.33,31.42c-34.08,109-53.61,225.5-76.85,336.56-7.07,29.11-18.21,57.4-24.47,86.6-6.14,34.43-15.13,68.3-23.67,102.17a3.33,3.33,0,0,1-.66,1.33h0a3.48,3.48,0,0,1-6.06-3.08c8.92-33.67,18.3-67.33,24.83-101.54,6.69-29.55,18.09-57.39,25.59-86.63C304.35,285.62,327,157.54,369.08,40.16Z"/>
    <path class="cls-7" d="M369.08,40.16l-.06.18c-.76,2.26-5.32,16-10.33,31.42-4.68,14.47-9.76,30.49-12.43,40.08-5.8,20.81-13.5,49.9-15.65,58.57s-10.83,44.74-13.18,55.11-7.3,32-9.52,42.65-9.13,43.29-10.63,51.16-8.41,39.56-10,47.06-7.83,39.13-10.89,50-11,37.17-14,45.13a306.35,306.35,0,0,0-11.09,41.67c-2.6,14.55-8,37.44-10.89,49.05-2.1,8.31-10.88,32.64-10.73,42.7,0,3.23,2,3.33,4,2.13a12.67,12.67,0,0,1-.66,1.33h0a3.48,3.48,0,0,1-6.06-3.08c8.92-33.67,18.3-67.33,24.83-101.54,6.69-29.55,18.09-57.39,25.59-86.63C304.35,285.62,327,157.54,369.08,40.16Z"/>
    <ellipse class="cls-8" cx="233.9" cy="586.12" rx="9.34" ry="1.42" transform="translate(-390.18 679.7) rotate(-76.77)"/>
  </g>
</svg>
