<?xml version="1.0" encoding="iso-8859-1"?>
<!-- Generator: Adobe Illustrator 18.0.0, SVG Export Plug-In . SVG Version: 6.00 Build 0)  -->
<!DOCTYPE svg PUBLIC "-//W3C//DTD SVG 1.1//EN" "http://www.w3.org/Graphics/SVG/1.1/DTD/svg11.dtd">
<svg version="1.1" id="Capa_1" xmlns="http://www.w3.org/2000/svg" xmlns:xlink="http://www.w3.org/1999/xlink" x="0px" y="0px"
	 viewBox="0 0 297.5 297.5" style="enable-background:new 0 0 297.5 297.5;" xml:space="preserve">
<g>
	<g id="XMLID_42_">
		<g>
			<path style="fill:#1ABC9C;" d="M88.305,51.92c3.5,0,6.34,2.84,6.34,6.33c0,3.5-2.84,6.34-6.34,6.34c-3.49,0-6.33-2.84-6.33-6.34
				C81.975,54.76,84.815,51.92,88.305,51.92z"/>
			<path style="fill:#FFA800;" d="M88.305,19.75c21.24,0,38.51,17.27,38.51,38.5c0,31.99-27.13,58.36-38.85,68.26
				c-11.69-8.95-38.16-33.11-38.16-68.26C49.805,37.02,67.075,19.75,88.305,19.75z M114.145,58.25c0-14.24-11.59-25.83-25.84-25.83
				c-14.24,0-25.83,11.59-25.83,25.83c0,14.25,11.59,25.84,25.83,25.84C102.555,84.09,114.145,72.5,114.145,58.25z"/>
			<polygon style="fill:#2ECC71;" points="44.515,177.25 57.075,277.75 23.965,277.75 23.965,185.47 			"/>
			<path style="fill:#1ABC9C;" d="M38.265,95.41l-14.3,5.06V43.14h8.35c-1.3,4.82-2.01,9.89-2.01,15.11
				C30.305,72.17,33.475,84.59,38.265,95.41z"/>
			<path style="fill:#2ECC71;" d="M77.505,143.06l-53.54,21.41v-43.32l24-8.49C58.215,127.55,70.455,137.84,77.505,143.06z"/>
			<path style="fill:#1ABC9C;" d="M153.725,43.14l1.5,10.85l-8.94,3.17c-0.09-4.84-0.77-9.54-1.98-14.02H153.725z"/>
			<path style="fill:#1ABC9C;" d="M273.525,170.31v107.44h-160.12c4.09-10.98,12.36-29.03,27.39-47.25
				C172.215,192.42,216.855,172.19,273.525,170.31z"/>
			<path style="fill:#2ECC71;" d="M208.895,43.14l25.18,112.03c-10.89,2.15-20.97,5-30.27,8.36l-13.43-53.7
				c-0.68-2.73-2.51-5.03-5.02-6.32c-2.51-1.28-5.45-1.41-8.06-0.37l-62.86,25.15c11.15-11.9,23.74-28.97,29.16-49.5l25.63-9.07
				c4.36-1.55,7.04-5.95,6.4-10.53l-2.22-16.05H208.895z"/>
			<path d="M293.025,33.39V287.5c0,5.39-4.37,9.75-9.75,9.75H14.225c-5.39,0-9.75-4.36-9.75-9.75V33.39c0-5.38,4.36-9.74,9.75-9.74
				h27.56c10.59-14.19,27.5-23.4,46.52-23.4c19.03,0,35.94,9.21,46.52,23.4h148.45C288.655,23.65,293.025,28.01,293.025,33.39z
				 M273.525,277.75V170.31c-56.67,1.88-101.31,22.11-132.73,60.19c-15.03,18.22-23.3,36.27-27.39,47.25H273.525z M273.525,150.82
				V43.14h-44.65l24.52,109.08C259.855,151.51,266.565,151.04,273.525,150.82z M234.075,155.17l-25.18-112.03h-35.49l2.22,16.05
				c0.64,4.58-2.04,8.98-6.4,10.53l-25.63,9.07c-5.42,20.53-18.01,37.6-29.16,49.5l62.86-25.15c2.61-1.04,5.55-0.91,8.06,0.37
				c2.51,1.29,4.34,3.59,5.02,6.32l13.43,53.7C213.105,160.17,223.185,157.32,234.075,155.17z M185.615,171.18l-11.45-45.79
				l-110.94,44.38l13.5,107.98h16.05c3.52-11.08,12.83-35.24,32.98-59.65C138.935,202.12,158.265,184.43,185.615,171.18z
				 M155.225,53.99l-1.5-10.85h-9.42c1.21,4.48,1.89,9.18,1.98,14.02L155.225,53.99z M126.815,58.25c0-21.23-17.27-38.5-38.51-38.5
				c-21.23,0-38.5,17.27-38.5,38.5c0,35.15,26.47,59.31,38.16,68.26C99.685,116.61,126.815,90.24,126.815,58.25z M23.965,164.47
				l53.54-21.41c-7.05-5.22-19.29-15.51-29.54-30.4l-24,8.49V164.47z M57.075,277.75l-12.56-100.5l-20.55,8.22v92.28H57.075z
				 M23.965,100.47l14.3-5.06c-4.79-10.82-7.96-23.24-7.96-37.16c0-5.22,0.71-10.29,2.01-15.11h-8.35V100.47z"/>
			<path style="fill:#3498DB;" d="M273.525,43.14v107.68c-6.96,0.22-13.67,0.69-20.13,1.4l-24.52-109.08H273.525z"/>
			<path style="fill:#3498DB;" d="M174.165,125.39l11.45,45.79c-27.35,13.25-46.68,30.94-59.86,46.92
				c-20.15,24.41-29.46,48.57-32.98,59.65h-16.05l-13.5-107.98L174.165,125.39z"/>
			<path d="M88.305,32.42c14.25,0,25.84,11.59,25.84,25.83c0,14.25-11.59,25.84-25.84,25.84c-14.24,0-25.83-11.59-25.83-25.84
				C62.475,44.01,74.065,32.42,88.305,32.42z M94.645,58.25c0-3.49-2.84-6.33-6.34-6.33c-3.49,0-6.33,2.84-6.33,6.33
				c0,3.5,2.84,6.34,6.33,6.34C91.805,64.59,94.645,61.75,94.645,58.25z"/>
		</g>
		<g>
		</g>
	</g>
</g>
<g>
</g>
<g>
</g>
<g>
</g>
<g>
</g>
<g>
</g>
<g>
</g>
<g>
</g>
<g>
</g>
<g>
</g>
<g>
</g>
<g>
</g>
<g>
</g>
<g>
</g>
<g>
</g>
<g>
</g>
</svg>
