<svg height="512" viewBox="0 0 60 60" width="512" xmlns="http://www.w3.org/2000/svg"><g id="Page-1" fill="none" fill-rule="evenodd"><g id="009---Moisture-Wicking-Fabric" fill-rule="nonzero"><rect id="Rectangle-path" fill="#ffdc00" height="4" rx="2" width="58" x="1" y="33"/><path id="Shape" d="m57 33h-3c1.1045695 0 2 .8954305 2 2s-.8954305 2-2 2h3c1.1045695 0 2-.8954305 2-2s-.8954305-2-2-2z" fill="#fec108"/><path id="Shape" d="m15.969 1-7 8h2.912c.2879646-.00013996.5620123.12386526.7519906.34027199.1899783.21640672.2774448.50420706.2400094.78972801-.3653484 3.2734461-1.7769124 6.3417128-4.025 8.749-3.948 3.944-4.703 10.442-4.848 13.061-.0165573.2754504.08144377.5454995.27080463.746222.18936085.2007226.45324826.3142752.72919537.313778h4.009c.52544981.0054718.9640078-.3997558 1-.924.159-2.361.884-6.759 3.085-8.96 3.4073076-3.5969946 5.467183-8.2607701 5.831-13.202.0447487-.51844756.4796284-.91592761 1-.914h3.048z" fill="#e91e63"/><path id="Shape" d="m15.926 9.914c-.3647102 4.9434598-2.4263729 9.609049-5.836 13.207-2.2 2.2-2.926 6.6-3.085 8.96-.03704807.515409-.46427215.9156322-.981.9190548l2.984-.0000548c.52544981.0054718.9640078-.3997558 1-.924.159-2.361.884-6.759 3.085-8.96 3.4074827-3.597078 5.4679866-8.2606769 5.833-13.202.0414781-.52005405.4783217-.91932915 1-.91405273l-3 .00005273c-.5216783-.00532915-.9585219.39394595-1 .914z" fill="#ad1457"/><path id="Shape" d="m15.969 1-1.5 1.714 5.5 6.286h3z" fill="#ad1457"/><path id="Shape" d="m34 1-7 8h2.912c.2879646-.00013996.5620123.12386526.7519906.34027199.1899783.21640672.2774448.50420706.2400094.78972801-.3649306 3.2735623-1.7765524 6.3419545-4.025 8.749-3.944 3.944-4.7 10.442-4.846 13.061-.0168445.275618.0810281.5459337.2704211.7468797s.4534471.3146346.7295789.3141203h4.01c.5254498.0054718.9640078-.3997558 1-.924.159-2.361.885-6.759 3.085-8.96 3.4062319-3.5979105 5.4653109-8.2618356 5.829-13.203.0419504-.51982285.4785096-.91883795 1-.914h3.043z" fill="#e91e63"/><path id="Shape" d="m33.957 9.914c-.3647102 4.9434598-2.4263729 9.609049-5.836 13.207-2.2 2.2-2.926 6.6-3.085 8.96-.0360536.516198-.4635559.9175534-.981.9210548l2.985-.0000548c.5254498.0054718.9640078-.3997558 1-.924.159-2.361.885-6.759 3.085-8.96 3.4075371-3.5977419 5.4677121-8.2621025 5.832-13.204.0419504-.51982285.4785096-.91883795 1-.91404353l-3 .00004353c-.5214904-.00483795-.9580496.39417715-1 .914z" fill="#ad1457"/><path id="Shape" d="m34 1-1.5 1.714 5.5 6.286h3z" fill="#ad1457"/><path id="Shape" d="m52 1-7 8h2.912c.2879646-.00013996.5620123.12386526.7519906.34027199.1899783.21640672.2774448.50420706.2400094.78972801-.3649306 3.2735623-1.7765524 6.3419545-4.025 8.749-3.944 3.944-4.7 10.442-4.846 13.061-.0168445.275618.0810281.5459337.2704211.7468797s.4534471.3146346.7295789.3141203h4.01c.5254498.0054718.9640078-.3997558 1-.924.159-2.361.885-6.759 3.085-8.96 3.4062319-3.5979105 5.4653109-8.2618356 5.829-13.203.0419504-.51982285.4785096-.91883795 1-.914h3.043z" fill="#e91e63"/><path id="Shape" d="m51.957 9.914c-.3647102 4.9434598-2.4263729 9.609049-5.836 13.207-2.2 2.2-2.926 6.6-3.085 8.96-.0360536.516198-.4635559.9175534-.981.9210548l2.985-.0000548c.5254498.0054718.9640078-.3997558 1-.924.159-2.361.885-6.759 3.085-8.96 3.4075371-3.5977419 5.4677121-8.2621025 5.832-13.204.0419504-.51982285.4785096-.91883795 1-.91404353l-3 .00004353c-.5214904-.00483795-.9580496.39417715-1 .914z" fill="#ad1457"/><path id="Shape" d="m52 1-1.5 1.714 5.5 6.286h3z" fill="#ad1457"/><path id="Shape" d="m27 54c0 2.7614237-2.2385763 5-5 5s-5-2.2385763-5-5c0-5 5-9 5-9s5 4 5 9z" fill="#02a9f4"/><path id="Shape" d="m22 45c-.5316639.4466046-1.0327876.9283516-1.5 1.442 1.473 1.598 3.5 4.372 3.5 7.558-.0055366 2.1764172-1.4223853 4.097664-3.5 4.746 1.5162558.5066858 3.1840091.247652 4.4751436-.6950748 1.2911344-.9427268 2.0457384-2.4523865 2.0248564-4.0509252 0-5-5-9-5-9z" fill="#0377bc"/><path id="Shape" d="m11 54c0 2.7614237-2.23857625 5-5 5s-5-2.2385763-5-5c0-5 5-9 5-9s5 4 5 9z" fill="#02a9f4"/><path id="Shape" d="m6 45c-.53166386.4466046-1.03278757.9283516-1.5 1.442 1.473 1.598 3.5 4.372 3.5 7.558-.0055366 2.1764172-1.42238528 4.097664-3.5 4.746.48398622.1612072.98992186.246879 1.5.254 2.76142375 0 5-2.2385763 5-5 0-5-5-9-5-9z" fill="#0377bc"/><path id="Shape" d="m59 54c0 2.7614237-2.2385763 5-5 5s-5-2.2385763-5-5c0-5 5-9 5-9s5 4 5 9z" fill="#02a9f4"/><path id="Shape" d="m54 45c-.5316639.4466046-1.0327876.9283516-1.5 1.442 1.473 1.598 3.5 4.372 3.5 7.558-.0055366 2.1764172-1.4223853 4.097664-3.5 4.746 1.5162558.5066858 3.1840091.247652 4.4751436-.6950748 1.2911344-.9427268 2.0457384-2.4523865 2.0248564-4.0509252 0-5-5-9-5-9z" fill="#0377bc"/><path id="Shape" d="m43 54c-.0000001 2.7614237-2.2385763 4.9999999-5 4.9999999s-4.9999999-2.2385762-5-4.9999999c0-5 5-9 5-9s5 4 5 9z" fill="#02a9f4"/><path id="Shape" d="m38 45c-.5316639.4466046-1.0327876.9283516-1.5 1.442 1.473 1.598 3.5 4.372 3.5 7.558-.0055366 2.1764172-1.4223853 4.097664-3.5 4.746 1.5162558.5066858 3.1840091.247652 4.4751436-.6950748 1.2911344-.9427268 2.0457384-2.4523865 2.0248564-4.0509252 0-5-5-9-5-9z" fill="#0377bc"/><path id="Shape" d="m56 37-3 5h-50l3-5z" fill="#ff9801"/><path id="Shape" d="m53 37-3 5h3l3-5z" fill="#f57c00"/><g fill="#000"><path id="Shape" d="m57 32h-9.952c.21-2.842 1.044-6.435 2.78-8.172 3.5795214-3.7622073 5.7440848-8.6489962 6.125-13.828h3.047c.3926513.0003367.7491638-.22914774.9114493-.586693.1622855-.35754525.1003082-.77697709-.1584493-1.072307l-7-8c-.1955519-.20737134-.4679677-.32491831-.753-.32491831s-.5574481.11754697-.753.32491831l-7 8c-.2587575.29532991-.3207348.71476175-.1584493 1.072307.1622855.35754526.518798.5870297.9114493.586693l2.912.005c-.3310794 3.055038-1.6432964 5.9205128-3.74 8.167-4.188 4.187-4.987 10.985-5.137 13.712 0 .039.005.077.006.116h-9.993c.21-2.842 1.044-6.435 2.78-8.172 3.5795214-3.7622073 5.7440848-8.6489962 6.125-13.828h3.047c.3926513.0003367.7491638-.22914774.9114493-.586693.1622855-.35754525.1003082-.77697709-.1584493-1.072307l-7-8c-.1955519-.20737134-.4679677-.32491831-.753-.32491831s-.5574481.11754697-.753.32491831l-7 8c-.2587575.29532991-.3207348.71476175-.1584493 1.072307.1622855.35754526.518798.5870297.9114493.586693l2.912.005c-.3310794 3.055038-1.6432964 5.9205128-3.74 8.167-4.188 4.187-4.987 10.985-5.137 13.712 0 .039 0 .077.006.116h-10.024c.21-2.842 1.044-6.435 2.78-8.172 3.5793657-3.762211 5.7436035-8.6490629 6.124-13.828h3.048c.3926513.0003367.7491638-.22914774.9114493-.586693.1622855-.35754525.1003082-.77697709-.1584493-1.072307l-7-8c-.1955519-.20737134-.4679677-.32491831-.753-.32491831s-.5574481.11754697-.753.32491831l-7 8c-.25875747.29532991-.32073475.71476175-.15844929 1.072307.16228546.35754526.51879796.5870297.91144929.586693h2.912c-.3321345 3.0550423-1.6441907 5.9205169-3.74 8.168-4.188 4.191-4.988 10.989-5.141 13.716v.116c-1.65685425 0-3 1.3431458-3 3s1.34314575 3 3 3h1.234l-2.091 3.485c-.19180407.3065026-.20321654.6926712-.02984758 1.0099658.17336895.3172946.50451389.5162906.86605974.5204443.36154584.0041536.69717512-.1871822.87778784-.5004101l2.709-4.515h2.668l-2.091 3.485c-.19180407.3065026-.20321654.6926712-.02984758 1.0099658.17336895.3172946.50451389.5162906.86605974.5204443.36154584.0041536.69717512-.1871822.87778784-.5004101l2.709-4.515h2.668l-2.091 3.485c-.1918041.3065026-.2032165.6926712-.0298476 1.0099658.173369.3172946.5045139.5162906.8660598.5204443.3615458.0041536.6971751-.1871822.8777878-.5004101l2.709-4.515h2.668l-2.091 3.485c-.1918041.3065026-.2032165.6926712-.0298476 1.0099658.173369.3172946.5045139.5162906.8660598.5204443.3615458.0041536.6971751-.1871822.8777878-.5004101l2.709-4.515h2.668l-2.091 3.485c-.1918041.3065026-.2032165.6926712-.0298476 1.0099658.173369.3172946.5045139.5162906.8660598.5204443.3615458.0041536.6971751-.1871822.8777878-.5004101l2.709-4.515h2.668l-2.091 3.485c-.1918041.3065026-.2032165.6926712-.0298476 1.0099658.173369.3172946.5045139.5162906.8660598.5204443.3615458.0041536.6971751-.1871822.8777878-.5004101l2.709-4.515h2.668l-2.091 3.485c-.1918041.3065026-.2032165.6926712-.0298476 1.0099658.173369.3172946.5045139.5162906.8660598.5204443.3615458.0041536.6971751-.1871822.8777878-.5004101l2.709-4.515h2.668l-2.091 3.485c-.1918041.3065026-.2032165.6926712-.0298476 1.0099658.173369.3172946.5045139.5162906.8660598.5204443.3615458.0041536.6971751-.1871822.8777878-.5004101l2.709-4.515h2.668l-2.091 3.485c-.1918041.3065026-.2032165.6926712-.0298476 1.0099658.173369.3172946.5045139.5162906.8660598.5204443.3615458.0041536.6971751-.1871822.8777878-.5004101l2.709-4.515h2.668l-2.091 3.485c-.1918041.3065026-.2032165.6926712-.0298476 1.0099658.173369.3172946.5045139.5162906.8660598.5204443.3615458.0041536.6971751-.1871822.8777878-.5004101l2.709-4.515h2.668l-2.091 3.485c-.1918041.3065026-.2032165.6926712-.0298476 1.0099658.173369.3172946.5045139.5162906.8660598.5204443.3615458.0041536.6971751-.1871822.8777878-.5004101l2.709-4.515h.434c1.6568542 0 3-1.3431458 3-3s-1.3431458-3-3-3zm-15.969 0c.138-2.5.856-8.71 4.555-12.409 2.4102642-2.5604302 3.9229323-5.8349528 4.31-9.33.0751848-.57120124-.0996053-1.14708017-.4795981-1.58012642-.3799928-.43304626-.9282739-.68119144-1.5044019-.68087358h-.712l4.8-5.481 4.8 5.481h-.843c-1.0424177-.00194675-1.9115234.79709089-1.997 1.836-.3402967 4.7074148-2.2999583 9.1518113-5.546 12.578-2.714 2.713-3.269 8.024-3.374 9.586h-1.909zm-18 0c.138-2.5.856-8.71 4.555-12.409 2.4102642-2.5604302 3.9229323-5.8349528 4.31-9.33.0751848-.57120124-.0996053-1.14708017-.4795981-1.58012642-.3799928-.43304626-.9282739-.68119144-1.5044019-.68087358h-.712l4.8-5.481 4.8 5.481h-.843c-1.0424177-.00194675-1.9115234.79709089-1.997 1.836-.3402967 4.7074148-2.2999583 9.1518113-5.546 12.578-2.714 2.713-3.269 8.024-3.374 9.586h-1.909zm-18.031 0c.138-2.5.855-8.71 4.555-12.409 2.4094741-2.5609637 3.9220138-5.8352086 4.31-9.33.0751848-.57120124-.0996053-1.14708017-.4795981-1.58012642-.3799928-.43304626-.9282739-.68119144-1.5044019-.68087358h-.708l4.8-5.481 4.792 5.481h-.844c-1.0404973.00065795-1.9066794.79900652-1.992 1.836-.3402967 4.7074148-2.2999583 9.1518113-5.546 12.578-2.713 2.713-3.27 8.024-3.374 9.586h-1.909zm52 4h-54c-.55228475 0-1-.4477153-1-1s.44771525-1 1-1h2 4.009c.017 0 .033-.005.05-.005h13.97 4.009c.017 0 .033-.005.051-.005h13.94 4.009c.017 0 .033-.005.051-.005h11.911c.5522847 0 1 .4477153 1 1s-.4477153 1-1 1z"/><path id="Shape" d="m22.625 44.219c-.3653328-.2925003-.8846672-.2925003-1.25 0-.219.181-5.375 4.363-5.375 9.781.0000001 3.3137084 2.6862916 5.9999999 6 5.9999999s5.9999999-2.6862915 6-5.9999999c0-5.418-5.156-9.6-5.375-9.781zm-.625 13.781c-2.209139 0-4-1.790861-4-4 0-3.439 2.736-6.451 4-7.658 1.264 1.207 4 4.219 4 7.658 0 2.209139-1.790861 4-4 4z"/><path id="Shape" d="m6 60c3.31233757-.0033074 5.9966926-2.6876624 6-6 0-5.418-5.156-9.6-5.375-9.781-.3653328-.2925003-.8846672-.2925003-1.25 0-.219.181-5.375 4.363-5.375 9.781.00330738 3.3123376 2.68766243 5.9966926 6 6zm0-13.658c1.264 1.207 4 4.219 4 7.658 0 2.209139-1.790861 4-4 4s-4-1.790861-4-4c0-3.439 2.736-6.451 4-7.658z"/><path id="Shape" d="m54.625 44.219c-.3653328-.2925003-.8846672-.2925003-1.25 0-.219.181-5.375 4.363-5.375 9.781 0 3.3137085 2.6862915 6 6 6s6-2.6862915 6-6c0-5.418-5.156-9.6-5.375-9.781zm-.625 13.781c-2.209139 0-4-1.790861-4-4 0-3.439 2.736-6.451 4-7.658 1.264 1.207 4 4.219 4 7.658 0 2.209139-1.790861 4-4 4z"/><path id="Shape" d="m38 60c3.3123376-.0033074 5.9966926-2.6876624 6-6 0-5.418-5.156-9.6-5.375-9.781-.3653328-.2925003-.8846672-.2925003-1.25 0-.219.181-5.375 4.363-5.375 9.781.0033074 3.3123376 2.6876624 5.9966926 6 6zm0-13.658c1.264 1.207 4 4.219 4 7.658 0 2.209139-1.790861 4-4 4s-4-1.790861-4-4c0-3.439 2.736-6.451 4-7.658z"/></g></g></g></svg>