<?xml version="1.0" encoding="iso-8859-1"?>
<!-- Generator: Adobe Illustrator 18.0.0, SVG Export Plug-In . SVG Version: 6.00 Build 0)  -->
<!DOCTYPE svg PUBLIC "-//W3C//DTD SVG 1.1//EN" "http://www.w3.org/Graphics/SVG/1.1/DTD/svg11.dtd">
<svg version="1.1" id="Capa_1" xmlns="http://www.w3.org/2000/svg" xmlns:xlink="http://www.w3.org/1999/xlink" x="0px" y="0px"
	 viewBox="0 0 297.82 297.82" style="enable-background:new 0 0 297.82 297.82;" xml:space="preserve">
<g>
	<g id="XMLID_45_">
		<g>
			<path style="fill:#046B90;" d="M242.885,262.021c0.53,4.239-0.579,8.17-3.14,11.06c-2.55,2.89-6.31,4.49-10.59,4.49h-160.5
				c-4.271,0-8.03-1.601-10.58-4.49c-2.56-2.89-3.68-6.82-3.15-11.06L76.005,93.38h145.801L242.885,262.021z M208.405,246.32v-115.5
				c0-5.53-4.47-10-10-10c-5.52,0-10,4.47-10,10v115.5c0,5.52,4.48,10,10,10C203.936,256.32,208.405,251.84,208.405,246.32z
				 M158.905,246.32v-115.5c0-5.53-4.47-10-10-10c-5.52,0-10,4.47-10,10v115.5c0,5.52,4.48,10,10,10
				C154.436,256.32,158.905,251.84,158.905,246.32z M109.405,246.32v-115.5c0-5.53-4.47-10-10-10c-5.521,0-10,4.47-10,10v115.5
				c0,5.52,4.479,10,10,10C104.936,256.32,109.405,251.84,109.405,246.32z"/>
			<path style="fill:#80AAB8;" d="M229.905,63.38c0,3.36-0.79,6.71-2.37,10H70.285c-1.58-3.29-2.38-6.64-2.38-10
				c0-23.38,37.1-43.13,81-43.13C192.815,20.25,229.905,40,229.905,63.38z M175.405,40.07c0-2.63-1.061-5.21-2.93-7.07
				c-1.86-1.859-4.431-2.93-7.07-2.93c-2.63,0-5.21,1.07-7.07,2.93c-1.859,1.86-2.93,4.44-2.93,7.07c0,2.63,1.07,5.21,2.93,7.07
				c1.86,1.859,4.44,2.93,7.07,2.93c2.64,0,5.21-1.07,7.07-2.93C174.345,45.28,175.405,42.7,175.405,40.07z M142.405,40.07
				c0-2.63-1.07-5.21-2.93-7.07c-1.851-1.859-4.431-2.93-7.07-2.93c-2.63,0-5.21,1.07-7.07,2.93c-1.859,1.86-2.93,4.44-2.93,7.07
				c0,2.63,1.07,5.21,2.93,7.07c1.86,1.859,4.44,2.93,7.07,2.93s5.21-1.07,7.07-2.93C141.335,45.28,142.405,42.7,142.405,40.07z"/>
			<path d="M262.735,259.54c1.25,10.01-1.59,19.521-7.99,26.78c-6.41,7.25-15.5,11.25-25.59,11.25h-160.5
				c-10.09,0-19.17-4-25.58-11.25c-6.4-7.26-9.24-16.771-7.99-26.78l21.3-170.439c-5.63-8.08-8.479-16.73-8.479-25.721
				c0-35.399,44.37-63.13,101-63.13c56.64,0,101,27.73,101,63.13c0,8.99-2.85,17.641-8.47,25.721h-0.011L262.735,259.54z
				 M239.745,273.08c2.561-2.89,3.67-6.82,3.14-11.06L221.806,93.38H76.005l-21.08,168.641c-0.529,4.239,0.591,8.17,3.15,11.06
				c2.55,2.89,6.31,4.49,10.58,4.49h160.5C233.436,277.57,237.195,275.97,239.745,273.08z M227.535,73.38
				c1.58-3.29,2.37-6.64,2.37-10c0-23.38-37.09-43.13-81-43.13c-43.9,0-81,19.75-81,43.13c0,3.36,0.8,6.71,2.38,10H227.535z"/>
			<path d="M208.405,130.82v115.5c0,5.52-4.47,10-10,10c-5.52,0-10-4.48-10-10v-115.5c0-5.53,4.48-10,10-10
				C203.936,120.82,208.405,125.29,208.405,130.82z"/>
			<path d="M172.476,33c1.869,1.86,2.93,4.44,2.93,7.07c0,2.63-1.061,5.21-2.93,7.07c-1.86,1.859-4.431,2.93-7.07,2.93
				c-2.63,0-5.21-1.07-7.07-2.93c-1.859-1.86-2.93-4.441-2.93-7.07c0-2.63,1.07-5.21,2.93-7.07c1.86-1.859,4.44-2.93,7.07-2.93
				C168.045,30.07,170.615,31.141,172.476,33z"/>
			<path d="M158.905,130.82v115.5c0,5.52-4.47,10-10,10c-5.52,0-10-4.48-10-10v-115.5c0-5.53,4.48-10,10-10
				C154.436,120.82,158.905,125.29,158.905,130.82z"/>
			<path d="M139.476,33c1.859,1.86,2.93,4.44,2.93,7.07c0,2.63-1.07,5.21-2.93,7.07c-1.86,1.859-4.44,2.93-7.07,2.93
				s-5.21-1.07-7.07-2.93c-1.859-1.86-2.93-4.441-2.93-7.07c0-2.63,1.07-5.21,2.93-7.07c1.86-1.859,4.44-2.93,7.07-2.93
				C135.045,30.07,137.625,31.141,139.476,33z"/>
			<path d="M109.405,130.82v115.5c0,5.52-4.47,10-10,10c-5.521,0-10-4.48-10-10v-115.5c0-5.53,4.479-10,10-10
				C104.936,120.82,109.405,125.29,109.405,130.82z"/>
		</g>
		<g>
		</g>
	</g>
</g>
<g>
</g>
<g>
</g>
<g>
</g>
<g>
</g>
<g>
</g>
<g>
</g>
<g>
</g>
<g>
</g>
<g>
</g>
<g>
</g>
<g>
</g>
<g>
</g>
<g>
</g>
<g>
</g>
<g>
</g>
</svg>
