<svg id="Spring" xmlns="http://www.w3.org/2000/svg" xmlns:xlink="http://www.w3.org/1999/xlink" viewBox="0 0 623.62 623.62">
  <defs>
    <style>
      .cls-1 {
        fill: #77a50c;
      }

      .cls-2 {
        fill: url(#Градієнт_без_назви_24);
      }

      .cls-3 {
        fill: url(#Градієнт_без_назви_24-2);
      }

      .cls-4 {
        fill: #6f930a;
      }

      .cls-5 {
        fill: #b0c33e;
      }

      .cls-6 {
        fill: #c5d14b;
      }

      .cls-7 {
        fill: #b9bf43;
      }

      .cls-8 {
        fill: #adad3d;
      }
    </style>
    <linearGradient id="Градієнт_без_назви_24" data-name="Градієнт без назви 24" x1="269.19" y1="244.12" x2="356.56" y2="174.22" gradientUnits="userSpaceOnUse">
      <stop offset="0" stop-color="#76a42d"/>
      <stop offset="1" stop-color="#a6cf38"/>
    </linearGradient>
    <linearGradient id="Градієнт_без_назви_24-2" x1="273.46" y1="243.02" x2="141.98" y2="331.45" xlink:href="#Градієнт_без_назви_24"/>
  </defs>
  <g>
    <path class="cls-1" d="M111.12,18.91,111,19c0,.13,0,.26,0,.39Z"/>
    <path class="cls-2" d="M433.38,445.32a18.88,18.88,0,0,0,1.77-5.12c.28-1.29.49-2.59.66-3.89L436,435c.36-3.49.47-7,.49-10.46.05-7-.24-13.91-.46-20.84-.11-3.45-.19-6.92-.18-10.37a42.2,42.2,0,0,1,.92-9.86,2.68,2.68,0,0,1,.07-.27l-.25-.11-.87-.36,0,.08-1.27,2.59c-1.83-5.16-3.43-10.42-4.77-15.73-.15-.59-.3-1.18-.44-1.77a91.6,91.6,0,0,1-1.83-9.65,34.94,34.94,0,0,1-.19-9.68l-1.17-.27s0,.05,0,.07a27.89,27.89,0,0,1-1,2.87c-.2.47-.41.94-.64,1.39-.09.15-.16.3-.24.46a77.61,77.61,0,0,1-3.87-8.31c-1.29-3.15-2.41-6.38-3.41-9.64s-1.87-6.56-2.61-9.9c-.39-1.66-.68-3.33-1-5s-.58-3.36-.86-5l-.4-2.24-.76,2.13c-.55,1.47-1.2,2.95-1.88,4.4-1.75-3.06-3.38-6.23-4.93-9.42-1.71-3.53-3.32-7.13-4.79-10.77s-2.88-7.32-4.11-11.06-2.31-7.5-3.31-11.31L391,272.7l-.09,4.34a24.18,24.18,0,0,1-.5,4.22,26.16,26.16,0,0,1-.75,2.86c-1.63-2.82-3.15-5.72-4.59-8.64q-2.46-5-4.53-10.15c-1.36-3.44-2.59-6.94-3.61-10.49A69.41,69.41,0,0,1,374.79,244l-.51-4.66-.69,4.64-1.17,7.94a16.4,16.4,0,0,1-2.42-2.24,30.41,30.41,0,0,1-2.6-3.44,54.82,54.82,0,0,1-4.15-7.65c-.61-1.32-1.15-2.69-1.71-4s-1-2.73-1.48-4.12-.92-2.77-1.34-4.17l-1.2-4.22-1.41-4.92.23,5.1v.12l.3,7.4a44.66,44.66,0,0,1-3.82-4.17l-1.06-1.35a54.26,54.26,0,0,1-4.77-7.46,53.32,53.32,0,0,1-3.52-8.1,57.5,57.5,0,0,1-2.24-8.55l-.89-4.51-.3,4.58a57.83,57.83,0,0,1-.89,6.77,71.9,71.9,0,0,1-6-8.07,78.5,78.5,0,0,1-5.5-9.86c-.85-1.69-1.52-3.44-2.25-5.18s-1.34-3.51-1.85-5.34a76.3,76.3,0,0,1-2.53-11l-.87-5.07-.33,5.12c-.1,1.59-.34,3.22-.6,4.83-.21,1.28-.44,2.57-.69,3.83a66.86,66.86,0,0,1-6.45-5.81,68.49,68.49,0,0,1-6.26-7.37,52.05,52.05,0,0,1-4.95-8.26,39.37,39.37,0,0,1-2.93-9.11l-.71-3.55-.48,3.56c-.41,3-.63,6-.8,9a5.76,5.76,0,0,1-1.84-.24,10.73,10.73,0,0,1-2.25-1,18.15,18.15,0,0,1-2.11-1.33c-.65-.53-1.33-1-2-1.61a48.36,48.36,0,0,1-6.68-7.72c-1-1.42-2-2.79-2.87-4.28s-1.84-2.9-2.65-4.41c-.41-.71-.81-1.42-1.2-2.14-1.26-2.3-2.43-4.65-3.62-7l-2-4,.89,4.34c.63,3.12,1.15,6.29,1.54,9.47a52.93,52.93,0,0,1-6.33-4.67,58.64,58.64,0,0,1-6.48-6.42,54,54,0,0,1-5.43-7.32,54.58,54.58,0,0,1-4.2-8.06l-2.05-4.61.9,4.94c.23,1.35.46,2.71.63,4.07.09.68.17,1.36.22,2,0,.36.06.73.08,1.08a50.47,50.47,0,0,1-5.81-3.08,51.82,51.82,0,0,1-6.08-4.42,39,39,0,0,1-5.24-5.36,31,31,0,0,1-3.91-6.33l-1.69-3.49.53,3.82a50.81,50.81,0,0,1,.47,5.66,69.21,69.21,0,0,1-11.39-5.61c-.62-.39-1.23-.79-1.82-1.21A30.07,30.07,0,0,1,210,93a11.62,11.62,0,0,1-3.5-5.41l-1.12-4.93-.07,5c0,2,0,4,.17,6-2-1.09-4.07-2.27-6-3.51a72.56,72.56,0,0,1-6.59-4.61A41.4,41.4,0,0,1,187,80.22a18,18,0,0,1-4-6.59.14.14,0,0,0,0-.07l-1.18.26s0,0,0,.06h0a20.54,20.54,0,0,0,1.09,3.94c.17.45.37.9.59,1.35-3-2.15-5.91-4.41-8.69-6.81a66.34,66.34,0,0,1-5-4.64,26.14,26.14,0,0,1-4.15-5.24l-2.41-4.3,1.29,4.75c.3,1.08.64,2.15,1,3.2.2.5.4,1,.62,1.49-1-.48-2-1-3-1.49-2.06-1.07-4.08-2.24-6-3.49a37.21,37.21,0,0,1-4.75-3.59,15.09,15.09,0,0,1-1.94-2.16c-.12-.18-.24-.35-.35-.54-.22-.69-.45-1.38-.67-2.07l-1.43-4.6.25,4.79a5.51,5.51,0,0,0,.74,2.36c.19.58.39,1.18.59,1.76s.48,1.3.73,1.95A77.41,77.41,0,0,1,143.23,55,37,37,0,0,1,139.34,51a13,13,0,0,1-2-3c-.13-.56-.27-1.12-.41-1.68l-1.19.17a.43.43,0,0,0,0,.12,5.42,5.42,0,0,0,.43,1.75q.61,2.51,1.11,5a68.46,68.46,0,0,1-5.54-6,36.85,36.85,0,0,1-2.92-4,14.33,14.33,0,0,1-1.95-4.42l-1-4.78L125.73,39A13.87,13.87,0,0,0,126,42.4c.09.43.19.85.31,1.27-1.45-1.14-2.87-2.34-4.25-3.58a64.55,64.55,0,0,1-5.36-5.36,33.5,33.5,0,0,1-4.39-6.09A15.6,15.6,0,0,1,111,25.39c.07,4.13.63,8,3.1,11,15,18,24,37,38,56,6,9,13,16,18,27,1,3,5.37,6.38,7.37,9.38,3,5,6.63,10.62,9.63,15.62,11,14,20,25,30,40,3,5,8,8,12,13,3,3,2,9,4,12,15,14,25,32,38,47a641.11,641.11,0,0,1,52.6,70.14c2.22-1.3-.17,1.43,1.83,2.43,10,8,12.78,18.51,20.09,26.32,2.32,4.8,9.65,9.92,12.65,15.92,8.53,14.63,17.3,25.45,28.3,37.45,9,10,14.22,18.13,25.53,30.74,0,2-1,4,0,5,5.06,5.63,11.22,14.4,17.79,16.47,0-.38.1-5.72.16-6.1A29.43,29.43,0,0,1,433.38,445.32Z"/>
    <path class="cls-3" d="M414,443.44c-1-1,0-3,0-5-6-14-19-20-28-30-11-12-19.19-24.32-27.72-37.19a54.7,54.7,0,0,0-13.37-16.68c-6.13-7.95-10.5-12.92-17.3-23.28-2-1-4.61-3.85-4.61-4.85-16-25-32.81-48.63-50.81-69.63-13-15-22.19-34.37-37.19-48.37-2-3-4.38-7.75-7.38-10.75a123.86,123.86,0,0,1-10.21-14c-10-15-19-26.17-30-40.17-3-5-6.93-9.71-9.93-14.71-2-3-6.19-6.83-7.19-9.83-5-11-12.18-17.55-18.18-26.55-14-19-21.11-39-36.11-57-2.47-3.08-3-6.92-3.1-11a8.58,8.58,0,0,1-.3-3.69l.37-2.28c0-.13,0-.26,0-.39l-1.47,2.24a19,19,0,0,0-2.62,6,16.9,16.9,0,0,0-.1,6.57,26.4,26.4,0,0,0,2,6.17c.44,1,.92,1.95,1.31,2.89a3.55,3.55,0,0,1,.3,1.21c0,.08,0,0-.11.11a2.18,2.18,0,0,1-.56.05l-1.46,0,1,1A18.6,18.6,0,0,1,114,48.18c.8,1.41,1.56,2.86,2.25,4.32,1.18,2.48,2.28,5,3.28,7.56l-.41-.16a14.6,14.6,0,0,0-2-.55,15.57,15.57,0,0,0-3.85-.25h-.16l-4.41.24,4.31,1A9,9,0,0,1,117.37,63a23.19,23.19,0,0,1,3.25,4.23,50.07,50.07,0,0,1,4.3,9l-.65-.08a9.49,9.49,0,0,1-1.48-.39A14.08,14.08,0,0,1,120,74.37l-4.11-2.59,3.37,3.53a22.74,22.74,0,0,1,3.07,4,30.92,30.92,0,0,1,2.24,4.59,40.37,40.37,0,0,1,1.55,4.9c.31,1.24.57,2.51.77,3.79-.46-.28-.94-.53-1.43-.78-.86-.42-1.75-.81-2.66-1.15l-2.42-.93,1.77,1.9a29.65,29.65,0,0,1,3.63,5,56.44,56.44,0,0,1,2.85,5.59,89.33,89.33,0,0,1,3.75,9.89c-.92-.72-1.87-1.39-2.84-2a38.42,38.42,0,0,0-4.82-2.68l-3.93-1.83,3.29,2.85a21,21,0,0,1,4.43,5.59,36.71,36.71,0,0,1,2.86,6.69,56.21,56.21,0,0,1,1.81,7.09c.37,1.89.68,3.81.87,5.72-.73-.63-1.46-1.22-2.22-1.82q-1.74-1.35-3.55-2.6l-1.8-1.25-1.7-1.18,2.69,3.3a39,39,0,0,1,4.34,6.77,65.14,65.14,0,0,1,3.11,7.48q1.31,3.87,2.22,7.83c.54,2.26,1,4.54,1.34,6.83-.41-.21-.81-.46-1.2-.69-.73-.44-1.45-.9-2.16-1.39-1.42-1-2.82-2-4.18-3l-4.51-3.45,3.69,4.33a51.07,51.07,0,0,1,5.16,7.63c1.54,2.69,2.89,5.49,4.19,8.31s2.49,5.68,3.62,8.58c1,2.5,1.89,5,2.75,7.52l-3.54-1.43L139,184l-4-1.61,3.38,2.65a38.72,38.72,0,0,1,6.16,6.18,64.72,64.72,0,0,1,4.87,7.33,81.8,81.8,0,0,1,3.91,7.91c.45,1,.88,2.08,1.3,3.13.47,1.21.92,2.43,1.34,3.66-1.35-.74-2.73-1.44-4.12-2.1a46.89,46.89,0,0,0-5.67-2.21l-.12,0L141,207.34l4.59,2.64a22.08,22.08,0,0,1,5.81,5.33A53.71,53.71,0,0,1,156,222c1.37,2.32,2.64,4.71,3.81,7.14,1,2.15,2,4.33,2.9,6.53a27,27,0,0,1-7.22-1.34l-4.9-1.72,4.38,2.8a21.73,21.73,0,0,1,5,4.85c.73.92,1.42,1.88,2.06,2.86s1.28,2,1.88,3.08q1.77,3.12,3.27,6.37c.86,1.84,1.66,3.72,2.39,5.61l-1.38-.31-2.44-.64q-2.37-.63-4.73-1.34l-.12-.05L156,254.32l4.47,2.58a42.76,42.76,0,0,1,8.24,6.18,59.62,59.62,0,0,1,6.7,7.91,80.26,80.26,0,0,1,5.39,8.89,75.36,75.36,0,0,1,3.92,8.83c-.41,0-.85,0-1.26,0a13,13,0,0,1-2-.3,24.67,24.67,0,0,1-4-1.19l-4.9-1.92,4.34,3c6.49,4.44,12.06,10.15,17.25,16.1,2.6,3,5.07,6.07,7.46,9.21,2.21,2.89,4.36,5.84,6.38,8.86-1.06.1-2.14.17-3.2.17a21.83,21.83,0,0,1-4.12-.34l-5.12-.95,4.78,2.09a42.67,42.67,0,0,1,8.81,5.43,74.36,74.36,0,0,1,7.64,7.11c.51.54,1,1.08,1.5,1.64,1.84,2,3.57,4.19,5.26,6.36,1.9,2.47,3.73,5,5.4,7.62-1.34-.07-2.71-.15-4-.25l-5.19-.41-3.72-.29,3.48,1.47c1,.41,2,.75,2.93,1.22s1.93,1,2.85,1.5l2.77,1.67,2.7,1.8c3.55,2.47,7,5.09,10.38,7.82,6.35,5.14,12.5,10.53,18.46,16.11h-.31l-1.85,0-3.68.17-4.2.18,4.12,1a39.29,39.29,0,0,1,6.4,2.18c2.1.89,4.15,1.89,6.2,2.9,4.07,2.07,8.09,4.3,12.05,6.58,7.5,4.39,14.91,9,22.17,13.75-3,.66-6.12,1.17-9.21,1.55h-.08l.06,1.21A43.76,43.76,0,0,1,303.05,414l1.18.43a55.71,55.71,0,0,1,9.81,4.73A77.93,77.93,0,0,1,331.58,434c-.89,0-1.78.05-2.67.13a29.78,29.78,0,0,0-4,.62l-2.61.58,2.61.6a66.78,66.78,0,0,1,10.82,3.63c3.53,1.45,6.95,3.19,10.33,5s6.7,3.74,10,5.73,6.22,3.91,9.23,6l-.09.1a2.69,2.69,0,0,1-.51.41,6.47,6.47,0,0,1-1.37.57,15.55,15.55,0,0,1-3.08.42h-.06l0,1.2a43.52,43.52,0,0,1,9.07,2.33c3,1,6,2.19,8.93,3.34,5.93,2.28,11.88,4.63,18.06,6.4a40.69,40.69,0,0,0,9.6,1.62,62.39,62.39,0,0,0,9.67-.56,113.61,113.61,0,0,0,16.57-3.55c.64-.19,1.28-.37,1.91-.57,1.71-.52-1.31-3.65-1.37-4.33a16.38,16.38,0,0,1-.85-3.73c0-.36-.05-.73-.08-1.09a23.86,23.86,0,0,1,.09-3.87A40.06,40.06,0,0,1,414,443.44Z"/>
    <path class="cls-4" d="M383.54,456.85s41,1.19,46.62,12.69c-3.09-8.32-11-14.92-11-14.92S401.28,451.93,383.54,456.85Z"/>
    <path class="cls-4" d="M339.18,435.79s48-1.37,59.58,2.85,16.86,11.22,16.86,11.22L403.75,433l-13.94-2.65L377.4,431.4l-15,1.17Z"/>
    <path class="cls-4" d="M330.84,412.05s11,.13,14.71-.46,22.72-5.1,29.64-3.8a52.74,52.74,0,0,1,12.71,4.27l10.86,14s-7.66-8.86-24.09-10.29S345.58,415.14,330.84,412.05Z"/>
    <path class="cls-4" d="M308.21,386.81s17.92-2.07,22.12-2.37,30.05-1.26,38.07,2.76c2.48,2.72,11.93,15.57,11.93,15.57s-9.77-8.74-22.82-11.35-20.61-4.46-32-4.22A151.36,151.36,0,0,1,308.21,386.81Z"/>
    <path class="cls-4" d="M271.68,358.48s48.12,1.29,63.62,7.89,28.4,13.68,28.4,13.68l-13.81-17.26L332.67,358l-19.9-2.24-12.32.45-11.15.66Z"/>
    <path class="cls-4" d="M261.41,328.83s62.52,7.87,78.95,21.7a68.1,68.1,0,0,0-9.8-11.7l-13.51-5.56-15.36-3.48S269.72,327.61,261.41,328.83Z"/>
    <path class="cls-4" d="M257.93,300.91s54.26,5.41,64.56,26.8c-8.87-16.44-14.33-20-14.33-20l-16-4.93-18.57-1.88Z"/>
    <path class="cls-4" d="M236.31,275s55.18,6.23,68.64,25.94c-7-9.63-15.66-19-15.66-19l-9-2.94L269,276.74l-13-1.23Z"/>
    <path class="cls-4" d="M215.73,247.49s37.5,4.61,48.72,11.83A249.38,249.38,0,0,1,285.84,275l-14.16-18-10.82-4-14.25-2.48-15-1.57-8.93-.66-2.93-.09Z"/>
    <path class="cls-4" d="M209,229.82s1.5,0,4,.14c11.65.59,45.1,3.72,52.6,20a172.16,172.16,0,0,0-12.95-17.34l-6.58-2.27-7.41-1.18-8.83.2-9.69.58Z"/>
    <path class="cls-4" d="M195.53,205.33s41.88,2.81,52.27,20.82c-5-7.72-11.7-16.68-11.7-16.68a59,59,0,0,0-11.53-2.29C216.73,206.22,212.8,205.24,195.53,205.33Z"/>
    <path class="cls-4" d="M190.65,182.16s31.11,9.59,40,20c-3.46-4.94-12.07-15.67-12.07-15.67l-7,.63-8.48-1.25Z"/>
    <path class="cls-4" d="M179.79,156.78s21.14,6.43,27.46,14a109.1,109.1,0,0,0-8.08-10.32S192.05,161,179.79,156.78Z"/>
    <path class="cls-4" d="M163.42,129.67s19.51,6.1,23.94,13.86c-4.39-6.63-9.42-13.46-9.42-13.46l-2.55,1.07-8.43-.78Z"/>
    <path class="cls-4" d="M154.91,109.62s11,1.67,14.45,7.89c-4-5.16-7.22-9.19-7.22-9.19l-4.26,1.43-3.27-.18Z"/>
    <path class="cls-4" d="M139.27,83.85s5.73-.11,8.83,3.29a50.56,50.56,0,0,1-3.31-4.29l-2.56,1Z"/>
    <path class="cls-4" d="M429,401.45s-10.12,43.8-2.81,57.22c-7.7-8.88-8.16-11-8.16-11l1.77-18.21,5.78-20.69Z"/>
    <path class="cls-4" d="M417.17,369s-15.46,46.57-2.67,71.89a143.49,143.49,0,0,1-15.39-17.11l4.35-14.58,6.42-23.3,4.5-11.48Z"/>
    <path class="cls-4" d="M399.45,338.7s-19.39,59.3-3,79.45c-7.07-6.1-15.43-17.38-15.43-17.38l3.6-16.65L392.77,358Z"/>
    <path class="cls-4" d="M383.63,308s-21.51,55.57-5.88,86.74c-5.4-6.87-12.95-15.39-12.95-15.39l2.63-15.15,4.76-21.32,5.53-20.55Z"/>
    <path class="cls-4" d="M366.76,282.5S346.44,343,360,371.25c-9.69-10.87-13.21-15.92-13.21-15.92l4-22.06,3.91-16.91,4.82-12.72Z"/>
    <path class="cls-4" d="M351.62,254s-18.52,61.43-6.48,97.42c-5.52-7.34-15.54-18.27-15.54-18.27l8.66-24.93,6.41-28.36,3.65-15.27Z"/>
    <path class="cls-4" d="M334.36,233.16s-13.22,70-6.8,95.3c-8.46-6.71-9.88-13.33-9.88-13.33L323,292.94l3-15.32,1.54-16.39S333.83,233.18,334.36,233.16Z"/>
    <path class="cls-4" d="M315.48,199.1s-12.33,61.81-1.08,113.15c-6.24-4.53-16-21.72-16-21.72l3.85-11.09L305,269.07,307,255l.59-13.28,1.79-13.66Z"/>
    <path class="cls-4" d="M291.75,194.16s-.63,26.33.4,40.19c1,13.14-5,32,1,51-4.56-6.67-14.21-19.15-14.21-19.15l1.95-2.13,5.94-14.35,2.93-15.06,0-10.88.69-14.33Z"/>
    <path class="cls-4" d="M267.81,179s4.84,23,4.85,36-6.05,29,2.85,45.63c-7.52-10.58-15.66-20-15.66-20l2.84-5,4.56-13,2-10.89-.13-8.42-1.37-8.26S267.26,181.26,267.81,179Z"/>
    <path class="cls-4" d="M250.14,179.52s2.44,10.93.64,21.4-3.24,19.08.66,28.27c-3.82-4.89-9.58-12-9.58-12L246.5,209l3.08-11.5,1.2-9.69Z"/>
    <path class="cls-4" d="M233.16,162.05s2,7.17,0,19.57.88,24.65.88,24.65L223.92,193.2l4.62-8,2.91-10.76Z"/>
    <path class="cls-4" d="M209.93,149.27s-2,19.41,3.4,28.13c-3.93-5.32-6.08-7.75-6.08-7.75l1.7-8.25Z"/>
    <path class="cls-4" d="M187.65,118.06s1.59,4.31.21,10.86.56,15.46.56,15.46L183.06,137l2.68-5,1.33-6.16Z"/>
    <path class="cls-4" d="M168.71,99s-2.26,12.61,0,17.67c-2.19-3.6-3.45-5.89-3.45-5.89Z"/>
    <path class="cls-4" d="M150.73,81.52s0,7.68,1.27,11.16a31.31,31.31,0,0,1-2.91-4.55Z"/>
    <path class="cls-5" d="M429,464.77c0,.17.1.34.15.51l.17-.06A5.15,5.15,0,0,0,429,464.77Zm0,0c0,.17.1.34.15.51l.17-.06A5.15,5.15,0,0,0,429,464.77Z"/>
    <path class="cls-5" d="M429.15,465.29q-.09-.27-.15-.51a5,5,0,0,1,.32.44Z"/>
    <path class="cls-5" d="M415.69,447c.13.17.26.33.38.5l-.45,0C415.64,447.26,415.66,447.11,415.69,447Z"/>
    <path class="cls-5" d="M431.85,395.49a112.51,112.51,0,0,0-5.33,12.5c-1.48,4.28-2.83,8.6-3.9,13s-2,8.82-2.81,13.27c-.64,3.81-1.21,7.64-1.59,11.46-.07.65-.14,1.3-.19,1.94l-.71-.07c-.47-.63-1-1.26-1.44-1.88,0,0,0,0,0,0,.11-.84.23-1.67.39-2.49h0c.51-3.12,1.11-6.21,1.77-9.29q1.47-6.67,3.42-13.24c1.29-4.37,2.83-8.66,4.51-12.89A109,109,0,0,1,431.85,395.49Z"/>
    <path class="cls-5" d="M398.88,425.06l.57.74-.69-.11Z"/>
    <path class="cls-5" d="M422.43,359.64a101.77,101.77,0,0,0-8.06,15.59,173.07,173.07,0,0,0-5.8,16.58c-1.65,5.6-3.06,11.29-4.31,17-1.1,5.17-2.1,10.39-2.86,15.59-.09.55-.17,1.09-.24,1.63l-.8-.11h0c-.44-.55-.88-1.11-1.33-1.65.13-.77.27-1.52.43-2.29.89-4.56,1.92-9.08,3-13.58,1.46-5.71,3.06-11.37,4.93-17A171.37,171.37,0,0,1,413.81,375,102.26,102.26,0,0,1,422.43,359.64Z"/>
    <path class="cls-5" d="M379.92,400.77c.35.46.71.91,1.06,1.36l-1.3-.25C379.75,401.51,379.84,401.14,379.92,400.77Z"/>
    <path class="cls-5" d="M405.28,328.19A105,105,0,0,0,397,345.81c-2.34,6.07-4.29,12.29-6.09,18.55s-3.4,12.54-4.86,18.88c-1.32,5.74-2.56,11.55-3.64,17.34h0c-.12.58-.21,1.16-.32,1.74l-.49-.09L380,400.3c.14-.69.29-1.4.45-2.1q1.74-7.74,3.77-15.4c1.67-6.31,3.47-12.58,5.47-18.8s4.15-12.39,6.67-18.4A105.31,105.31,0,0,1,405.28,328.19Z"/>
    <path class="cls-5" d="M363.17,379.37c.18.22.35.45.53.68l-.65-.13C363.09,379.73,363.12,379.55,363.17,379.37Z"/>
    <path class="cls-5" d="M390.84,291.61a228.64,228.64,0,0,0-9.1,21.32c-1.37,3.61-2.68,7.25-3.82,10.93s-2.14,7.42-3.11,11.16c-1.93,7.48-3.66,15-5.31,22.55q-2.25,10.32-4.28,20.7c-.14.66-.27,1.34-.39,2h-.11l-1.35-1.83c.15-.68.29-1.36.45-2,0,0,0,0,0,0,1.38-6.38,2.84-12.73,4.36-19.09,1.8-7.53,3.67-15,5.76-22.5,1.05-3.72,2.12-7.45,3.34-11.12s2.61-7.31,4-10.89A228.18,228.18,0,0,1,390.84,291.61Z"/>
    <path class="cls-5" d="M346.55,357.82c.08.12.17.23.26.34l-.3,0C346.52,358,346.54,357.93,346.55,357.82Z"/>
    <path class="cls-5" d="M373.11,260.39q-3.35,12.24-7,24.38c-1.24,4-2.51,8.08-3.86,12.09s-2.75,8-4.32,11.95c-3.19,7.8-4.95,16.08-6.41,24.39-1.29,7.51-2.26,15.1-3,22.69-.07.74-.14,1.49-.2,2.23-.52-.72-1-1.41-1.58-2.1.08-.73.16-1.45.25-2.17q1.2-10.52,3.16-20.91c1.62-8.3,3.54-16.64,6.91-24.47,1.62-3.88,3.09-7.84,4.5-11.84s2.76-8,4.08-12Q369.57,272.57,373.11,260.39Z"/>
    <path class="cls-5" d="M329.16,334.6a.27.27,0,0,0,.09.12l-.12,0A.32.32,0,0,0,329.16,334.6Z"/>
    <path class="cls-5" d="M356.27,236.59q-3.34,12.28-6.55,24.6c-1.06,4.11-2.11,8.21-3.12,12.33s-2,8.23-2.72,12.42c-1.85,8.32-4.08,16.5-6.27,24.7q-3,11.31-6.19,22.58s0,0,0,0c-.15.57-.31,1.12-.47,1.69-.46-.6-.9-1.2-1.35-1.8.17-.56.33-1.1.49-1.66q3.15-10.57,6.22-21.18c2.32-8.15,4.7-16.31,6.69-24.54.83-4.12,1.84-8.3,2.94-12.38s2.21-8.2,3.35-12.28Q352.71,248.81,356.27,236.59Z"/>
    <path class="cls-5" d="M316.59,317.28l.46.62-.58-.15Z"/>
    <path class="cls-5" d="M338.26,215c-2.14,8.5-4.19,17-6.09,25.58s-3.74,17.16-5,25.8c-.11,1.09-.28,2.17-.36,3.25l-.2,3.27q-.07,1.65-.27,3.3c-.09,1.1-.25,2.19-.39,3.28-.59,4.37-1.35,8.69-2.18,13q-2.32,12-5.17,23.95c-.12.57-.25,1.13-.39,1.7-.46-.61-.94-1.22-1.4-1.84.14-.56.29-1.12.42-1.67q2.84-11.14,5.22-22.41c.89-4.28,1.72-8.57,2.38-12.89.16-1.09.32-2.16.44-3.25s.25-2.16.32-3.23l.26-3.31c.1-1.1.28-2.19.43-3.28,1.38-8.7,3.37-17.24,5.41-25.77S336,223.42,338.26,215Z"/>
    <path class="cls-5" d="M297.83,291.5l.59.81-.77-.32Z"/>
    <path class="cls-5" d="M319.42,183.5Q316,197,313.16,210.55c-1.87,9.06-3.63,18.16-4.77,27.34a124.66,124.66,0,0,0-1,13.8,105.63,105.63,0,0,1-1.4,13.87A148.06,148.06,0,0,1,299.28,291c-.16.48-.33.94-.5,1.42-.28-.39-.57-.76-.87-1.14.18-.46.35-.92.52-1.39a148.76,148.76,0,0,0,6.67-24.49,102.28,102.28,0,0,0,1.54-13.73,123.92,123.92,0,0,1,1.15-13.86c1.25-9.19,3.11-18.27,5.07-27.32S317.05,192.45,319.42,183.5Z"/>
    <path class="cls-5" d="M278.93,266.62a87.8,87.8,0,0,0,9.48-25.24,57.35,57.35,0,0,0,1.16-13.45c-.16-4.57.06-9.12.31-13.66.61-9.07,1.59-18.11,2.69-27.13s2.37-18,3.76-27q-1.93,13.48-3.46,27c-1,9-1.88,18.07-2.39,27.13-.2,4.53-.37,9.07-.16,13.58a58.45,58.45,0,0,1-1,13.66A88.84,88.84,0,0,1,280,267.23Z"/>
    <path class="cls-5" d="M259.57,240.35a29.5,29.5,0,0,0,2.95-5.33c.83-1.88,1.61-3.8,2.28-5.76a80.17,80.17,0,0,0,3.2-12,45.17,45.17,0,0,0,.72-12.32c-.17-2-.54-4.14-.7-6.21s-.35-4.16-.45-6.24q-.33-6.25-.22-12.51c.06-4.17.26-8.34.65-12.49a101.3,101.3,0,0,1,1.81-12.37,45,45,0,0,1,4-11.8A45.06,45.06,0,0,0,270,155.18a100.54,100.54,0,0,0-1.66,12.36c-.34,4.14-.49,8.3-.49,12.46s.09,8.32.36,12.47c.12,2.08.3,4.15.52,6.21s.57,4.08.78,6.2a45.89,45.89,0,0,1-.58,12.55,80.67,80.67,0,0,1-3.09,12.17c-.66,2-1.42,4-2.25,5.88a30,30,0,0,1-3,5.62Z"/>
    <path class="cls-5" d="M241.86,216.56a75.91,75.91,0,0,0,7.55-21.91,56.38,56.38,0,0,0,.93-11.59c-.09-3.87-.71-7.76-.88-11.68-.47-7.82-.41-15.65-.22-23.47s.61-15.64,1.21-23.43q-.75,11.7-.91,23.43c-.09,7.82,0,15.64.52,23.43.22,3.89.89,7.74,1,11.69a57.26,57.26,0,0,1-.79,11.77,76.59,76.59,0,0,1-2.83,11.45,73.45,73.45,0,0,1-4.56,10.9Z"/>
    <path class="cls-5" d="M223.92,192.32a74.88,74.88,0,0,0,7.26-19.07,50.92,50.92,0,0,0,1.23-10.14,63,63,0,0,0-1-10.2c-1-6.81-1.88-13.64-2.52-20.49-.31-3.43-.56-6.86-.63-10.31a33.51,33.51,0,0,1,1-10.23,33.49,33.49,0,0,0-.83,10.23c.12,3.43.42,6.86.78,10.28.74,6.83,1.76,13.63,2.81,20.43a61.86,61.86,0,0,1,1.15,10.29,52,52,0,0,1-1.09,10.33,78.09,78.09,0,0,1-7.16,19.76Z"/>
    <path class="cls-5" d="M206.92,169.46a98.08,98.08,0,0,0,2.3-16.46,65.83,65.83,0,0,0-.11-8.31c-.21-2.75-.79-5.48-1.2-8.25a157.11,157.11,0,0,1-1.76-16.62,75.39,75.39,0,0,1,0-8.37,36.44,36.44,0,0,1,1.33-8.23,36.46,36.46,0,0,0-1.22,8.24,77.33,77.33,0,0,0,.1,8.34,159,159,0,0,0,2,16.57c.44,2.74,1.06,5.47,1.31,8.27a65.27,65.27,0,0,1,.23,8.39,103.33,103.33,0,0,1-2.19,16.87Z"/>
    <path class="cls-5" d="M182.92,137l0,0,0,0Z"/>
    <path class="cls-5" d="M185.08,89a36.77,36.77,0,0,0-1.3,10.84,38,38,0,0,0,2.54,12.5,28.54,28.54,0,0,1,1.32,12.84,34.43,34.43,0,0,1-3.74,11.94,4.1,4.1,0,0,1-.22.41l-.53-.33-.18-.26c.13-.21.24-.42.35-.63h0A32.81,32.81,0,0,0,187,125.05a27.69,27.69,0,0,0-1.06-12.59,38.29,38.29,0,0,1-2.33-12.67A36.72,36.72,0,0,1,185.08,89Z"/>
    <path class="cls-5" d="M185.65,87.14c-.22.6-.38,1.21-.57,1.82C185.26,88.35,185.44,87.74,185.65,87.14Z"/>
    <path class="cls-5" d="M165.38,112.35l-.09.26-.41-.18c-.11-.15-.21-.29-.31-.45l.21-.51C165,111.76,165.18,112.05,165.38,112.35Z"/>
    <path class="cls-5" d="M167.45,83.85A28.5,28.5,0,0,1,169,91a46,46,0,0,1-.18,7.33,60.51,60.51,0,0,1-3.08,13.1,5.69,5.69,0,0,1-.24.65l-.61-.86c.1-.21.17-.42.26-.64.64-1.69,1.19-3.44,1.69-5.19a57.3,57.3,0,0,0,1.53-7.11,43,43,0,0,0,.4-7.26A28.59,28.59,0,0,0,167.45,83.85Z"/>
    <path class="cls-5" d="M149.47,89.3c0,.06,0,.12-.05.18l-.29-.12c-.15-.2-.28-.4-.41-.6l.13-.37C149.05,88.7,149.26,89,149.47,89.3Z"/>
    <path class="cls-5" d="M149.1,72.49a20.1,20.1,0,0,1,1.24,4.11,24,24,0,0,1,.4,4.31,27,27,0,0,1-.33,4.31,30.38,30.38,0,0,1-.66,3.18c-.05.16-.1.33-.15.48-.21-.3-.41-.6-.61-.91,0-.14.11-.3.15-.45v0a22,22,0,0,0,.61-2.39,26.06,26.06,0,0,0,.54-4.22,21.58,21.58,0,0,0-.17-4.25A19.2,19.2,0,0,0,149.1,72.49Z"/>
    <path class="cls-5" d="M420.84,453.79c.61.8,1.22,1.63,1.83,2.45l-.14.45a19.2,19.2,0,0,0-2.32-.68,46.8,46.8,0,0,0-9.79-1.16,114.32,114.32,0,0,0-12.54.36,227.43,227.43,0,0,0-25,3.46A227.36,227.36,0,0,1,397.76,454a116.08,116.08,0,0,1,12.67-1,57,57,0,0,1,7.82.32C419.11,453.47,420,453.61,420.84,453.79Z"/>
    <path class="cls-5" d="M423.3,454.41l-.24.68a11,11,0,0,0-.71-.94Z"/>
    <path class="cls-5" d="M404.57,432.42c.78,1,1.55,2,2.31,3l-.42.59a12.26,12.26,0,0,0-2.34-1.28h0a25.5,25.5,0,0,0-5.19-1.53,66.62,66.62,0,0,0-8.41-1,155.22,155.22,0,0,0-17.12.05c-5.72.28-11.43.76-17.14,1.37s-11.39,1.33-17.07,2.22q8.46-1.62,17-2.82c5.68-.81,11.39-1.5,17.12-2a160.79,160.79,0,0,1,17.29-.65,65.67,65.67,0,0,1,8.71.77c.8.14,1.62.29,2.43.48a24.69,24.69,0,0,1,2.84.82Z"/>
    <path class="cls-5" d="M407.86,434l-.52.74c-.46-.6-.93-1.2-1.41-1.79A13.92,13.92,0,0,1,407.86,434Z"/>
    <path class="cls-5" d="M387,409.78c.69.9,1.4,1.79,2.09,2.67l-.61.9c-.51-.36-1-.68-1.57-1a24.5,24.5,0,0,0-7.26-2.65,44.53,44.53,0,0,0-9.81-.8c-6.64.13-13.24,1.37-19.85,2.59a60.45,60.45,0,0,1-10.13.82c-3.37.06-6.73,0-10.1-.07q-10.08-.28-20.15-1c6.72.25,13.44.39,20.16.35,3.35,0,6.72-.05,10.06-.21a60.73,60.73,0,0,0,9.93-1.1c6.55-1.41,13.19-2.88,20-3.21a46,46,0,0,1,10.27.52,34.55,34.55,0,0,1,3.93.95h0A24.6,24.6,0,0,1,387,409.78Z"/>
    <path class="cls-5" d="M389.81,411.36l-.47.69c-.49-.6-1-1.21-1.44-1.8A17.27,17.27,0,0,1,389.81,411.36Z"/>
    <path class="cls-5" d="M368.44,386.11c.39.51.79,1,1.18,1.51l-.4.77c-.5-.24-1-.45-1.5-.64a41.81,41.81,0,0,0-10.18-2.24c-4.06-.48-8.16-.69-12.29-.78a226.27,226.27,0,0,0-24.69,1c-4.09.34-8.2,1-12.35,1.11s-8.29.13-12.42-.06a226.9,226.9,0,0,1-24.67-2.57,224.47,224.47,0,0,0,24.68,2.11c4.13.11,8.25.09,12.36-.15s8.18-.93,12.3-1.35a231,231,0,0,1,24.81-1.42c4.15,0,8.3.15,12.45.56a58,58,0,0,1,8.1,1.35C366.7,385.52,367.57,385.78,368.44,386.11Z"/>
    <path class="cls-5" d="M370.05,386.78l-.22.42c-.2-.26-.38-.51-.56-.76C369.53,386.54,369.78,386.66,370.05,386.78Z"/>
    <path class="cls-5" d="M350.69,363.22c.68.91,1.38,1.82,2.08,2.71l-.29.44c-.76-.51-1.53-1-2.33-1.43a53.43,53.43,0,0,0-10.7-4.59l-3.48-1-3.54-.78c-1.18-.29-2.39-.45-3.59-.63s-2.38-.42-3.59-.53a168.21,168.21,0,0,0-29.18-.63c-9.74.44-19.46,2-29.28,1.69a205.25,205.25,0,0,1-29.19-2.65,205.47,205.47,0,0,0,29.2,2.2c9.77.13,19.43-1.54,29.22-2.14a168.72,168.72,0,0,1,29.39.18c1.21.09,2.43.3,3.65.47s2.44.33,3.64.6l3.63.73,3.58,1a58.29,58.29,0,0,1,7.79,2.9C348.72,362.18,349.72,362.68,350.69,363.22Z"/>
    <path class="cls-5" d="M353.49,364.87l-.06.1c-.07-.09-.12-.17-.2-.26A1.83,1.83,0,0,1,353.49,364.87Z"/>
    <path class="cls-5" d="M331.52,337.83c1,1.28,1.88,2.55,2.84,3.82l-.24.28a33.12,33.12,0,0,0-2.92-2.23l0,0a43.92,43.92,0,0,0-10-4.9,83.63,83.63,0,0,0-14.55-3.6,204.22,204.22,0,0,0-30.1-2.14c-5.05-.08-10.09,0-15.16-.21s-10.08-.7-15.12-1.15c-10-.9-20.1-1.95-30.13-3.06q15.08,1.44,30.18,2.62c5,.37,10.07.74,15.1.92s10.08,0,15.14,0a206.25,206.25,0,0,1,30.3,1.7,87.87,87.87,0,0,1,14.87,3.46,50.25,50.25,0,0,1,6.86,2.88A31.78,31.78,0,0,1,331.52,337.83Z"/>
    <path class="cls-5" d="M335.3,340.56l-.06.07-.22-.29A3,3,0,0,1,335.3,340.56Z"/>
    <path class="cls-5" d="M309.26,307.12c.42.57.84,1.16,1.26,1.74l-.44.75c-.31-.18-.61-.36-.93-.52a49,49,0,0,0-13.27-4.73,115.64,115.64,0,0,0-15.19-2.24c-10.25-.86-20.57-.89-30.88-.76-5.16,0-10.31.19-15.49,0A104.12,104.12,0,0,1,219,299.28c-10.14-2-20.16-4.44-30.14-7.07,10,2.48,20.08,4.77,30.22,6.62a104.14,104.14,0,0,0,15.3,1.88c5.14.09,10.3-.13,15.45-.25,10.32-.29,20.66-.42,31,.31a118.08,118.08,0,0,1,15.43,2A54.79,54.79,0,0,1,306.93,306c.79.32,1.55.68,2.31,1.07C309.26,307.1,309.26,307.12,309.26,307.12Z"/>
    <path class="cls-5" d="M311,308.05l-.16.27-.46-.6C310.61,307.83,310.8,307.93,311,308.05Z"/>
    <path class="cls-5" d="M291.92,283.52l.91,1.23-.47.58c-.39-.31-.8-.62-1.21-.91h0a37.6,37.6,0,0,0-11.63-5.07,98.81,98.81,0,0,0-14.22-2.59c-9.61-1.08-19.3-1.33-29-1.78s-19.28-2.4-28.72-4.56-18.78-4.83-28-7.68c9.29,2.75,18.66,5.23,28.11,7.38s19,4,28.67,4.25,19.38.5,29.06,1.49a99.52,99.52,0,0,1,14.39,2.47,43.44,43.44,0,0,1,9.5,3.58,28.63,28.63,0,0,1,2.64,1.61Z"/>
    <path class="cls-5" d="M293.14,284.4l-.23.27c-.26-.32-.51-.65-.76-1C292.49,283.92,292.82,284.15,293.14,284.4Z"/>
    <path class="cls-5" d="M272.15,257.32c.94,1.22,1.87,2.46,2.81,3.68l-.43.31a13.77,13.77,0,0,0-2.32-2.45s0,0,0,0a26.56,26.56,0,0,0-8.38-4.53,69.33,69.33,0,0,0-12.86-3c-8.79-1.33-17.68-1.63-26.56-2.29a58.42,58.42,0,0,1-6.66-.8c-2.18-.46-4.34-.89-6.53-1.3-4.38-.81-8.76-1.57-13.14-2.33l-13.16-2.25-6.57-1.15-3.28-.61a20.06,20.06,0,0,1-3.23-.8,19.05,19.05,0,0,0,3.24.76l3.29.58,6.59,1.08,13.17,2.1c4.39.71,8.79,1.41,13.16,2.18,2.2.38,4.39.8,6.57,1.23a60.07,60.07,0,0,0,6.59.71c8.87.54,17.79.75,26.64,2a70.54,70.54,0,0,1,13.09,2.94,33.33,33.33,0,0,1,5.85,2.59,20.77,20.77,0,0,1,2.14,1.41Z"/>
    <path class="cls-5" d="M275.51,260.59l-.44.33c-.79-1.07-1.6-2.14-2.41-3.21A16.54,16.54,0,0,1,275.51,260.59Z"/>
    <path class="cls-5" d="M255.84,235.74l-.13.13A15.3,15.3,0,0,0,254,234.4h0a23.61,23.61,0,0,0-8.45-3.67,52.23,52.23,0,0,0-11.66-1.21c-3.93,0-7.87.19-11.81.45s-7.94.65-11.9,0c-7.86-1.12-15.57-2.94-23.27-4.71s-15.37-3.74-23-5.74q11.52,2.86,23.09,5.45c7.71,1.67,15.46,3.39,23.27,4.4,3.89.56,7.83.08,11.78-.18s7.89-.6,11.87-.61a53.57,53.57,0,0,1,11.89,1.1,27.51,27.51,0,0,1,6.35,2.21h0c.5.25,1,.52,1.48.81h0C254.33,233.75,255.08,234.74,255.84,235.74Z"/>
    <path class="cls-5" d="M256.54,235l-.52.55-1.79-2.38A16.15,16.15,0,0,1,256.54,235Z"/>
    <path class="cls-5" d="M236.51,211s0,0,0,0a30.16,30.16,0,0,0-8.32-3.11,77,77,0,0,0-10.85-1.64c-7.32-.62-14.71-.64-22.08-1a51.31,51.31,0,0,1-11-1.66c-3.58-.9-7.11-2-10.61-3.19-7-2.41-13.83-5.15-20.57-8.14,6.78,2.9,13.67,5.54,20.68,7.85s14.13,4.41,21.48,4.53,14.74.13,22.14.66a82.27,82.27,0,0,1,11,1.5,36.69,36.69,0,0,1,6.51,2h0a11,11,0,0,1,1.16.54c.61.83,1.24,1.66,1.86,2.48A12.71,12.71,0,0,0,236.51,211Z"/>
    <path class="cls-5" d="M238.65,211.3l-.42.58-1.61-2.14a13.64,13.64,0,0,1,1.53.9h0Z"/>
    <path class="cls-5" d="M218.74,186.13c.25.34.5.68.77,1l-.63.15a24.8,24.8,0,0,1-8.54.28,60.3,60.3,0,0,1-9.42-1.93A106.53,106.53,0,0,1,183,178.8a157.38,157.38,0,0,0-17.55-7.41c-6-2.21-12-4.28-18-6.25q9.12,2.81,18.14,6a162.22,162.22,0,0,1,17.71,7.15,105.72,105.72,0,0,0,17.85,6.53,60.46,60.46,0,0,0,9.3,1.75,24.78,24.78,0,0,0,7.65-.26Z"/>
    <path class="cls-5" d="M219.64,185.85l0,.1.37,1-.36.12c-.26-.34-.51-.68-.75-1l.67-.21Z"/>
    <path class="cls-5" d="M200.54,160.54a9.48,9.48,0,0,1-4.09.44,30.78,30.78,0,0,1-3.95-.56c-2.59-.51-5.13-1.22-7.65-2-5-1.55-10-3.37-14.85-5.29-9.76-3.86-19.37-8.1-28.86-12.58,9.55,4.35,19.22,8.44,29,12.16,4.9,1.84,9.85,3.59,14.87,5.06,2.52.72,5.05,1.39,7.61,1.86a31.66,31.66,0,0,0,3.85.49,8.7,8.7,0,0,0,3.67-.43Z"/>
    <path class="cls-5" d="M178.26,130.69a3.12,3.12,0,0,1-.42.18,11.61,11.61,0,0,1-4.68.68,30.09,30.09,0,0,1-5-.64A69.87,69.87,0,0,1,158.5,128a153.77,153.77,0,0,1-18.21-8.39,154.64,154.64,0,0,0,18.37,8,71.61,71.61,0,0,0,9.6,2.68,29.13,29.13,0,0,0,4.91.52,11.17,11.17,0,0,0,4.14-.65l.51-.23.08.12,0,.06Z"/>
    <path class="cls-5" d="M162.42,108.68a8.67,8.67,0,0,1-4.2,1.18,17.29,17.29,0,0,1-4.07-.38,42.42,42.42,0,0,1-7.67-2.49,97.68,97.68,0,0,1-14.16-7.58,96.77,96.77,0,0,0,14.33,7.16,41.69,41.69,0,0,0,7.63,2.24,16,16,0,0,0,3.9.26,7.54,7.54,0,0,0,3.66-1.13Z"/>
    <path class="cls-5" d="M144.9,83a5.52,5.52,0,0,1-4,1.06,17.79,17.79,0,0,1-3.92-.77,39.86,39.86,0,0,1-7.2-3.17,39.69,39.69,0,0,0,7.33,2.73,16.58,16.58,0,0,0,3.81.53,5.17,5.17,0,0,0,3.53-1.18Z"/>
    <path class="cls-6" d="M513.76,600.14c-.6-1.35-1.24-2.7-1.92-4l-.53-1-1,.44a8.74,8.74,0,0,1-4.37.82,8.85,8.85,0,0,1-4.15-1.59,24,24,0,0,1-6.3-7.29c-3.43-5.69-5.85-12.06-8.08-18.43s-4.14-12.91-6.12-19.43c-1-3.26-2-6.52-3.06-9.77a55.71,55.71,0,0,0-4-9.56c-4.87-11.89-11.91-22.54-18.76-33.18s-14.3-21-21.85-31.21c-1.25-1.69-2.5-3.36-3.77-5l-1.77-2.35h0c-3.25-4.31-6.54-8.58-9.86-12.85l-2-2.51h0q-7.39-9.45-14.87-18.77L399.47,422q-6.39-8-12.8-16l-4.29-5.4h0l-1.88-2.38-5.64-7.1c-2-2.45-3.84-5-5.73-7.58l-3.89-5.25-1.41-1.89h0l-.36-.49c-4.93-6.7-9.93-13.35-14.94-20q-.75-1-1.53-2l-6.34-8.44q-4.61-6.09-9.23-12.17h0l-1.33-1.76q-5.7-7.53-11.44-15.06l-1.38-1.82q-9-11.79-18-23.58l-.85-1.11c-1.29-1.69-2.57-3.38-3.87-5.07q-7-9.24-14.11-18.48l-.79-1q-9.42-12.33-18.82-24.67l-.76-1Q251.5,228.32,243,217c-.27-.36-.54-.7-.8-1.07-1.18-1.54-2.35-3.1-3.52-4.65l-.49-.65h0q-6.71-8.89-13.36-17.82h0l-.66-.88-4.45-6v0s-.06,0-.07-.06q-6-8.1-12-16.25c-.19-.24-.37-.48-.55-.73h0l-4.11-5.6q-9.62-13-19-26.19l-.58-.81v0q-8.85-12.36-17.6-24.83c-.2-.28-.4-.55-.59-.84-2.16-3.06-4.32-6.14-6.46-9.21q-4.5-6.47-8.92-13c-.21-.29-.41-.59-.61-.89h0C138,71.22,135,67.79,124.46,51.2l.08.14c4.52,7.64,7.09,11.75,9.75,15.8,2.75,4.21,5.61,8.35,10.5,15.71v0l.1.13q1.89,2.88,3.83,5.74c.14.21.26.41.41.61q4.22,6.3,8.5,12.58c2.3,3.35,4.61,6.71,6.94,10,.1.16.21.3.32.45q6.15,8.88,12.43,17.69a7.81,7.81,0,0,0,.53.75q10.4,14.65,21,29.18l.6.82h0l2.22,3q8.19,11.21,16.44,22.36l.77,1q8,10.83,16.06,21.62h0l1.57,2.09s0,0,0,0l15.59,20.88h0l1.85,2.47h0q8,10.75,16,21.49c.73,1,1.46,1.95,2.18,2.93l0,0,4.19,5.63v0l.15.2.32.43c.29.4.59.8.9,1.21l.23.31,11.27,15.24c.63.84,1.24,1.66,1.86,2.51h0l1.17,1.57q7.33,10,14.61,20.05c.75,1,1.48,2,2.22,3,1.83,2.54,3.66,5.1,5.48,7.65l11.08,15.45c1,1.33,1.94,2.65,2.91,4,.86,1.17,1.71,2.33,2.56,3.51l0,0c1.92,2.61,3.84,5.22,5.8,7.81q5.33,7.13,10.71,14.22c.81,1.08,1.62,2.15,2.44,3.21q7.78,10.21,15.67,20.34l1.9,2.46q7.8,10,15.61,20.05c.2.27.41.52.62.79h0l2.93,3.77q7.46,9.6,14.85,19.23c.8,1,1.6,2.06,2.39,3.11h0q7.13,9.29,14.13,18.66c.66.88,1.32,1.76,2,2.63q4.35,5.83,8.62,11.71l.45.61.88,1.22c7.13,9.84,14.19,19.75,20.85,29.89,6.89,10.59,13.59,21.37,18.34,33l0,.06.05.07a63,63,0,0,1,4.16,10.35c1.17,3.59,2.24,7.22,3.32,10.85,2.17,7.29,4.32,14.59,6.9,21.78s5.49,14.33,10,20.76a23.38,23.38,0,0,0,8.75,8,13.17,13.17,0,0,0,6.06,1.28,14.31,14.31,0,0,0,3.07-.45c.51-.11,1-.31,1.47-.45a4.83,4.83,0,0,0,1.08-.51,6.51,6.51,0,0,0,1-.75C514.72,602.35,514.25,601.24,513.76,600.14ZM429.32,465.22l-.17.06c0-.17-.11-.34-.15-.51A5.15,5.15,0,0,1,429.32,465.22Z"/>
    <path class="cls-7" d="M276.42,264.51l.15.2Z"/>
    <path class="cls-7" d="M276.57,264.71l.32.43Z"/>
    <path class="cls-7" d="M276.89,265.14l.9,1.21C277.48,265.94,277.18,265.54,276.89,265.14Z"/>
    <path class="cls-8" d="M515.16,603.42a6.51,6.51,0,0,1-1,.75,4.83,4.83,0,0,1-1.08.51c-.49.14-1,.34-1.47.45a14.31,14.31,0,0,1-3.07.45,13.17,13.17,0,0,1-6.06-1.28,23.38,23.38,0,0,1-8.75-8c-4.47-6.43-7.34-13.6-10-20.76s-4.73-14.49-6.9-21.78c-1.08-3.63-2.15-7.26-3.32-10.85a63,63,0,0,0-4.16-10.35l-.05-.07,0-.06C464.6,520.8,457.9,510,451,499.43c-6.66-10.14-13.72-20.05-20.85-29.89l-.88-1.22-.45-.61q-4.27-5.88-8.62-11.71c-.64-.87-1.3-1.75-2-2.63q-7-9.37-14.13-18.66h0c-.79-1.05-1.59-2.08-2.39-3.11q-7.38-9.63-14.85-19.23L384,408.59h0c-.21-.27-.42-.52-.62-.79q-7.8-10-15.61-20.05l-1.9-2.46q-7.87-10.14-15.67-20.34c-.82-1.06-1.63-2.13-2.44-3.21q-5.38-7.08-10.71-14.22c-2-2.59-3.88-5.2-5.8-7.81l0,0c-.85-1.18-1.7-2.34-2.56-3.51-1-1.33-1.93-2.65-2.91-4l-11.08-15.45c-1.82-2.55-3.65-5.11-5.48-7.65-.74-1-1.47-2-2.22-3Q299.67,296,292.32,286l-1.17-1.57h0c-.62-.85-1.23-1.67-1.86-2.51L278,266.66c9.2,12.36,54.73,73.59,60.25,80.86,6.14,8.09,54.79,71.49,62,80.88s57.72,73.24,66.13,94,21.33,67.7,30.13,74.16,18.3,5.82,17.27,3.61C514.25,601.24,514.72,602.35,515.16,603.42Z"/>
  </g>
</svg>
