<svg xmlns="http://www.w3.org/2000/svg" xmlns:xlink="http://www.w3.org/1999/xlink" viewBox="0 0 623.62 623.62">
  <defs>
    <style>
      .cls-1 {
        isolation: isolate;
      }

      .cls-2 {
        fill: #5e9016;
      }

      .cls-3 {
        fill: #7fb010;
      }

      .cls-4 {
        fill: #6fa013;
      }

      .cls-5 {
        fill: #528313;
      }

      .cls-6 {
        fill: #467510;
      }

      .cls-7 {
        fill: #7faf2f;
      }

      .cls-8 {
        opacity: 0.43;
        mix-blend-mode: multiply;
        fill: url(#Градієнт_без_назви_9);
      }

      .cls-9 {
        fill: #91a830;
      }

      .cls-10 {
        fill: #9ab333;
      }

      .cls-11 {
        fill: #7b8f29;
      }
    </style>
    <linearGradient id="Градієнт_без_назви_9" data-name="Градієнт без назви 9" x1="155.87" y1="455.09" x2="449.35" y2="117.01" gradientUnits="userSpaceOnUse">
      <stop offset="0" stop-color="#419016"/>
      <stop offset="1" stop-color="#5e9016" stop-opacity="0"/>
    </linearGradient>
  </defs>
  <g class="cls-1">
    <g id="Summer">
      <g>
        <path class="cls-2" d="M519.78,419.73c-8,1.21-8.93-.28-34.15-10.42s-46.33-6-54,2.54,6.78,60.69,5.37,65.52c-3.34-8.35-10.77-9.55-15.09-11-6.84-24.81-22.72-23.71-31.56-22.95-7.78-26.56-21.29-40.59-50.32-58.52a91.44,91.44,0,0,0-14.7-7.38c-23-9-42.43-5-48.35,1.8-7.15,8.21-9.29,29.07,12.57,45.79s51.58,15.21,66.95,14.41c-10.49,21.06,25.89,33.12,36.91,30.34,1,5.42,1,12,11.35,16.31-24.31-2.63-23.3,3-25.67,9-13-14.07-37.24-6.75-47.37-5.88s-5.62,17-3.27,25.94c-11.91-4.48-30.7-34.28-52.86-42.33-14.25-5.18-27.2-4.07-35.16-1.39-4.41,1.48-7.29,3.45-8,5.1-2,4.62,4.61,14,12.15,22.52s6.55,12.26,6.82,18.53c-4.59-7.73-7.29-5.66-13-1.77-3.75-19.32-24.54-32.72-33.93-35.31s-20-4.57-25.76-10.36c-5.17-5.23-11.39-10-19.64-10.21a24.78,24.78,0,0,0-2.7.08c0-.7-.12-1.39-.2-2.06a34.54,34.54,0,0,0-6.5-17.23,35.44,35.44,0,0,0-11.32-9.54c-2.65-1.48-4.91-2.49-6.21-3.38-4.74-3.26-11.25-18.15-24.07-33.29S82.6,377.93,82.6,377.93l-9.45-12.54s28.58,10.12,44,12.32c4.23.6,7.48.61,8.86-.36,6.19-4.32,5.86-19.49-7.59-40.52h0c-.51-.8-1-1.6-1.58-2.41-14.78-21.92-51.17-44.53-52.3-45.23.73.28,16.69,6.48,23.67-1.53,7.15-8.21-12.67-40.81-15.07-50.55s-3.4-24.32-3.08-35.87c3.22,16.22,11.24,24.17,15.85,23,.51,15.14,7.1,15.62,11.47,14.72.32,6.78,1.57,12.17,12.59,15.42,9.49,2.79,15.44-8.3,16.91-11.42.24-.5.36-.8.36-.8s.48,2.08,1.43,5.58l0,.11c4.51,16.65,19.42,64.67,43.09,73.31,6.48,2.37,13.63,1.78,21.4-3.23,42.17-27.19-13.27-99.59-13.27-99.59s-1.17-7.57-10.78-27.95S144,175.24,135.39,175.46c3.94-24.17-15.1-32.48-21.49-39.79s-7.78-20.54-12.05-30.64c20.25,16.32,25.67,9.31,25.67,9.31S159.8,157.91,176.33,140s.69-71.28-3.18-82.73c24.32,30.12,28.45-25.48,26.73-36.33.92,1.49,5.4,1.89,8.82-7,1.79,30,15.57,28.77,18.36,27.75-4.28,13.68-4.58,24.66-2.81,33.31a45.77,45.77,0,0,0,1.41,5.29h0a37.35,37.35,0,0,0,11.76,17.35,23.69,23.69,0,0,0,5.47,3.42,5,5,0,0,0,1.35.36h0s0,0,0,0c8.19,1.12,20.39-16,29.89-23.48-8.77,10.71-4.71,24.5-1.43,26.05-14.37,15.63-12.5,25.16-14.19,42.06s7.81,33.11,10.14,35.79,24.17,22.27,29.18,25.77c2.06,1.44,5.68-.67,9.89-4.28h0c6-5.15,13.22-13.35,18.77-18.6,9.44-8.93,20-19.79,22.5-27.6s12.62-23.86,16.09-29.13-.85-19-.56-24.83,2.12-18-.77-21.14-5.37-7.65-6.12-16.49c17.05,18.69,16-18.39,29.73-28.74a67.8,67.8,0,0,0,15.36-16,43.36,43.36,0,0,0,3.65-6.26l0,0c2.83,14.68-7.12,26.8-7.52,31.28s2.75,10.76,9.77,10.16C401,66.44,400.8,85,405.74,99.07c3.95,11.3,11.21,19.75,20.58,18.94,21.05-1.81,37.48-36.21,38.41-43.62C475,81.1,483.44,54.46,483.44,54.46s3.81,23,9.86,26.38S524.72,69,537,65.06h0c-3,10.47-26.06,25.8-29.6,33.43s4.36,11.15,12.57,9.14c-15.22,14.92-24,10.69-33.07,14.36s-8,14-6.93,16.82c-9.82,7.65-23.05,27.38-17.54,36.6s27.33,7.34,46,2.07c3.12,8.89,27.09,1.34,43-2.9-10.49,24.2-46.41,32.78-53.88,37.35s-5.76,15.16-5.76,15.16a73.78,73.78,0,0,1-17.17-4.81c-8.7-3.71-52.15,17.83-68.83,24.76s-20.9,37.14-14.43,51.51,51.38,6.85,63,5.32c-6.33,5.52-13.61,21.33-4.77,32.88s28.22,11.45,38.3,6.92,39.95-7.36,39.95-7.36-16.68,16.1-6.34,29.87c10,13.37,44.11,7.91,46.12,7.58l.09,0s1,8.81,5.8,12.59c-9.43,9.19-60.79,11.76-64.16,15.2S514.57,417,519.78,419.73Z"/>
        <path class="cls-3" d="M127.23,242.14s.48,2.08,1.43,5.58c-.6-1.58-1.2-3.18-1.79-4.78C127.11,242.44,127.23,242.14,127.23,242.14Z"/>
        <path class="cls-4" d="M146,340.67c-2.81-31.19-16.64-90-17.31-92.84l0-.11c-1-3.5-1.43-5.58-1.43-5.58s-.12.3-.36.8c-1.47,3.12-7.42,14.21-16.91,11.42-11-3.25-12.27-8.64-12.59-15.42-4.37.9-11,.42-11.47-14.72-4.61,1.18-12.63-6.77-15.85-23-.32,11.55.67,26.13,3.08,35.87s22.22,42.34,15.07,50.55c-7,8-22.94,1.81-23.67,1.53.12.07.61.37,1.38.87C68.88,290.5,105.27,301.84,146,340.67Z"/>
        <path class="cls-4" d="M174.9,323.37a36.7,36.7,0,0,1-3.12-2.23c6.48,2.37,13.63,1.78,21.4-3.23a35.85,35.85,0,0,0,7.44-6.3l0,0c27.22-30.64-20.74-93.27-20.74-93.27s-1.17-7.57-10.78-27.95S144,175.24,135.39,175.46c3.94-24.17-15.1-32.48-21.49-39.79s-7.78-20.54-12.05-30.64c20.25,16.32,25.67,9.31,25.67,9.31S159.8,157.91,176.33,140s.69-71.28-3.18-82.73c24.32,30.12,28.45-25.48,26.73-36.33.92,1.49,5.4,1.89,8.82-7,1.79,30,15.57,28.77,18.36,27.75-5.21,16.64-4.52,29.3-1.4,38.6h0s-17.19,75.43-1.59,126.92S226.34,356.36,174.9,323.37Z"/>
        <path class="cls-4" d="M389.84,55.17c.09,13.85-1.65,72.35-11.57,107.37s-62,47.22-79.38,45.45c8.87-2.93,22.09-18,27.64-23.28,9.44-8.93,20-19.79,22.5-27.6s12.62-23.86,16.09-29.13-.85-19-.56-24.83,2.12-18-.77-21.14-5.37-7.65-6.12-16.49c17.05,18.69,16-18.39,29.73-28.74a67.8,67.8,0,0,0,15.36-16C397.86,29.55,389.78,45.52,389.84,55.17Z"/>
        <path class="cls-4" d="M537,65.06c-.76.54-25.16,17.71-39,28.87-14.08,11.35-70.45,64.43-70.45,64.43s-30.2,1-21.74-59.29c3.95,11.3,11.21,19.75,20.58,18.94,21.05-1.81,37.48-36.21,38.41-43.62C475,81.1,483.44,54.46,483.44,54.46s3.81,23,9.86,26.38S524.72,69,537,65.06Z"/>
        <g>
          <path class="cls-5" d="M262.18,189.14c-.89-5.86-1.67-9.22-1.67-9.22S261,183.61,262.18,189.14Z"/>
          <path class="cls-5" d="M382.47,345.24c-.94-.7-46.86-35.34-40.27-76.79,5.64-35.53,45.32-49.37,57.2-52.74a154.21,154.21,0,0,1,19-3.89c-37.67,3.47-10.12-31.3-2-40.69l19.26-18.69S332.16,241.12,298.89,239.1c-23.24-1.4-33.17-33.67-36.71-50,3.72,24.37,9.44,92.06-30.32,142.08-49.32,62.06-82.13,14.89-82.13,14.89s44.55,59.8,11.74,105.86,54.73-72.52,54.73-72.52l11.56-14.25c-13.59,20.12-41.88,60.66-71.34,94.89C190.74,419.24,269.63,442.2,272.25,443c-1.17-.36-18.13-6-40.39-42.4-12.37-20.2,21.21-33.74,55-41.95h0c60.53-13.52,85.83,4.13,168.32,12.76C425,364.87,401.12,355.66,382.47,345.24ZM283.8,299.63l16.66-18.79,10.88-9.69Z"/>
        </g>
        <path class="cls-4" d="M519.78,419.73c-8,1.21-8.93-.28-34.15-10.42s-46.33-6-54,2.54,6.78,60.69,5.37,65.52c-3.34-8.35-10.77-9.55-15.09-11-6.84-24.81-22.72-23.71-31.56-22.95-7.78-26.56-21.29-40.59-50.32-58.52a91.44,91.44,0,0,0-14.7-7.38c89.24,31.65,93.15,13.67,248.12,8.81-9.43,9.19-60.79,11.76-64.16,15.2S514.57,417,519.78,419.73Z"/>
        <path class="cls-4" d="M245.94,123.87s-29.6,35.58-28,15.46c-6.83,8.21-2.72,18.19-2.72,18.19l6.85-5.08,12.13-12.92Z"/>
        <path class="cls-4" d="M237.42,97.61c-6.53-3.08-15.47-5.66-16.17,2.83a66.31,66.31,0,0,1,3-25.48,45.77,45.77,0,0,0,1.41,5.29h0A37.35,37.35,0,0,0,237.42,97.61Z"/>
        <path class="cls-4" d="M244.27,101.4h0s0,0,0,0S244.26,101.41,244.27,101.4Z"/>
        <path class="cls-4" d="M258.85,213.67s-24.21,39.18-30.8,11.23c2.12,24.37,3.81,25.86,3.81,25.86l11.92-13Z"/>
        <path class="cls-4" d="M227.37,285.39c1.29-8,10-5,8.78,31.39,1.57-28-5.56-70.62-5.56-70.62L224,277.45Z"/>
        <path class="cls-4" d="M251.43,517.66c-4.59-7.73-7.29-5.66-13-1.77-3.75-19.32-24.54-32.72-33.93-35.31s-20-4.57-25.76-10.36c-5.17-5.23-11.39-10-19.64-10.21l6.29-9.67s42.42-10.16,75,21.17c-4.41,1.48-7.29,3.45-8,5.1-2,4.62,4.61,14,12.15,22.52S251.16,511.39,251.43,517.66Z"/>
        <path class="cls-4" d="M376.76,366.24s15.94,37.26,58.78,28.83c-43.06,4.86-47.62,1.24-47.62,1.24v-3.23l-7.67-16.14Z"/>
        <path class="cls-4" d="M471.72,374.3s12.34,16.6,38.26,15.08c-16,4.09-27.11,2-27.11,2l-8.12-10.51Z"/>
        <path class="cls-4" d="M573.47,386.32s-15.72,4.07-75.17-8.08c40.13,3,67.52-4,69.28-4.49l.09,0S568.69,382.54,573.47,386.32Z"/>
        <path class="cls-4" d="M151.24,403.07l-.09-.14a111.41,111.41,0,0,1-12.61-32.34c-3.51-17.46-19.62-33.27-20.12-33.76,13.45,21,13.78,36.2,7.59,40.52a3.73,3.73,0,0,1-1.33.53h0l-.29.06L124,378l-.59.07-.44,0h-1.18l-.62,0H121l-1.32-.09h-.11c-14.6-1.35-46.41-12.6-46.41-12.6l9.45,12.54s12.7,1.53,25.52,16.66,19.33,30,24.07,33.29c1.32.9,3.65,1.93,6.36,3.46l.81.47.43.26c.44.26.89.54,1.34.83a3.37,3.37,0,0,0,.31.21c.35.24.7.47,1.05.73l.44.32.94.71.5.4c.29.24.58.48.87.74l.53.47c.29.26.57.53.85.8l.52.51.87.95.45.49c.43.5.85,1,1.26,1.57a34.54,34.54,0,0,1,6.5,17.23,104.15,104.15,0,0,0,10.08-16.42C165.51,421.46,154,407.37,151.24,403.07Z"/>
        <path class="cls-5" d="M231.86,250.76s10.78,70.35,18,50.56c2.85,11.35-13.49,23.87-13.49,23.87S236.83,266.86,231.86,250.76Z"/>
        <path class="cls-5" d="M389.15,92s1.82,29.94-1.24,46-12.19,64,7.83,46.58c-17.54,16.81-28.89,20.53-28.89,20.53l10-38.4,8.27-42.5L387,109.88Z"/>
        <path class="cls-5" d="M492.72,98.76s-107.39,102.18-90,111c-12.3-4.53,0-26,0-26l15.15-15.29,35.1-34Z"/>
        <path class="cls-5" d="M513.25,191.08s-19.58,3.5-45.46,9.87c-46.1,11.34-112.16,31.79-123.06,57.8-.58-12.21,32-37.9,32-37.9L418,212.5"/>
        <path class="cls-5" d="M189.74,439.77c49.67-9.45,215,46.39,215,46.39l-71-23.56-75.64-23-39.38-7.77H194.28Z"/>
        <path class="cls-5" d="M431.94,315.9S383.8,341,398.79,353.4c-10.94-.3-14.85-5-14.85-5l13.89-11.61,14.8-10.11Z"/>
        <path class="cls-5" d="M352.54,355.25c11.93,1.71,30.09,28.9,30.09,28.9l-9.91-27Z"/>
        <path class="cls-6" d="M363.4,222s-64.68,50.3-79.6,42.32c-.82,9.23-51.94,93.75-51.94,93.75L193.6,387l-15,44.13s24.67-2.29,40.11.76c-28-9.43,8.8-62.62,29.84-88S335.81,241.4,363.4,222Z"/>
        <path class="cls-6" d="M221.25,378.74s-12.82-24.43,89-32.27c-62-.36-.29-77.82,30.12-104.33-34.55,33-75.72,73.76-75.72,73.76Z"/>
        <path class="cls-7" d="M200.65,311.59c27.22-30.64-20.74-93.27-20.74-93.27s-1.17-7.57-10.78-27.95S144,175.24,135.39,175.46c3.94-24.17-15.1-32.48-21.49-39.79s-7.78-20.54-12.05-30.64c20.25,16.32,25.67,9.31,25.67,9.31S159.8,157.91,176.33,140s.69-71.28-3.18-82.73c24.32,30.12,28.45-25.48,26.73-36.33.92,1.49,5.4,1.89,8.82-7,0,0-6.07,55.82-10.24,79.47s-6.76,84.49,8.62,131.55S210.69,303.73,200.65,311.59Z"/>
        <path class="cls-8" d="M519.78,419.73c-8,1.21-8.93-.28-34.15-10.42s-46.33-6-54,2.54,6.78,60.69,5.37,65.52c-3.34-8.35-10.77-9.55-15.09-11-6.84-24.81-22.72-23.71-31.56-22.95-7.78-26.56-21.29-40.59-50.32-58.52a91.44,91.44,0,0,0-14.7-7.38c-23-9-42.43-5-48.35,1.8-7.15,8.21-9.29,29.07,12.57,45.79s51.58,15.21,66.95,14.41c-10.49,21.06,25.89,33.12,36.91,30.34,1,5.42,1,12,11.35,16.31-24.31-2.63-23.3,3-25.67,9-13-14.07-37.24-6.75-47.37-5.88s-5.62,17-3.27,25.94c-11.91-4.48-30.7-34.28-52.86-42.33-14.25-5.18-27.2-4.07-35.16-1.39-4.41,1.48-7.29,3.45-8,5.1-2,4.62,4.61,14,12.15,22.52s6.55,12.26,6.82,18.53c-4.59-7.73-7.29-5.66-13-1.77-3.75-19.32-24.54-32.72-33.93-35.31s-20-4.57-25.76-10.36c-5.17-5.23-11.39-10-19.64-10.21a24.78,24.78,0,0,0-2.7.08c0-.7-.12-1.39-.2-2.06a34.54,34.54,0,0,0-6.5-17.23,35.44,35.44,0,0,0-11.32-9.54c-2.65-1.48-4.91-2.49-6.21-3.38-4.74-3.26-11.25-18.15-24.07-33.29S82.6,377.93,82.6,377.93l-9.45-12.54s28.58,10.12,44,12.32c4.23.6,7.48.61,8.86-.36,6.19-4.32,5.86-19.49-7.59-40.52h0c-.51-.8-1-1.6-1.58-2.41-14.78-21.92-51.17-44.53-52.3-45.23.73.28,16.69,6.48,23.67-1.53,7.15-8.21-12.67-40.81-15.07-50.55s-3.4-24.32-3.08-35.87c3.22,16.22,11.24,24.17,15.85,23,.51,15.14,7.1,15.62,11.47,14.72.32,6.78,1.57,12.17,12.59,15.42,9.49,2.79,15.44-8.3,16.91-11.42.24-.5.36-.8.36-.8s.48,2.08,1.43,5.58l0,.11c4.51,16.65,19.42,64.67,43.09,73.31,6.48,2.37,13.63,1.78,21.4-3.23,42.17-27.19-13.27-99.59-13.27-99.59s-1.17-7.57-10.78-27.95S144,175.24,135.39,175.46c3.94-24.17-15.1-32.48-21.49-39.79s-7.78-20.54-12.05-30.64c20.25,16.32,25.67,9.31,25.67,9.31S159.8,157.91,176.33,140s.69-71.28-3.18-82.73c24.32,30.12,28.45-25.48,26.73-36.33.92,1.49,5.4,1.89,8.82-7,1.79,30,15.57,28.77,18.36,27.75-4.28,13.68-4.58,24.66-2.81,33.31a45.77,45.77,0,0,0,1.41,5.29h0a37.35,37.35,0,0,0,11.76,17.35,23.69,23.69,0,0,0,5.47,3.42,5,5,0,0,0,1.35.36h0s0,0,0,0c8.19,1.12,20.39-16,29.89-23.48-8.77,10.71-4.71,24.5-1.43,26.05-14.37,15.63-12.5,25.16-14.19,42.06s7.81,33.11,10.14,35.79,24.17,22.27,29.18,25.77c2.06,1.44,5.68-.67,9.89-4.28h0c6-5.15,13.22-13.35,18.77-18.6,9.44-8.93,20-19.79,22.5-27.6s12.62-23.86,16.09-29.13-.85-19-.56-24.83,2.12-18-.77-21.14-5.37-7.65-6.12-16.49c17.05,18.69,16-18.39,29.73-28.74a67.8,67.8,0,0,0,15.36-16,43.36,43.36,0,0,0,3.65-6.26l0,0c2.83,14.68-7.12,26.8-7.52,31.28s2.75,10.76,9.77,10.16C401,66.44,400.8,85,405.74,99.07c3.95,11.3,11.21,19.75,20.58,18.94,21.05-1.81,37.48-36.21,38.41-43.62C475,81.1,483.44,54.46,483.44,54.46s3.81,23,9.86,26.38S524.72,69,537,65.06h0c-3,10.47-26.06,25.8-29.6,33.43s4.36,11.15,12.57,9.14c-15.22,14.92-24,10.69-33.07,14.36s-8,14-6.93,16.82c-9.82,7.65-23.05,27.38-17.54,36.6s27.33,7.34,46,2.07c3.12,8.89,27.09,1.34,43-2.9-10.49,24.2-46.41,32.78-53.88,37.35s-5.76,15.16-5.76,15.16a73.78,73.78,0,0,1-17.17-4.81c-8.7-3.71-52.15,17.83-68.83,24.76s-20.9,37.14-14.43,51.51,51.38,6.85,63,5.32c-6.33,5.52-13.61,21.33-4.77,32.88s28.22,11.45,38.3,6.92,39.95-7.36,39.95-7.36-16.68,16.1-6.34,29.87c10,13.37,44.11,7.91,46.12,7.58l.09,0s1,8.81,5.8,12.59c-9.43,9.19-60.79,11.76-64.16,15.2S514.57,417,519.78,419.73Z"/>
        <polygon class="cls-9" points="477.29 112.7 506.05 110.38 477.32 112.98 477.29 112.7"/>
        <polygon class="cls-9" points="465.71 122.83 477.15 80.26 465.95 122.89 465.71 122.83"/>
        <path class="cls-9" d="M373.07,355.09a213.6,213.6,0,0,0,8.85,24.05c3.39,7.87,7.12,15.6,11.1,23.21,2.07,3.75,4,7.57,6.24,11.26l3.23,5.57,3.38,5.48,1.69,2.74,1.76,2.7,3.53,5.39c2.39,3.57,4.9,7.06,7.34,10.59-2.51-3.48-5.09-6.93-7.54-10.45L409,430.31l-1.82-2.67-1.74-2.71L402,419.5,398.61,414c-2.27-3.66-4.32-7.44-6.47-11.17-4.13-7.55-8-15.23-11.59-23.08a215.19,215.19,0,0,1-9.41-24.12Z"/>
        <path class="cls-9" d="M471.21,373.2a115.74,115.74,0,0,0,6.34,10.18c2.29,3.29,4.74,6.48,7.34,9.54a97.77,97.77,0,0,0,8.31,8.72,79.55,79.55,0,0,0,9.44,7.51,81,81,0,0,1-9.72-7.19,100.48,100.48,0,0,1-8.66-8.48q-4.08-4.5-7.73-9.37a116.38,116.38,0,0,1-6.79-10.1Z"/>
        <path class="cls-9" d="M378.27,356.36a33.84,33.84,0,0,1,5.61-8.1,72.63,72.63,0,0,1,7-6.69,151.08,151.08,0,0,1,15.57-11.36c5.38-3.48,10.91-6.72,16.52-9.82s11.29-6,17.07-8.78c-5.7,2.89-11.3,6-16.83,9.21s-10.94,6.62-16.21,10.23a150.62,150.62,0,0,0-15.14,11.65,70.71,70.71,0,0,0-6.69,6.72,32.13,32.13,0,0,0-5.09,7.75Z"/>
        <polygon class="cls-9" points="465.05 372.04 513.25 345.25 465.82 373.38 465.05 372.04"/>
        <path class="cls-9" d="M297.32,450.33c2.27,3.77,4.31,7.6,6.29,11.48s3.82,7.82,5.56,11.81,3.39,8,4.89,12.08,2.87,8.2,4.16,12.34c-1.45-4.09-2.94-8.16-4.63-12.16s-3.44-7.95-5.33-11.84-3.88-7.74-6-11.52-4.3-7.52-6.64-11.1Z"/>
        <polygon class="cls-9" points="321.91 457.94 345.62 446.65 322.83 459.71 321.91 457.94"/>
        <path class="cls-9" d="M161.47,451.59a60.8,60.8,0,0,1,19.7-3.35,88.14,88.14,0,0,1,19.79,2c1.63.33,3.22.81,4.83,1.21l2.4.63,2.34.81,4.68,1.63,4.55,2,2.27,1c.74.36,1.46.76,2.19,1.14l4.36,2.34a19.72,19.72,0,0,1,2.12,1.26l2.08,1.33,4.15,2.65-4.28-2.43-2.14-1.21a19.62,19.62,0,0,0-2.18-1.14l-4.45-2.09c-.74-.35-1.47-.71-2.22-1l-2.28-.89-4.58-1.76-4.68-1.42-2.34-.7-2.38-.54c-1.6-.34-3.17-.77-4.77-1a90.69,90.69,0,0,0-29-.48,70.7,70.7,0,0,0-9.4,2Z"/>
        <polygon class="cls-9" points="457.66 202.79 481.85 220.85 456.52 204.43 457.66 202.79"/>
        <polygon class="cls-9" points="386.11 113.28 370.13 78.06 387.91 112.41 386.11 113.28"/>
        <path class="cls-9" d="M223,208.56l-7.28-3.44c-1.21-.58-2.44-1.13-3.63-1.73l-3.54-1.93c-2.34-1.3-4.72-2.54-7-3.88l-6.84-4.23a259.58,259.58,0,0,1-26-18.86c-8.26-6.79-16.2-14-23.74-21.55a289.47,289.47,0,0,1-21.39-23.86,291.07,291.07,0,0,0,21.74,23.5q11.47,11.16,24,21.13a257.42,257.42,0,0,0,26.14,18.37l6.85,4.09c2.33,1.3,4.7,2.49,7,3.74l3.53,1.86c1.19.58,2.42,1.11,3.62,1.66l7.26,3.29Z"/>
        <path class="cls-9" d="M210.42,157.65a35.62,35.62,0,0,0,8.4-4.34,67.29,67.29,0,0,0,7.5-6,124.6,124.6,0,0,0,13-14.32c4-5.09,7.73-10.39,11.25-15.84s6.86-11,9.93-16.72c-2.92,5.79-6.13,11.45-9.51,17s-7,11-10.88,16.18a124.6,124.6,0,0,1-12.77,14.8,68.25,68.25,0,0,1-7.53,6.34,37.37,37.37,0,0,1-8.73,4.79Z"/>
        <path class="cls-9" d="M204.53,96a61.41,61.41,0,0,1-6.29-5.85c-2-2-3.88-4.17-5.73-6.31-3.72-4.29-7.29-8.7-10.74-13.19,3.65,4.33,7.41,8.57,11.3,12.68,1.94,2.06,3.92,4.07,6,6a59.5,59.5,0,0,0,6.38,5.45Z"/>
        <polygon class="cls-9" points="207.08 69 220.13 50.88 207.45 69.27 207.08 69"/>
        <path class="cls-9" d="M147.74,343.89c-.34-3.57-.9-7.16-1.58-10.74S144.72,326,144,322.43c-1.6-7.13-3.34-14.23-5.14-21.32q-5.43-21.25-11.46-42.36,6.5,21,12.43,42.1c2,7.06,3.86,14.13,5.63,21.24.85,3.56,1.72,7.12,2.47,10.72s1.42,7.21,1.85,10.92Z"/>
        <path class="cls-9" d="M165.57,445.94a89.07,89.07,0,0,0-1.92-13.09,79.48,79.48,0,0,0-3.82-12.75c-.35-1.06-.86-2.05-1.29-3.08s-.88-2.06-1.41-3l-1.5-3c-.53-1-1.12-1.94-1.68-2.91-1.08-2-2.43-3.78-3.65-5.68-.59-1-1.33-1.82-2-2.73l-2-2.71,2.37,2.43c.77.84,1.62,1.61,2.31,2.51a63,63,0,0,1,4.22,5.39,69.54,69.54,0,0,1,6.9,11.88l1.36,3.17,1.19,3.24a61,61,0,0,1,1.89,6.66,44.17,44.17,0,0,1,1.07,13.83Z"/>
        <polygon class="cls-9" points="143.06 337.67 98.38 302.48 143.97 336.48 143.06 337.67"/>
        <path class="cls-9" d="M231.86,249.32a149.11,149.11,0,0,0,11-12.66c3.41-4.43,6.68-9,9.68-13.75s5.88-9.58,8.54-14.53,5.17-10,7.4-15.16c-2.07,5.23-4.43,10.36-6.93,15.4s-5.23,10-8.12,14.84-6,9.56-9.32,14.14a151.83,151.83,0,0,1-10.74,13.16Z"/>
        <path class="cls-10" d="M174.9,433.07c4.12-2.29,8.69-3.06,13.14-3.53a92.27,92.27,0,0,1,13.4-.13,222.83,222.83,0,0,1,26.44,3.3c17.44,3.2,34.64,7.48,51.67,12.3s33.92,10.06,50.68,15.7,33.43,11.56,49.94,17.87c-8.33-2.95-16.7-5.78-25.09-8.55s-16.79-5.51-25.23-8.15C313,456.6,296.07,451.51,279,446.93s-34.21-8.81-51.56-11.87a226.63,226.63,0,0,0-26.15-3.35,98.43,98.43,0,0,0-13.08,0c-4.3.38-8.66,1.11-12.34,3.1Z"/>
        <path class="cls-10" d="M232,358.35a24.58,24.58,0,0,1,4.77-1.41l4.86-1c3.23-.64,6.48-1.26,9.72-1.85q9.75-1.78,19.53-3.29c13.06-2,26.18-3.59,39.4-4.35a188.07,188.07,0,0,1,19.87-.17,98.23,98.23,0,0,1,9.95,1l2.47.43c.83.14,1.64.37,2.46.55,1.66.39,3.2.79,4.81,1.18,3.17.82,6.38,1.53,9.59,2.24s6.43,1.41,9.65,2.07c6.44,1.36,12.9,2.64,19.36,3.93,25.85,5.11,51.76,9.94,77.67,14.7s51.86,9.42,77.81,14q-39-6.44-78-13.13c-26-4.48-51.94-9-77.85-13.86-6.47-1.24-12.95-2.46-19.41-3.77q-4.86-.94-9.69-2c-3.23-.68-6.46-1.36-9.68-2.16-1.59-.38-3.24-.8-4.8-1.14-.79-.17-1.56-.38-2.36-.51l-2.4-.4c-3.21-.44-6.46-.74-9.72-.86-6.53-.27-13.09-.07-19.63.31-13.1.82-26.15,2.49-39.14,4.52q-9.75,1.53-19.44,3.36-4.85.92-9.68,1.89l-4.83,1a27.41,27.41,0,0,1-4.89.67Z"/>
        <path class="cls-10" d="M358.22,223.5c6.47-1.12,12.94-2.39,19.39-3.72s12.91-2.62,19.36-4l38.67-8.23L513,191.08l-19.23,4.62-19.26,4.48L436,209c-12.86,2.89-25.75,5.65-38.65,8.38-6.45,1.35-12.91,2.71-19.37,4s-13,2.46-19.49,3.51Z"/>
        <path class="cls-10" d="M176.18,431.27A66.83,66.83,0,0,0,178,405.36a86,86,0,0,0-7.45-25.1,158.92,158.92,0,0,0-13.15-23c-4.94-7.35-10.34-14.4-15.78-21.41-2.72-3.51-5.47-7-8.16-10.56-1.36-1.76-2.66-3.57-3.95-5.39s-2.56-3.65-3.8-5.5c-5-7.4-9.57-15-14-22.71s-8.69-15.52-12.84-23.38-8.17-15.79-12.06-23.78q12.13,23.73,25.71,46.69c4.54,7.63,9.24,15.17,14.26,22.47,1.26,1.83,2.51,3.66,3.85,5.42s2.62,3.57,4,5.31c2.73,3.5,5.52,7,8.29,10.44,5.53,7,11,14,16.11,21.31a159.93,159.93,0,0,1,13.6,23.1,88.51,88.51,0,0,1,8,25.72,59,59,0,0,1-2.42,26.83Z"/>
        <path class="cls-10" d="M233.22,356.66a78,78,0,0,1,.47-9.68c.29-3.22.62-6.43.88-9.64l.47-9.67.24-4.83c.09-1.61.17-3.22.15-4.84.15-12.9,0-25.82-1.14-38.68-.89-12.88-2.71-25.68-4.81-38.42s-5-25.36-8.09-37.92-6.52-25-9.59-37.65c-.8-3.13-1.48-6.31-2.19-9.47s-1.3-6.35-1.9-9.54c-1.18-6.38-1.94-12.83-2.5-19.29a254.47,254.47,0,0,1,0-38.85c.46-6.47,1.12-12.91,2-19.33s1.95-12.8,3.38-19.12c-1.37,6.33-2.35,12.74-3.19,19.15S206,81.74,205.58,88.2A254.56,254.56,0,0,0,206,127c.63,6.43,1.45,12.84,2.68,19.18.64,3.17,1.2,6.35,2,9.49s1.45,6.29,2.29,9.42c3.18,12.54,6.76,25,10,37.54s6.16,25.19,8.51,38,4.23,25.62,5.2,38.58c1.22,12.93,1.47,25.93,1.41,38.92,0,1.62,0,3.25-.11,4.87l-.21,4.87-.41,9.73c-.23,3.24-.55,6.47-.82,9.71a80.84,80.84,0,0,1-1.28,9.66Z"/>
        <path class="cls-10" d="M363.89,217.72l4.45-20.17,4.57-20.14,9.14-40.27c.39-1.68.81-3.35,1.16-5l1-5,.86-5.07c.27-1.69.48-3.4.72-5.1.9-6.8,1.59-13.65,2.11-20.5s.91-13.73,1.2-20.61.55-13.75.65-20.64c.12,6.89.09,13.78,0,20.66s-.42,13.77-.81,20.65-1,13.76-1.73,20.62c-.22,1.71-.4,3.43-.64,5.14l-.77,5.12-.94,5.11c-.32,1.7-.71,3.37-1.06,5.06l-8.92,40.33L370.42,198l-4.58,20.14Z"/>
        <path class="cls-9" d="M498.3,93.37h0c-41.66,39-83.19,78.21-124.14,118l-37.51,37.06-.13.12-23.26,23c-9.91,10.26-20.05,20.3-29.52,31-4.87,5.22-9.45,10.65-14.13,16.06l-13.74,16.38c-18.09,22.05-35.49,44.68-52.52,67.57l-50.23,69.32-49,70.19L79.93,577.34,67.84,595l-6.05,8.83-1.51,2.21-.76,1.11a7.22,7.22,0,0,1-1,1.21,5,5,0,0,1-3,1.34A5,5,0,0,1,50.48,603a6.34,6.34,0,0,1,.78-1.38l.76-1.1,1.54-2.19,1.06-1.52.06-.09,0,0,5-7.16L72,571.9l24.52-35.18,49.84-69.8c8.47-11.52,17.1-22.93,25.65-34.38l25.7-34.34c17.42-22.69,35.2-45.09,53.68-66.93l14-16.23c4.74-5.33,9.45-10.75,14.41-15.9,9.68-10.55,20-20.47,30.07-30.6l62-59.32Q434.42,150.6,498.3,93.37Z"/>
        <path class="cls-11" d="M336.52,248.54l-23.26,23c-9.91,10.26-20.05,20.3-29.52,31-4.87,5.22-9.45,10.65-14.13,16.06l-13.74,16.38c-18.09,22.05-35.49,44.68-52.52,67.57l-50.23,69.32-49,70.19L79.93,577.34,67.84,595l-6.05,8.83-1.51,2.21-.76,1.11a7.22,7.22,0,0,1-1,1.21,5,5,0,0,1-3,1.34A5,5,0,0,1,50.48,603a6.34,6.34,0,0,1,.78-1.38l.76-1.1,1.54-2.19,1.06-1.52c-.66,1.11-5.42,9.22-1.4,9.58,4.3.39,51.85-69.85,85.32-118s95-127.83,124.09-163.18C290.81,290.94,333.86,251,336.52,248.54Z"/>
      </g>
    </g>
  </g>
</svg>
