<svg xmlns="http://www.w3.org/2000/svg" xmlns:xlink="http://www.w3.org/1999/xlink" viewBox="0 0 623.62 623.62">
  <defs>
    <style>
      .cls-1 {
        isolation: isolate;
      }

      .cls-2 {
        fill: #125b33;
      }

      .cls-3 {
        fill: #0f532b;
      }

      .cls-4 {
        fill: #0b4b23;
      }

      .cls-5 {
        fill: #08431a;
      }

      .cls-6 {
        fill: #40825f;
      }

      .cls-7 {
        opacity: 0.67;
        mix-blend-mode: hue;
        fill: url(#Градієнт_без_назви_8);
      }

      .cls-8 {
        opacity: 0.19;
        mix-blend-mode: multiply;
        fill: url(#Градієнт_без_назви_8-2);
      }

      .cls-9 {
        opacity: 0.36;
        mix-blend-mode: screen;
        fill: url(#Градієнт_без_назви_17);
      }
    </style>
    <linearGradient id="Градієнт_без_назви_8" data-name="Градієнт без назви 8" x1="336.47" y1="2.35" x2="271.9" y2="586.96" gradientUnits="userSpaceOnUse">
      <stop offset="0" stop-color="#125b33" stop-opacity="0"/>
      <stop offset="1" stop-color="#043b6a"/>
    </linearGradient>
    <linearGradient id="Градієнт_без_назви_8-2" x1="131.91" y1="198.2" x2="441.82" y2="417.72" xlink:href="#Градієнт_без_назви_8"/>
    <linearGradient id="Градієнт_без_назви_17" data-name="Градієнт без назви 17" x1="71.52" y1="92.57" x2="566.91" y2="546.88" gradientUnits="userSpaceOnUse">
      <stop offset="0" stop-color="#8fbd6a"/>
      <stop offset="1" stop-color="#043b6a" stop-opacity="0"/>
    </linearGradient>
  </defs>
  <g class="cls-1">
    <g id="Summer">
      <g>
        <g>
          <path class="cls-2" d="M512.5,139.55l-4,1.9c-7.8,3.69-9.72,7.11-10,9.33a3.77,3.77,0,0,0,.87,3l1.71,1-1.87.74c-7.37,3-23.25,27.95-24,34.15s7.18,14.13,13.58,15.6l7.21,1.67-7.39.31c-3.52.14-7.7,3.44-10,6.61-1.2,1.65-1.45,2.68-1.38,2.92l.64,1.28-1.44.14c-13,1.41-69,13.49-98.23,29.88-30.31,17-41,25.61-42,55.25-.22,6.53,3,12,9.64,16.36,19,12.45,60.59,11.35,64.84,9.31L413,328l-.89,2.33c-2,5.18,6.91,12,13.39,17,2,1.51,3.81,2.93,5.13,4.13l1.25,1.13-1.59.55c-24.27,8.42-20.92,21.45-20.76,22l.36,1.28h-1.33c-.64,0-63.94-.62-88.47,12.66-22,11.89-24.65,22.62-27.25,33-.31,1.25-.62,2.49-1,3.71-1,3.66-.8,6.52.67,8.76,2.15,3.25,7.06,5.29,15.45,6.41a52.13,52.13,0,0,1,21.32,8.27l1.17.83-1.19.81c-.73.49-18,12.13-28,14.49-1.67.4-40.13,10-48.55,53.61-.19,1-.36,2-.52,3l-2-.12c-.05-1.86-.16-3.69-.33-5.5a76,76,0,0,0-3.15-15.84c-6.19-19.7-20.53-36.32-42.86-49.6-1.18-.71-2-1.22-2.55-1.58-4.82-3.49-10-13-10.2-13.38l-.37-.68.56-.53c.46-.43,5.08-4.16,25.28-2.61,18.3,1.41,18.77-2.37,20.53-16.43.1-.81.21-1.65.32-2.53,5.38-41.68-67.26-59.36-98.74-65l-1.41-.26-1.35-.26.65-1.2C147,327,116.38,309.13,115.07,308.37l-3.37-1.94,3.89.08c20.66.37,26.57-3.79,28.25-6.31a4.36,4.36,0,0,0,.56-4l-.91-2.06,2.13.7c.94.31,94.08,30.74,108.64,4.38,16-28.95-9.95-61.94-37-81.4-32.95-23.7-62.15-32.08-67.69-31.26l-3.55.52,2.77-2.28a2.23,2.23,0,0,0,.89-2c-.23-5-11.68-13.8-16.07-16.78L131,164.27l3.13-.07c.17,0,17.58-.56,22.75-14.61,5.34-14.47-7.72-41.44-9.87-43.23l-1.05-.87,1.15-.74c2.31-1.48-.48-12.67-2.31-16.17l1.69-1.07c1.87,2.46,10.2,7.68,21.74,14.89l1.86,1.17c7.14,4.47,11.33,4.32,13.6,3.41a4.58,4.58,0,0,0,2.7-2.48l.49-1.92,1.26,1.53c6.32,7.66,56,41.66,71.09,39.56,4.52-.63,9.32-4.29,13.86-10.59,7.79-10.81,12.24-25.48,11.7-28.35-1-5.42-1.84-46.61-1.84-49.55,0-3.31,2.17-10.13,2.27-10.41l.85-2.67,1,2.61a22.11,22.11,0,0,0,3.69,5.89c3.06,3.39,6.48,4.38,10.14,2.93C310,50,307.65,30.39,307.62,30.2L307,24.94l2.53,4.65a1.25,1.25,0,0,0,.17.23,1.05,1.05,0,0,0,.84.36c.71-1.4,1.42-8.59,1.68-14.76l.2-4.6,1.73,4.27c2.55,6.31,6.1,13.31,7.54,14.23l1.49-1.49,0,2.35c.2,11.09,12.49,38.16,17.77,39.15,5.53,1,24.56-11,31.94-19.25l6.55-7.28-4.94,8.45c-4.1,7-4.2,12.52-2.93,15.35a3.38,3.38,0,0,0,2.26,2.14l1.49.3-.86,1.25c-20.55,29.84-20.17,75.54-4.89,87.87,9.36,7.56,37.87,1.27,84.73-18.7,1.95-.83,3.41-1.46,4.27-1.8l.92-.36.37.91c3.53,8.52,14.9,5.12,24,2.39,2-.61,4-1.19,5.72-1.61,6.14-1.47,8.58-.92,11.41-.28a28.61,28.61,0,0,0,7,.84Z"/>
          <g>
            <path class="cls-3" d="M512.5,139.55l-4,1.9c-7.8,3.69-9.72,7.11-10,9.33a3.77,3.77,0,0,0,.87,3l1.71,1-1.87.74c-7.37,3-23.25,27.95-24,34.15s7.18,14.13,13.58,15.6l7.21,1.67-7.39.31c-3.52.14-7.7,3.44-10,6.61-1.2,1.65-1.45,2.68-1.38,2.92l.64,1.28-1.44.14c-13,1.41-69,13.49-98.23,29.88-4.31,2.42-8.22,4.67-11.77,6.83-21.39,13.05-29.37,23-30.24,48.42-.22,6.53,3,12,9.64,16.36,19,12.45,60.59,11.35,64.84,9.31L413,328l-.89,2.33c-2,5.18,6.91,12,13.39,17,2,1.51,3.81,2.93,5.13,4.13l1.25,1.13-1.59.55c-24.27,8.42-20.92,21.45-20.76,22l.36,1.28h-1.33c-.64,0-63.94-.62-88.47,12.66-22,11.89-24.65,22.62-27.25,33-.31,1.25-.62,2.49-1,3.71-1,3.66-.8,6.52.67,8.76,2.15,3.25,7.06,5.29,15.45,6.41a52.13,52.13,0,0,1,21.32,8.27l1.17.83-1.19.81c-.73.49-18,12.13-28,14.49-1.67.4-40.13,10-48.55,53.61-1-.84-1.92-1.73-2.84-2.66q-1.78-8.06-3.15-15.84-1.89-10.8-3-21.11h0c-3.49-23-23.66-34.83-28.86-37.53l7.76,2.62,8.61,4.69,10.72,8.08v0c-.25-5.28-.36-10.46-.36-15.54a343.41,343.41,0,0,1,2.13-38c4.07-43.52-60.44-75.35-62.39-76.31l22.74,8.39L215.21,342l18.68,12.62,15.26,14.27c5.11-25.45,11.82-47.86,17-67.81l2.39-10.73c-.21,1.37-.43,2.62-.65,3.75q1.47-6,2.65-11.74c.47-2.3,1-4.92,1.52-7.8l-3.52,15.79a97.29,97.29,0,0,0-16.4-69.55c-27.79-40.7-75.52-94.7-75.52-94.7L208.33,157l18.32,17,18,17.15,13.7,14.64,7.92,9.88,12.58,19c2.22-13.64,4.62-28.85,7.07-44.73s5-32.43,7.42-48.79c7.67-50.45-3-82-3.78-84.12l2.77,6.47,3.65,7.3,6.07,11.42c3.11-21.24,5.77-39.67,7.61-52.49,1.72-11.92,2.72-19,2.72-19l1.73,4.27c2.55,6.31,6.1,13.31,7.54,14.23l1.49-1.49,0,2.35c.2,11.09,12.49,38.16,17.77,39.15,5.53,1,24.56-11,31.94-19.25l6.55-7.28-4.94,8.45c-4.1,7-4.2,12.52-2.93,15.35a3.38,3.38,0,0,0,2.26,2.14l1.49.3-.86,1.25a86.41,86.41,0,0,0-10.54,21.34s0,0,0,0c-9.11,26.88-6.26,56.86,5.67,66.49,9.18,7.42,36.79,1.5,82.07-17.57l2.66-1.13c1.95-.83,3.41-1.46,4.27-1.8l.92-.36.37.91c3.53,8.52,14.9,5.12,24,2.39,2-.61,4-1.19,5.72-1.61,6.14-1.47,8.58-.92,11.41-.28a28.61,28.61,0,0,0,7,.84Z"/>
            <path class="cls-3" d="M213.61,441.32l1.22.42c-.77-.41-1.22-.61-1.22-.61Z"/>
          </g>
          <g>
            <path class="cls-4" d="M293.71,403.11c21.15-53,119.78-52.89,119.78-52.89l-10.82-1-8.8-.47-10.76-.39-15,.23-14.61,1.27L344,351c-29.4,8.28-26.45-14.22-23.38-27.65l.36-1.54c0-.11.05-.21.07-.32h0c1-4.47,2.1-9.15,3.16-14h0s0-.06,0-.08c.3-1.35.59-2.7.89-4.07C340,242.39,436.64,179.26,464.74,162l-9.83,5.88L415.78,190l-25.56,13.63-16,8c-25.1,10.44-32.63,1.22-31.23-16.91.06-.62.12-1.24.17-1.85,0-.15,0-.3,0-.45h0c1-10.53,1.46-20.12,1.38-28.26h0a1.49,1.49,0,0,0,0-.21c0-.37,0-.74,0-1.1-.1-5.28-.46-10.91-1-16.77-1.61-58.17,17-77.82,18.91-79.72l-5.46,5.16-5.48,5.64-2.54,2.67-4.36,5h0l-.76.87-.12.16c-6.28,6.94-9.9,1-12.19-6.2-1-4.13-2-8.19-3-12.14a.31.31,0,0,0,0-.08h0c-8.05-31.82-16.11-56.66-16.11-56.66,1.53,4.49,3.49,28.5,3.49,28.5l.76,14.22.18,4.67.16,6.68L317,71l.13,20-.8,8-1.09,21.49-1.37,27.1s-3.13,41.87-3.32,42.18-4.89,50.95-4.89,50.95l-10.18,45.79L272.43,391.19l-17.3,99.64.4,17.54s2.86-8.08,7.26-20.38c10.8-24.73,54.87-38,54.87-38-1.53-.33-16.92.92-16.92.92l-8.2,1.57-8.9,2.44-.89.69c-6.52,1.05-6.51-5-3.07-14.48C284.44,428.07,289.32,414.81,293.71,403.11Z"/>
            <path class="cls-4" d="M362.4,66.42l.17-.16Z"/>
            <path class="cls-4" d="M464.74,162l7.65-4.59S469.57,159.05,464.74,162Z"/>
          </g>
          <g>
            <path class="cls-5" d="M360.58,218.62l-8.45,7L339,237.26l-16.85,17.58v0c4.59-28.39,5.73-59.44,5.13-88.78h0c.51-42.7,7.29-62.4,9-68.93l-2.81,5.74-4.3,10.31-4.06,8.47v0c-2.8-37.17-7.29-66.28-8.66-74.88l.82,21.09.13,9.69-.53,17.08L316.46,115l-4.11,54.78-4.89,56.94-7.61,45.37L279.6,362.22,257.08,486.65l-.44,18.58s1.37-8.17,3.84-19.66c3.15-10.91,13.81-23.31,13.81-23.31L262.7,475.73c2.12-9,4.74-18.9,7.79-28.21,2.85-8.72,7.93-23.47,13.95-42.34h0c11.1-33.7,32.36-44.74,37.33-46.91l-7.56,3.08-19.82,11.42h0c4.64-15.79,9.42-33.11,13.9-51.3C328.18,250.37,360.58,218.62,360.58,218.62Z"/>
            <path class="cls-5" d="M321.77,358.27l1.06-.43S322.45,358,321.77,358.27Z"/>
          </g>
          <path class="cls-2" d="M451.64,140.59c-28.44,14-69,52.27-87.72,32.76-20.55-21.37-6.59-66.19,0-81.68-9.11,26.88-6.26,56.86,5.67,66.49C378.75,165.58,406.36,159.66,451.64,140.59Z"/>
          <path class="cls-2" d="M488.84,205.31l7.21,1.67-7.39.31c-3.52.14-7.7,3.44-10,6.61-1.2,1.65-1.45,2.68-1.38,2.92l.64,1.28-1.44.14c-13,1.41-69,13.49-98.23,29.88-4.31,2.42-8.22,4.67-11.77,6.83,42.3-52.56,116.11-93.6,132.77-99.39-7.37,3-23.25,27.95-24,34.15S482.44,203.84,488.84,205.31Z"/>
          <path class="cls-6" d="M316.84,111.3c-1.12,24-2.51,48-4.36,71.89l-3.25,35.87-2,17.9-2.4,17.86c-1.67,11.9-3.85,23.74-6.35,35.49l-7.75,35.17L275.4,395.83c-4.89,23.49-9.53,47-13.41,70.7l-2.74,17.76c-.77,5.95-1.67,11.86-2.26,17.82-.32,3-.69,5.94-.95,8.93l-.69,8.95q-.6,8.94-1,17.94l-1.62,35.94c-.16,6-.38,12-.5,18l-.09,9-.06,4.56a4.6,4.6,0,0,1-4.52,4.41,4.33,4.33,0,0,1-3.12-1.27,4.46,4.46,0,0,1-1.31-3l.14-4.63.22-9c.2-6,.5-12,.75-18l2.13-36c.38-6,.82-12,1.31-18,.23-3,.54-6,.81-9s.72-6,1.06-9c.69-6,1.65-11.95,2.52-17.9s2-11.86,3-17.8c4.21-23.69,9.19-47.23,14.41-70.7l16.32-70.26,8.25-35.1c2.68-11.7,5.05-23.46,6.95-35.31l2.73-17.81L306,219.08l3.9-35.83c2.3-23.92,4-47.89,5.57-71.88a512.59,512.59,0,0,0,.34-72.05c1.08,15,1.41,30.11,1.34,45.17.17-15.07-.37-30.14-1.34-45.17C317.6,63.25,318.38,87.32,316.84,111.3Z"/>
          <g>
            <path class="cls-6" d="M257.08,481.39a60.47,60.47,0,0,1,10.73-14.95,70.56,70.56,0,0,1,6.82-6.13,49,49,0,0,1,7.63-5.14c5.61-2.66,11.68-3.71,17.68-4.44a129.26,129.26,0,0,1,18.13-.66A128.17,128.17,0,0,0,300,451.38c-5.92.93-11.9,2.21-17.16,4.94a48,48,0,0,0-7.2,5.24,70,70,0,0,0-6.43,6.22,58,58,0,0,0-9.81,14.74Z"/>
            <path class="cls-6" d="M252.84,479.27a42.17,42.17,0,0,0-2.47-8.06,40,40,0,0,0-4.09-7.41,51.2,51.2,0,0,0-12-12.05,76.21,76.21,0,0,0-15.07-8.31,87.58,87.58,0,0,0-16.53-5.1,87.42,87.42,0,0,1,16.75,4.55,77.41,77.41,0,0,1,15.52,7.9,52.57,52.57,0,0,1,12.79,12,42.31,42.31,0,0,1,4.54,7.6,44.69,44.69,0,0,1,2.89,8.41Z"/>
            <path class="cls-6" d="M274.44,390a50.8,50.8,0,0,1,6.15-7.38,80.11,80.11,0,0,1,7.16-6.27A124.64,124.64,0,0,1,303.63,366a188.3,188.3,0,0,1,17-8.25c1.44-.63,2.9-1.22,4.35-1.81.73-.29,1.45-.6,2.19-.87l2.25-.76,2.25-.76a19.64,19.64,0,0,1,2.26-.69l4.59-1.15A140.25,140.25,0,0,1,357.14,349c6.26-.58,12.54-.74,18.81-.81a320.27,320.27,0,0,1,37.54,2.13A322.32,322.32,0,0,0,376,348.72c-6.26.16-12.52.42-18.74,1.09a139.93,139.93,0,0,0-18.47,3L334.23,354a19.06,19.06,0,0,0-2.22.7l-2.19.78-2.2.78c-.72.28-1.44.6-2.16.9-1.44.61-2.88,1.21-4.3,1.86-5.7,2.55-11.3,5.34-16.71,8.44A122.6,122.6,0,0,0,289,377.86a76.51,76.51,0,0,0-6.89,6.2,50.21,50.21,0,0,0-5.76,7.13Z"/>
            <path class="cls-6" d="M268.33,400.61c-1.58-6.44-5-12.45-8.94-17.95a127.52,127.52,0,0,0-13.32-15.51,180.27,180.27,0,0,0-15.32-13.63c-1.36-1-2.69-2.12-4.06-3.14l-4.15-3-4.23-2.91c-1.44-.92-2.91-1.79-4.36-2.7a145.4,145.4,0,0,0-18.37-9.13l-2.37-1-2.4-.94-4.8-1.84c-3.24-1.13-6.45-2.33-9.73-3.35-6.52-2.15-13.12-4.06-19.77-5.78s-13.33-3.32-20.07-4.63c6.76,1.22,13.47,2.72,20.14,4.36s13.31,3.46,19.87,5.52c3.29,1,6.53,2.14,9.8,3.23l4.84,1.78,2.41.91,2.39,1a146.1,146.1,0,0,1,18.63,8.94c1.47.89,3,1.76,4.43,2.67l4.3,2.87,4.22,3c1.4,1,2.75,2.07,4.13,3.1A181.19,181.19,0,0,1,247.24,366,129.15,129.15,0,0,1,261,381.52c4.11,5.57,7.74,11.67,9.54,18.6Z"/>
            <path class="cls-6" d="M301,270.23a46.1,46.1,0,0,0,11.26-7.53c3.48-3,6.77-6.22,10-9.51,6.51-6.56,12.9-13.3,19.74-19.6A152.65,152.65,0,0,1,364,216.39a106.05,106.05,0,0,1,12.26-6.67c4.2-2,8.41-3.86,12.54-5.95,8.31-4.07,16.51-8.38,24.65-12.79s16.24-8.91,24.31-13.45q24.18-13.69,48-28Q462.05,164.07,438,178c-8,4.61-16.07,9.21-24.2,13.67s-16.27,8.87-24.56,13c-4.12,2.12-8.34,4.07-12.51,6.07a103,103,0,0,0-12.07,6.71,150.89,150.89,0,0,0-21.59,17.24c-6.73,6.32-13,13.08-19.51,19.73-3.24,3.32-6.53,6.62-10.05,9.7a48.32,48.32,0,0,1-11.7,7.95Z"/>
            <path class="cls-6" d="M299.19,269.24a12.49,12.49,0,0,1-5.94-3.87,26.29,26.29,0,0,1-3.6-5.85c-1.9-4.06-3.5-8.16-5.32-12.17a149.27,149.27,0,0,0-12.76-23,195.26,195.26,0,0,0-16.22-20.84c-5.84-6.61-12-12.9-18.47-19q-19.45-18-38.39-36.61T161,110.42q18.76,18.74,37.88,37.12t38.72,36.24c6.5,6,12.79,12.26,18.72,18.85a198.7,198.7,0,0,1,16.53,20.82,151.61,151.61,0,0,1,13.12,23.18c1.86,4,3.52,8.15,5.41,12.07a23.94,23.94,0,0,0,3.37,5.39,10.49,10.49,0,0,0,5,3.23Z"/>
            <path class="cls-6" d="M315.28,131.14a18.81,18.81,0,0,0,7.32-6.64,62.76,62.76,0,0,0,5-8.9c1.45-3.08,2.79-6.23,4.14-9.38l2-4.72,1-2.35c.36-.78.77-1.54,1.15-2.31,3.3-6.06,7.74-11.36,12.34-16.43A195.14,195.14,0,0,1,363,66.05a196.8,196.8,0,0,0-14.5,14.53c-4.53,5.11-8.89,10.46-12.08,16.49-.36.77-.76,1.52-1.1,2.3l-1,2.36-2,4.74c-1.3,3.16-2.61,6.33-4,9.46a64.9,64.9,0,0,1-4.93,9.08,19.66,19.66,0,0,1-7.64,7Z"/>
            <path class="cls-6" d="M316.27,99.22c-3.65-2.36-6.4-5.66-8.94-9a105.76,105.76,0,0,1-6.86-10.59c-2.09-3.65-4-7.37-5.87-11.15S291,60.88,289.4,57c1.69,3.84,3.52,7.62,5.43,11.35s3.92,7.41,6.09,11a106.09,106.09,0,0,0,7,10.38c2.57,3.26,5.38,6.46,8.87,8.6Z"/>
          </g>
        </g>
        <path class="cls-7" d="M508.05,139.55a28.61,28.61,0,0,1-7-.84c-2.83-.64-5.27-1.19-11.41.28-1.74.42-3.68,1-5.72,1.61-9.14,2.73-20.51,6.13-24-2.39l-.37-.91-.92.36c-.86.34-2.32,1-4.27,1.8-1.36.58-2.7,1.15-4,1.7l-.8.33-3.27,1.36-1.15.47-2.85,1.15-1.39.56-2.52,1-1.55.6c-.76.3-1.52.6-2.27.88l-1.66.64-2.07.78-1.74.64q-.94.36-1.89.69l-1.78.65-1.76.62-1.79.62-1.66.57-1.77.6-1.58.52-1.73.56-1.52.48-1.68.52-1.47.44-1.62.48-1.44.41-1.54.43-1.41.38-1.46.39-1.38.34-1.39.34-1.35.31-1.3.3-1.34.28-1.21.24-1.32.25-1.12.2-1.3.21-1,.16-1.26.17-1,.12-1.24.13-.89.09-1.2.08-.81,0-1.17,0h-.74c-.39,0-.76,0-1.13,0h-.67c-.38,0-.74,0-1.1-.06l-.6,0-1-.12-.54-.07-1-.17-.48-.09c-.33-.07-.64-.15-.95-.24l-.42-.11c-.31-.09-.6-.19-.89-.29l-.37-.13c-.29-.11-.57-.24-.84-.37-.1,0-.21-.08-.3-.13-.3-.15-.57-.31-.84-.47a2.12,2.12,0,0,1-.2-.12,9.11,9.11,0,0,1-.93-.66,16.63,16.63,0,0,1-1.26-1.14c-.13-.12-.25-.26-.38-.39-.28-.29-.56-.6-.83-.92l-.39-.47q-.42-.53-.81-1.08l-.3-.41c-.34-.51-.67-1-1-1.6-.08-.14-.16-.3-.24-.45-.24-.42-.47-.86-.7-1.31-.1-.22-.21-.44-.32-.66-.19-.42-.38-.84-.56-1.28-.1-.22-.2-.44-.29-.68-.22-.55-.43-1.11-.64-1.69l-.12-.34c-.24-.68-.46-1.38-.67-2.1-.07-.24-.13-.49-.2-.74-.14-.5-.27-1-.4-1.54-.07-.28-.14-.56-.2-.84-.13-.55-.24-1.11-.35-1.67l-.15-.72c-.15-.79-.28-1.6-.41-2.43l-.06-.5c-.1-.68-.19-1.37-.26-2.06,0-.28-.06-.57-.09-.85-.06-.62-.12-1.24-.17-1.87l-.06-.83q-.07-1.18-.12-2.37c0-.12,0-.23,0-.34,0-.93,0-1.86,0-2.81v-.64c0-.74,0-1.49,0-2.24l0-.81q0-1.14.12-2.31l0-.61c.14-2,.34-4,.6-6,0-.22,0-.43.08-.65.11-.82.23-1.63.37-2.45,0-.22.07-.45.1-.67.16-1,.34-1.94.53-2.92a.29.29,0,0,1,0-.09c.21-1.06.43-2.12.68-3.19,0-.1.05-.2.07-.3.21-.91.44-1.83.68-2.74.05-.22.11-.43.17-.65.23-.86.48-1.72.73-2.58l.15-.49c.31-1,.63-2,1-3.07a0,0,0,0,1,0,0l.34-1c.24-.68.48-1.36.73-2,.13-.35.27-.68.4-1,.27-.69.54-1.37.82-2.05.13-.32.27-.64.41-1,.3-.69.61-1.39.92-2.07l.42-.9c.34-.71.68-1.41,1-2.11.13-.27.27-.55.42-.82.37-.72.76-1.44,1.16-2.16.14-.23.27-.47.4-.71.44-.77.89-1.52,1.36-2.27l.32-.54c.58-.93,1.18-1.84,1.8-2.74l.86-1.25-1.49-.3a3.38,3.38,0,0,1-2.26-2.14c-1.27-2.83-1.17-8.34,2.93-15.35l4.94-8.45-6.55,7.28c-7.38,8.2-26.41,20.29-31.94,19.25-5.28-1-17.57-28.06-17.77-39.15l0-2.35-1.49,1.49c-1.44-.92-5-7.92-7.54-14.23l-1.73-4.27s-1,7.08-2.72,19a1.25,1.25,0,0,1-.17-.23L307,24.94l.66,5.26c0,.19,2.4,19.75-6.68,23.33-3.66,1.45-7.08.46-10.14-2.93a22.11,22.11,0,0,1-3.69-5.89l-1-2.61-.85,2.67c-.1.28-2.27,7.1-2.27,10.41,0,2.94.84,44.13,1.84,49.55.54,2.87-3.91,17.54-11.7,28.35-4.54,6.3-9.34,10-13.86,10.59-15.08,2.1-64.77-31.9-71.09-39.56l-1.26-1.53-.49,1.92a4.58,4.58,0,0,1-2.7,2.48c-2.27.91-6.46,1.06-13.6-3.41l-1.86-1.17C156.7,95.19,148.37,90,146.5,87.51l-1.69,1.07c1.83,3.5,4.62,14.69,2.31,16.17l-1.15.74,1.05.87c2.15,1.79,15.21,28.76,9.87,43.23-5.17,14-22.58,14.61-22.75,14.61l-3.13.07L133.6,166c4.39,3,15.84,11.81,16.07,16.78a2.23,2.23,0,0,1-.89,2L146,187.06l3.55-.52c5.54-.82,34.74,7.56,67.69,31.26,27.06,19.46,53,52.45,37,81.4-14.56,26.36-107.7-4.07-108.64-4.38l-2.13-.7.91,2.06a4.36,4.36,0,0,1-.56,4c-1.68,2.52-7.59,6.68-28.25,6.31l-3.89-.08,3.37,1.94c1.31.76,32,18.67,21.53,37.92l-.65,1.2,1.35.26,1.41.26c31.48,5.66,104.12,23.34,98.74,65-.11.88-.22,1.72-.32,2.53-1.76,14.06-2.23,17.84-20.53,16.43-20.2-1.55-24.82,2.18-25.28,2.61l-.56.53.37.68c.21.4,5.38,9.89,10.2,13.38.51.36,1.37.87,2.55,1.58,22.33,13.28,36.67,29.9,42.86,49.6.54,3.11,1.16,6.26,1.8,9.43,0,.33-.07.66-.1,1-.27,3-.58,6-.81,9-.49,6-.93,12-1.31,18l-2.13,36c-.25,6-.55,12-.75,18l-.22,9-.14,4.63a4.46,4.46,0,0,0,1.31,3,4.33,4.33,0,0,0,3.12,1.27,4.6,4.6,0,0,0,4.52-4.41l.06-4.56.09-9c.12-6,.34-12,.5-18l1.62-35.94q.44-9,1-17.94L256,511c.16-1.86.37-3.71.57-5.56,12.71-32.23,43.19-39.86,44.67-40.22,10-2.36,27.25-14,28-14.49l1.19-.81-1.17-.83A52.13,52.13,0,0,0,308,440.86c-8.39-1.12-13.3-3.16-15.45-6.41-1.47-2.24-1.69-5.1-.67-8.76.34-1.22.65-2.46,1-3.71,2.6-10.37,5.29-21.1,27.25-33,24.53-13.28,87.83-12.67,88.47-12.66h1.33l-.36-1.28c-.16-.55-3.51-13.58,20.76-22l1.59-.55-1.25-1.13c-1.32-1.2-3.17-2.62-5.13-4.13-6.48-5-15.35-11.78-13.39-17L413,328,410.7,329c-4.25,2-45.81,3.14-64.84-9.31-6.62-4.33-9.86-9.83-9.64-16.36,0-.86.07-1.7.11-2.52l.06-.9c0-.51.07-1,.11-1.53l.09-1c0-.45.08-.89.13-1.33s.07-.68.11-1,.1-.83.16-1.24.09-.66.14-1,.13-.83.2-1.23.09-.6.15-.89c.09-.52.19-1,.3-1.52.06-.29.12-.58.19-.87.12-.52.24-1,.37-1.53.06-.26.14-.52.21-.77s.21-.75.31-1.11.17-.54.26-.81.22-.68.34-1,.18-.52.28-.78.25-.66.38-1l.3-.73c.15-.35.3-.69.46-1l.28-.63c.23-.47.47-.93.71-1.39l.11-.23c.28-.51.57-1,.87-1.51l.31-.51c.21-.34.43-.68.65-1s.25-.37.38-.56l.66-.92.41-.55c.24-.31.48-.62.73-.92l.4-.5c.28-.34.58-.67.87-1,.11-.13.22-.26.34-.38.84-.93,1.73-1.84,2.69-2.74l.27-.25c.39-.36.78-.72,1.19-1.08l.41-.35,1.16-1,.44-.36,1.25-1,.41-.32,1.49-1.12.24-.17q1.85-1.35,3.9-2.7l0,0c.65-.44,1.32-.87,2-1.3l.34-.22c.59-.38,1.19-.76,1.81-1.14l.43-.27,1.51-.92,1.55-.92.8-.48,2.3-1.35.36-.2L375,250l.13-.07,3.13-1.77c29.2-16.39,85.23-28.47,98.23-29.88l1.44-.14-.64-1.28c-.07-.24.18-1.27,1.38-2.92,2.32-3.17,6.5-6.47,10-6.61l7.39-.31-7.21-1.67c-6.4-1.47-14.29-9.46-13.58-15.6s16.6-31.12,24-34.15l1.87-.74-1.71-1a3.77,3.77,0,0,1-.87-3c.24-2.22,2.16-5.64,10-9.33l4-1.9Z"/>
        <path class="cls-8" d="M508.05,139.55a28.61,28.61,0,0,1-7-.84c-2.83-.64-5.27-1.19-11.41.28-1.74.42-3.68,1-5.72,1.61-9.14,2.73-20.51,6.13-24-2.39l-.37-.91-.92.36c-.86.34-2.32,1-4.27,1.8-1.36.58-2.7,1.15-4,1.7l-.8.33-3.27,1.36-1.15.47-2.85,1.15-1.39.56-2.52,1-1.55.6c-.76.3-1.52.6-2.27.88l-1.66.64-2.07.78-1.74.64q-.94.36-1.89.69l-1.78.65-1.76.62-1.79.62-1.66.57-1.77.6-1.58.52-1.73.56-1.52.48-1.68.52-1.47.44-1.62.48-1.44.41-1.54.43-1.41.38-1.46.39-1.38.34-1.39.34-1.35.31-1.3.3-1.34.28-1.21.24-1.32.25-1.12.2-1.3.21-1,.16-1.26.17-1,.12-1.24.13-.89.09-1.2.08-.81,0-1.17,0h-.74c-.39,0-.76,0-1.13,0h-.67c-.38,0-.74,0-1.1-.06l-.6,0-1-.12-.54-.07-1-.17-.48-.09c-.33-.07-.64-.15-.95-.24l-.42-.11c-.31-.09-.6-.19-.89-.29l-.37-.13c-.29-.11-.57-.24-.84-.37-.1,0-.21-.08-.3-.13-.3-.15-.57-.31-.84-.47a2.12,2.12,0,0,1-.2-.12,9.11,9.11,0,0,1-.93-.66,16.63,16.63,0,0,1-1.26-1.14c-.13-.12-.25-.26-.38-.39-.28-.29-.56-.6-.83-.92l-.39-.47q-.42-.53-.81-1.08l-.3-.41c-.34-.51-.67-1-1-1.6-.08-.14-.16-.3-.24-.45-.24-.42-.47-.86-.7-1.31-.1-.22-.21-.44-.32-.66-.19-.42-.38-.84-.56-1.28-.1-.22-.2-.44-.29-.68-.22-.55-.43-1.11-.64-1.69l-.12-.34c-.24-.68-.46-1.38-.67-2.1-.07-.24-.13-.49-.2-.74-.14-.5-.27-1-.4-1.54-.07-.28-.14-.56-.2-.84-.13-.55-.24-1.11-.35-1.67l-.15-.72c-.15-.79-.28-1.6-.41-2.43l-.06-.5c-.1-.68-.19-1.37-.26-2.06,0-.28-.06-.57-.09-.85-.06-.62-.12-1.24-.17-1.87l-.06-.83q-.07-1.18-.12-2.37c0-.12,0-.23,0-.34,0-.93,0-1.86,0-2.81v-.64c0-.74,0-1.49,0-2.24l0-.81q0-1.14.12-2.31l0-.61c.14-2,.34-4,.6-6,0-.22,0-.43.08-.65.11-.82.23-1.63.37-2.45,0-.22.07-.45.1-.67.16-1,.34-1.94.53-2.92a.29.29,0,0,1,0-.09c.21-1.06.43-2.12.68-3.19,0-.1.05-.2.07-.3.21-.91.44-1.83.68-2.74.05-.22.11-.43.17-.65.23-.86.48-1.72.73-2.58l.15-.49c.31-1,.63-2,1-3.07a0,0,0,0,1,0,0l.34-1c.24-.68.48-1.36.73-2,.13-.35.27-.68.4-1,.27-.69.54-1.37.82-2.05.13-.32.27-.64.41-1,.3-.69.61-1.39.92-2.07l.42-.9c.34-.71.68-1.41,1-2.11.13-.27.27-.55.42-.82.37-.72.76-1.44,1.16-2.16.14-.23.27-.47.4-.71.44-.77.89-1.52,1.36-2.27l.32-.54c.58-.93,1.18-1.84,1.8-2.74l.86-1.25-1.49-.3a3.38,3.38,0,0,1-2.26-2.14c-1.27-2.83-1.17-8.34,2.93-15.35l4.94-8.45-6.55,7.28c-7.38,8.2-26.41,20.29-31.94,19.25-5.28-1-17.57-28.06-17.77-39.15l0-2.35-1.49,1.49c-1.44-.92-5-7.92-7.54-14.23l-1.73-4.27s-1,7.08-2.72,19a1.25,1.25,0,0,1-.17-.23L307,24.94l.66,5.26c0,.19,2.4,19.75-6.68,23.33-3.66,1.45-7.08.46-10.14-2.93a22.11,22.11,0,0,1-3.69-5.89l-1-2.61-.85,2.67c-.1.28-2.27,7.1-2.27,10.41,0,2.94.84,44.13,1.84,49.55.54,2.87-3.91,17.54-11.7,28.35-4.54,6.3-9.34,10-13.86,10.59-15.08,2.1-64.77-31.9-71.09-39.56l-1.26-1.53-.49,1.92a4.58,4.58,0,0,1-2.7,2.48c-2.27.91-6.46,1.06-13.6-3.41l-1.86-1.17C156.7,95.19,148.37,90,146.5,87.51l-1.69,1.07c1.83,3.5,4.62,14.69,2.31,16.17l-1.15.74,1.05.87c2.15,1.79,15.21,28.76,9.87,43.23-5.17,14-22.58,14.61-22.75,14.61l-3.13.07L133.6,166c4.39,3,15.84,11.81,16.07,16.78a2.23,2.23,0,0,1-.89,2L146,187.06l3.55-.52c5.54-.82,34.74,7.56,67.69,31.26,27.06,19.46,53,52.45,37,81.4-14.56,26.36-107.7-4.07-108.64-4.38l-2.13-.7.91,2.06a4.36,4.36,0,0,1-.56,4c-1.68,2.52-7.59,6.68-28.25,6.31l-3.89-.08,3.37,1.94c1.31.76,32,18.67,21.53,37.92l-.65,1.2,1.35.26,1.41.26c31.48,5.66,104.12,23.34,98.74,65-.11.88-.22,1.72-.32,2.53-1.76,14.06-2.23,17.84-20.53,16.43-20.2-1.55-24.82,2.18-25.28,2.61l-.56.53.37.68c.21.4,5.38,9.89,10.2,13.38.51.36,1.37.87,2.55,1.58,22.33,13.28,36.67,29.9,42.86,49.6.54,3.11,1.16,6.26,1.8,9.43,0,.33-.07.66-.1,1-.27,3-.58,6-.81,9-.49,6-.93,12-1.31,18l-2.13,36c-.25,6-.55,12-.75,18l-.22,9-.14,4.63a4.46,4.46,0,0,0,1.31,3,4.33,4.33,0,0,0,3.12,1.27,4.6,4.6,0,0,0,4.52-4.41l.06-4.56.09-9c.12-6,.34-12,.5-18l1.62-35.94q.44-9,1-17.94L256,511c.16-1.86.37-3.71.57-5.56,12.71-32.23,43.19-39.86,44.67-40.22,10-2.36,27.25-14,28-14.49l1.19-.81-1.17-.83A52.13,52.13,0,0,0,308,440.86c-8.39-1.12-13.3-3.16-15.45-6.41-1.47-2.24-1.69-5.1-.67-8.76.34-1.22.65-2.46,1-3.71,2.6-10.37,5.29-21.1,27.25-33,24.53-13.28,87.83-12.67,88.47-12.66h1.33l-.36-1.28c-.16-.55-3.51-13.58,20.76-22l1.59-.55-1.25-1.13c-1.32-1.2-3.17-2.62-5.13-4.13-6.48-5-15.35-11.78-13.39-17L413,328,410.7,329c-4.25,2-45.81,3.14-64.84-9.31-6.62-4.33-9.86-9.83-9.64-16.36,0-.86.07-1.7.11-2.52l.06-.9c0-.51.07-1,.11-1.53l.09-1c0-.45.08-.89.13-1.33s.07-.68.11-1,.1-.83.16-1.24.09-.66.14-1,.13-.83.2-1.23.09-.6.15-.89c.09-.52.19-1,.3-1.52.06-.29.12-.58.19-.87.12-.52.24-1,.37-1.53.06-.26.14-.52.21-.77s.21-.75.31-1.11.17-.54.26-.81.22-.68.34-1,.18-.52.28-.78.25-.66.38-1l.3-.73c.15-.35.3-.69.46-1l.28-.63c.23-.47.47-.93.71-1.39l.11-.23c.28-.51.57-1,.87-1.51l.31-.51c.21-.34.43-.68.65-1s.25-.37.38-.56l.66-.92.41-.55c.24-.31.48-.62.73-.92l.4-.5c.28-.34.58-.67.87-1,.11-.13.22-.26.34-.38.84-.93,1.73-1.84,2.69-2.74l.27-.25c.39-.36.78-.72,1.19-1.08l.41-.35,1.16-1,.44-.36,1.25-1,.41-.32,1.49-1.12.24-.17q1.85-1.35,3.9-2.7l0,0c.65-.44,1.32-.87,2-1.3l.34-.22c.59-.38,1.19-.76,1.81-1.14l.43-.27,1.51-.92,1.55-.92.8-.48,2.3-1.35.36-.2L375,250l.13-.07,3.13-1.77c29.2-16.39,85.23-28.47,98.23-29.88l1.44-.14-.64-1.28c-.07-.24.18-1.27,1.38-2.92,2.32-3.17,6.5-6.47,10-6.61l7.39-.31-7.21-1.67c-6.4-1.47-14.29-9.46-13.58-15.6s16.6-31.12,24-34.15l1.87-.74-1.71-1a3.77,3.77,0,0,1-.87-3c.24-2.22,2.16-5.64,10-9.33l4-1.9Z"/>
        <path class="cls-9" d="M508.05,139.55a28.61,28.61,0,0,1-7-.84c-2.83-.64-5.27-1.19-11.41.28-1.74.42-3.68,1-5.72,1.61-9.14,2.73-20.51,6.13-24-2.39l-.37-.91-.92.36c-.86.34-2.32,1-4.27,1.8-1.36.58-2.7,1.15-4,1.7l-.8.33-3.27,1.36-1.15.47-2.85,1.15-1.39.56-2.52,1-1.55.6c-.76.3-1.52.6-2.27.88l-1.66.64-2.07.78-1.74.64q-.94.36-1.89.69l-1.78.65-1.76.62-1.79.62-1.66.57-1.77.6-1.58.52-1.73.56-1.52.48-1.68.52-1.47.44-1.62.48-1.44.41-1.54.43-1.41.38-1.46.39-1.38.34-1.39.34-1.35.31-1.3.3-1.34.28-1.21.24-1.32.25-1.12.2-1.3.21-1,.16-1.26.17-1,.12-1.24.13-.89.09-1.2.08-.81,0-1.17,0h-.74c-.39,0-.76,0-1.13,0h-.67c-.38,0-.74,0-1.1-.06l-.6,0-1-.12-.54-.07-1-.17-.48-.09c-.33-.07-.64-.15-.95-.24l-.42-.11c-.31-.09-.6-.19-.89-.29l-.37-.13c-.29-.11-.57-.24-.84-.37-.1,0-.21-.08-.3-.13-.3-.15-.57-.31-.84-.47a2.12,2.12,0,0,1-.2-.12,9.11,9.11,0,0,1-.93-.66,16.63,16.63,0,0,1-1.26-1.14c-.13-.12-.25-.26-.38-.39-.28-.29-.56-.6-.83-.92l-.39-.47q-.42-.53-.81-1.08l-.3-.41c-.34-.51-.67-1-1-1.6-.08-.14-.16-.3-.24-.45-.24-.42-.47-.86-.7-1.31-.1-.22-.21-.44-.32-.66-.19-.42-.38-.84-.56-1.28-.1-.22-.2-.44-.29-.68-.22-.55-.43-1.11-.64-1.69l-.12-.34c-.24-.68-.46-1.38-.67-2.1-.07-.24-.13-.49-.2-.74-.14-.5-.27-1-.4-1.54-.07-.28-.14-.56-.2-.84-.13-.55-.24-1.11-.35-1.67l-.15-.72c-.15-.79-.28-1.6-.41-2.43l-.06-.5c-.1-.68-.19-1.37-.26-2.06,0-.28-.06-.57-.09-.85-.06-.62-.12-1.24-.17-1.87l-.06-.83q-.07-1.18-.12-2.37c0-.12,0-.23,0-.34,0-.93,0-1.86,0-2.81v-.64c0-.74,0-1.49,0-2.24l0-.81q0-1.14.12-2.31l0-.61c.14-2,.34-4,.6-6,0-.22,0-.43.08-.65.11-.82.23-1.63.37-2.45,0-.22.07-.45.1-.67.16-1,.34-1.94.53-2.92a.29.29,0,0,1,0-.09c.21-1.06.43-2.12.68-3.19,0-.1.05-.2.07-.3.21-.91.44-1.83.68-2.74.05-.22.11-.43.17-.65.23-.86.48-1.72.73-2.58l.15-.49c.31-1,.63-2,1-3.07a0,0,0,0,1,0,0l.34-1c.24-.68.48-1.36.73-2,.13-.35.27-.68.4-1,.27-.69.54-1.37.82-2.05.13-.32.27-.64.41-1,.3-.69.61-1.39.92-2.07l.42-.9c.34-.71.68-1.41,1-2.11.13-.27.27-.55.42-.82.37-.72.76-1.44,1.16-2.16.14-.23.27-.47.4-.71.44-.77.89-1.52,1.36-2.27l.32-.54c.58-.93,1.18-1.84,1.8-2.74l.86-1.25-1.49-.3a3.38,3.38,0,0,1-2.26-2.14c-1.27-2.83-1.17-8.34,2.93-15.35l4.94-8.45-6.55,7.28c-7.38,8.2-26.41,20.29-31.94,19.25-5.28-1-17.57-28.06-17.77-39.15l0-2.35-1.49,1.49c-1.44-.92-5-7.92-7.54-14.23l-1.73-4.27s-1,7.08-2.72,19a1.25,1.25,0,0,1-.17-.23L307,24.94l.66,5.26c0,.19,2.4,19.75-6.68,23.33-3.66,1.45-7.08.46-10.14-2.93a22.11,22.11,0,0,1-3.69-5.89l-1-2.61-.85,2.67c-.1.28-2.27,7.1-2.27,10.41,0,2.94.84,44.13,1.84,49.55.54,2.87-3.91,17.54-11.7,28.35-4.54,6.3-9.34,10-13.86,10.59-15.08,2.1-64.77-31.9-71.09-39.56l-1.26-1.53-.49,1.92a4.58,4.58,0,0,1-2.7,2.48c-2.27.91-6.46,1.06-13.6-3.41l-1.86-1.17C156.7,95.19,148.37,90,146.5,87.51l-1.69,1.07c1.83,3.5,4.62,14.69,2.31,16.17l-1.15.74,1.05.87c2.15,1.79,15.21,28.76,9.87,43.23-5.17,14-22.58,14.61-22.75,14.61l-3.13.07L133.6,166c4.39,3,15.84,11.81,16.07,16.78a2.23,2.23,0,0,1-.89,2L146,187.06l3.55-.52c5.54-.82,34.74,7.56,67.69,31.26,27.06,19.46,53,52.45,37,81.4-14.56,26.36-107.7-4.07-108.64-4.38l-2.13-.7.91,2.06a4.36,4.36,0,0,1-.56,4c-1.68,2.52-7.59,6.68-28.25,6.31l-3.89-.08,3.37,1.94c1.31.76,32,18.67,21.53,37.92l-.65,1.2,1.35.26,1.41.26c31.48,5.66,104.12,23.34,98.74,65-.11.88-.22,1.72-.32,2.53-1.76,14.06-2.23,17.84-20.53,16.43-20.2-1.55-24.82,2.18-25.28,2.61l-.56.53.37.68c.21.4,5.38,9.89,10.2,13.38.51.36,1.37.87,2.55,1.58,22.33,13.28,36.67,29.9,42.86,49.6.54,3.11,1.16,6.26,1.8,9.43,0,.33-.07.66-.1,1-.27,3-.58,6-.81,9-.49,6-.93,12-1.31,18l-2.13,36c-.25,6-.55,12-.75,18l-.22,9-.14,4.63a4.46,4.46,0,0,0,1.31,3,4.33,4.33,0,0,0,3.12,1.27,4.6,4.6,0,0,0,4.52-4.41l.06-4.56.09-9c.12-6,.34-12,.5-18l1.62-35.94q.44-9,1-17.94L256,511c.16-1.86.37-3.71.57-5.56,12.71-32.23,43.19-39.86,44.67-40.22,10-2.36,27.25-14,28-14.49l1.19-.81-1.17-.83A52.13,52.13,0,0,0,308,440.86c-8.39-1.12-13.3-3.16-15.45-6.41-1.47-2.24-1.69-5.1-.67-8.76.34-1.22.65-2.46,1-3.71,2.6-10.37,5.29-21.1,27.25-33,24.53-13.28,87.83-12.67,88.47-12.66h1.33l-.36-1.28c-.16-.55-3.51-13.58,20.76-22l1.59-.55-1.25-1.13c-1.32-1.2-3.17-2.62-5.13-4.13-6.48-5-15.35-11.78-13.39-17L413,328,410.7,329c-4.25,2-45.81,3.14-64.84-9.31-6.62-4.33-9.86-9.83-9.64-16.36,0-.86.07-1.7.11-2.52l.06-.9c0-.51.07-1,.11-1.53l.09-1c0-.45.08-.89.13-1.33s.07-.68.11-1,.1-.83.16-1.24.09-.66.14-1,.13-.83.2-1.23.09-.6.15-.89c.09-.52.19-1,.3-1.52.06-.29.12-.58.19-.87.12-.52.24-1,.37-1.53.06-.26.14-.52.21-.77s.21-.75.31-1.11.17-.54.26-.81.22-.68.34-1,.18-.52.28-.78.25-.66.38-1l.3-.73c.15-.35.3-.69.46-1l.28-.63c.23-.47.47-.93.71-1.39l.11-.23c.28-.51.57-1,.87-1.51l.31-.51c.21-.34.43-.68.65-1s.25-.37.38-.56l.66-.92.41-.55c.24-.31.48-.62.73-.92l.4-.5c.28-.34.58-.67.87-1,.11-.13.22-.26.34-.38.84-.93,1.73-1.84,2.69-2.74l.27-.25c.39-.36.78-.72,1.19-1.08l.41-.35,1.16-1,.44-.36,1.25-1,.41-.32,1.49-1.12.24-.17q1.85-1.35,3.9-2.7l0,0c.65-.44,1.32-.87,2-1.3l.34-.22c.59-.38,1.19-.76,1.81-1.14l.43-.27,1.51-.92,1.55-.92.8-.48,2.3-1.35.36-.2L375,250l.13-.07,3.13-1.77c29.2-16.39,85.23-28.47,98.23-29.88l1.44-.14-.64-1.28c-.07-.24.18-1.27,1.38-2.92,2.32-3.17,6.5-6.47,10-6.61l7.39-.31-7.21-1.67c-6.4-1.47-14.29-9.46-13.58-15.6s16.6-31.12,24-34.15l1.87-.74-1.71-1a3.77,3.77,0,0,1-.87-3c.24-2.22,2.16-5.64,10-9.33l4-1.9Z"/>
      </g>
    </g>
  </g>
</svg>
