<svg id="Spring" xmlns="http://www.w3.org/2000/svg" viewBox="0 0 623.62 623.62">
  <defs>
    <style>
      .cls-1 {
        fill: #4d8a00;
      }

      .cls-2 {
        fill: #4e8200;
      }

      .cls-3 {
        fill: #589106;
      }

      .cls-4 {
        fill: #75a711;
      }

      .cls-5 {
        fill: #779d07;
      }

      .cls-6 {
        fill: #618206;
      }
    </style>
  </defs>
  <g>
    <path class="cls-1" d="M448,362.42c-.33,13.94-.69,28.09-3.4,41.69A399.1,399.1,0,0,0,438.26,455q-.3,4.41-.54,8.83c-.09.94-.2,1.9-.33,2.87-1,7.59-3.62,15.73-11,21.56l-1.82.95-1.8.94-6.62,3.47a56,56,0,0,1-13.07,2.49l-.57.05q-34.44,2.78-68.88,5.42c-28.73,2.17-56.36.09-81.53-16.65a32.7,32.7,0,0,1-13.5-17.3c-3.7-11.79.66-24.94,13.48-33,5.21-3.28,10.65-6.3,15.41-10.15,2.31-1.86,4.66-5.46,4.44-8.06-.15-1.82-4.43-4-7.2-4.74-2.24-.57-4.53-1-6.82-1.31a102.16,102.16,0,0,1-12-2.17c-11.19-3.1-22.07-7.36-33.3-10.26-18.52-4.8-37.31-8.59-55.82-13.43-9.72-2.54-18.12-7.48-23.05-17.13-3.87-7.57-8.89-14.55-12.75-22.12S113.5,330,111.06,322c-1.33-4.39-.44-9.9,5.15-12.27,6.08-2.57,12.17-5.16,18.4-7.34,10.87-3.81,21.6-2.7,32.37,1a165.85,165.85,0,0,0,24.72,6.9c3.49.63,9.26-.61,11-3.08,2.9-4.24-1.77-7.39-5.09-9.95a36.06,36.06,0,0,0-5.52-3.68c-4.85-2.49-9.73-4.93-14.61-7.38h0c-6.5-3.27-13-6.54-19.45-9.92-12.81-6.73-25.35-14-38.26-20.54a32.12,32.12,0,0,1-14.93-15.17c-2.09-4.33-3.72-8.89-5.51-13.37-.29-.72-.53-1.4-.74-2.07-2-6.35-.19-10.6,4.82-16.33,2-2.3,2.92-7.07,2-10-1-3.51-4.19-6.68-7-9.31-13.26-12.16-22.06-26.6-24.19-44.73-.77-6.53-3.16-13.79,3.38-18.43,7.37-5.22,15.54-2.74,23.36-.17a9.35,9.35,0,0,1,2.3,1.33c6.49,4.57,12.88,9.29,19.51,13.65,1.73,1.14,4.19,1.14,6.31,1.66,0-2.44.91-5.45-.18-7.22-2.26-3.68-6.19-6.35-8.34-10.07s-4.2-7.32-6.23-11h0c-3.13-5.71-6.1-11.5-8.69-17.44-5.41-12.41-3.24-18.74,7.37-28.48,1.71-1.56,2.65-4,3.77-6.14,1.63-3.13,2.83-6.51,4.7-9.49,6.26-10,15.56-9.68,21.66.61,1.45,2.46,2.57,5.28,4.57,7.18.93.89,4.5.72,5.27-.24,2.42-3,4-6.76,6.06-10.1,4.87-7.86,12.68-11.28,17.16-6.89a50,50,0,0,1,9,13.13c4.3,8.5,2.09,17.62,1.61,26.6-.37,6.82-.19,13.78,5,21.34,1.57-2.93,2.95-5.13,4-7.22a22.25,22.25,0,0,0,1.06-2.36c3.7-9.77,7-19.68,10.74-29.43,3.11-8.13,10.67-8.9,17.66-8.89,6.7,0,13.14,2.5,16.25,9.22,3.53,7.62,5.92,15.42,5.88,23.85a45.52,45.52,0,0,1-.3,4.9c-.14,1.18-.26,2.37-.35,3.57a130.35,130.35,0,0,0,.06,20.63c.43,5.45,4,8.77,10.22,7.22,3-.74,5.94-1.54,8.89-2.37,13-3.71,22.37,2.25,22.14,14.48a185.55,185.55,0,0,1-1.6,23.58c-3.5,23.71-8,47.28-10.94,71.05-1.09,8.68.6,17.8,1.72,26.63.52,4.08,4.17,5.91,7.11,2.32a39.48,39.48,0,0,0,7.55-13.62c1.84-6.48,2.26-13.4,3-20.16,2.81-27.2,21.36-42.37,42.52-55.31,6.21-3.79,19.67-2.25,23.22,1.64,6.41,7,10.9,15.1,11.22,24.75.25,7.45,4.11,11.48,10.82,12.91,17.9,3.81,18.92,18.46,14.18,30.74-4.35,11.24-10.67,21.71-15.11,32.92C372.62,298.23,364,321,355.93,344a32.35,32.35,0,0,0,.4,22.44c4.69-8.22,9.37-15,12.62-22.39,8.36-19,22.15-31.6,42.36-36.39,3.64-.86,8.9.42,12,2.68a26.77,26.77,0,0,1,11,19.57c.7,7.38,3.7,13.67,8.48,19.55C445.59,353,448.14,358.11,448,362.42Z"/>
    <g>
      <g>
        <path class="cls-2" d="M368.14,446.7c.21-.23.43-.46.64-.7,13-15.35-87.79-33.12-110.85-35.65,2.29.35,4.58.74,6.82,1.31,2.77.7,7.05,2.92,7.2,4.74.22,2.6-2.13,6.2-4.44,8.06-4.76,3.85-10.2,6.87-15.41,10.15-12.82,8.05-17.18,21.2-13.48,33,0-.63.07-1.33.06-2.11-.18-13.35,29.06-7,60.8-4.38-18.68,5.54.86,43.74,120.53,30.47L371.51,446Z"/>
        <path class="cls-2" d="M378.85,444.18c-8-6.25-18.82-16.85-31.18-30-36.78-49.65-13.3-164-13.3-164s-10.18,25-16.83,68.08-32.09,22.31-32.09,22.31l12.35,16.7c-11.77-14.13-23.39-28.52-34-42.1l-2.58-3.36c.12.19.25.36.38.54-6.33-8.11-12.29-15.9-17.69-23.13.6.79,4.44,5.87,17.31,22.59a45.2,45.2,0,0,1-4.21-7.95,360.39,360.39,0,0,0,26.14,32.79c-18.48-24.39-9.73-44.58,3.75-51.49,7.5-2.79,14.86-10.73,20.6-26.88-7.11,7-58.63,39.32-57.08-23.16A515.89,515.89,0,0,1,258.85,170l-14.09,54.39-2,40.7,1,24.05c-9.92-13.3-18-24.71-23-32.78-24.55-39.49-43.35-67.12-58.25-89.49-14.16-21.25-46.89-51.56-48.28-52.37,38.51,36.85,39.7,89.15,24,102.08-9.91,8.18-28.28,5.84-39.81,8.58.21.67.45,1.35.74,2.07,1.79,4.48,3.42,9,5.51,13.37a32.12,32.12,0,0,0,14.93,15.17c12.91,6.53,25.45,13.81,38.26,20.54,6.44,3.38,13,6.65,19.45,9.92h0c38.33,15.29,76.72,34,83.13,54.37s-74.54,8.75-120.32-6.84c23.06,34.64,70.08,53,120.32,54.16S332.41,419.61,378.85,444.18Z"/>
        <path class="cls-2" d="M164.54,144.91c-4-14.63-1.7-38.77.16-52.46-4.31,25.39-8.87,34-8.87,34S160.43,137.09,164.54,144.91Z"/>
        <path class="cls-2" d="M164.7,92.45c.54-3.18,1.08-6.61,1.6-10.34C166.3,82.11,165.55,86.19,164.7,92.45Z"/>
        <path class="cls-2" d="M220.89,232.71c-5.48-21,0-94.45,0-94.45l-5.09,46.57-5.67,32.28L206.46,229l32.22,50.33S226.37,253.7,220.89,232.71Z"/>
        <path class="cls-2" d="M415.36,361.7s-36.21,44.44-20.19,99.43a130,130,0,0,0,29.42,28.05l1.82-.95c7.36-5.83,9.94-14,11-21.56C427.82,457.2,405.39,427.31,415.36,361.7Z"/>
      </g>
      <path class="cls-3" d="M247.3,89.69c-.45-6-6.38-22.4-17.12-21.5-18.79,1.56-19.34,108.29-35.51,97.33-8.73-5.91-4.6-39,1-68.22a22.25,22.25,0,0,0,1.06-2.36c3.7-9.77,7-19.68,10.74-29.43,3.11-8.13,10.67-8.9,17.66-8.89,6.7,0,13.14,2.5,16.25,9.22C245,73.46,247.34,81.26,247.3,89.69Z"/>
      <path class="cls-3" d="M314.19,234.55c7.21,10.84,30-10.59,30.74,14.45s-15.24,93.13-4.88,87.65,44.8-83.45,41.47-97.55c-2.74-11.6-12.89-14.75-20.54-26.1-7.08-10.49-8.17-25.49-14.09-27C334.55,182.87,301.45,215.4,314.19,234.55Z"/>
      <path class="cls-4" d="M155.11,126.87c2.83-5.84,4.41-11.84,6-18.2s2.81-12.81,3.88-19.29,2-13,2.87-19.48,1.57-13,2.17-19.58c-.51,6.55-1.18,13.08-1.92,19.61s-1.62,13-2.63,19.53-2.19,13-3.64,19.39a93.38,93.38,0,0,1-6,18.84Z"/>
      <path class="cls-4" d="M206.46,227.35l1.25-4.23c.42-1.41.87-2.81,1.16-4.27l1-4.33c.33-1.44.66-2.89.9-4.35.53-2.92,1.1-5.83,1.59-8.76l1.36-8.81c1.66-11.78,3-23.6,4.2-35.44q3.43-35.55,5.3-71.23-1.4,35.68-4.31,71.32c-1,11.87-2.2,23.72-3.71,35.55L214,201.66c-.44,3-1,5.89-1.47,8.83-.22,1.48-.53,2.94-.85,4.4l-.94,4.4c-.27,1.47-.71,2.91-1.11,4.36L208.2,229Z"/>
      <path class="cls-4" d="M208.42,234.55c-10.78-6.25-22.81-13.82-33.23-20.62s-20.65-13.86-30.68-21.2-19.84-15-29.3-23.07a309.07,309.07,0,0,1-26.87-25.82,311.29,311.29,0,0,0,27.19,25.44c9.56,7.92,19.48,15.4,29.56,22.64S165.54,206,176,212.67s21.09,13.1,31.89,19.17Z"/>
      <path class="cls-4" d="M230.18,271.7c-9.31-4.72-20.45-9.8-30.07-13.94s-19.37-8-29.25-11.45q-7.41-2.61-14.93-4.89t-15.15-4.14c-5.09-1.23-10.23-2.29-15.41-3.08a126.17,126.17,0,0,0-15.64-1.49A126.63,126.63,0,0,1,125.41,234c5.2.7,10.36,1.68,15.48,2.83s10.21,2.45,15.25,3.91,10.07,3,15,4.67c10,3.32,19.79,7,29.51,11s19.32,8.21,28.8,12.82Z"/>
      <path class="cls-4" d="M307.46,377.74c-15.31-2.74-32.09-6.07-47.29-9.32s-30.35-6.74-45.42-10.57q-11.3-2.87-22.52-6c-7.47-2.11-14.92-4.33-22.31-6.76s-14.72-5-21.94-7.87a161.29,161.29,0,0,1-21-10A161,161,0,0,0,148.07,337c7.24,2.81,14.6,5.29,22,7.63s14.87,4.48,22.36,6.51,15,4,22.56,5.79c15.09,3.67,30.27,7,45.48,10.07s30.49,6,45.79,8.53Z"/>
      <path class="cls-4" d="M314.19,376.46c.21-15.53.78-31,1.95-46.52.61-7.74,1.37-15.48,2.6-23.16.31-1.93.73-3.83,1.09-5.74s.87-3.79,1.3-5.69.93-3.76,1.4-5.65,1-3.76,1.46-5.63c4-15,8.41-29.86,12.91-44.7S346,209.73,350.77,195q-6.87,22.22-13.39,44.54c-4.34,14.88-8.57,29.8-12.42,44.81-.49,1.87-.94,3.76-1.4,5.64s-.94,3.76-1.34,5.65-.85,3.77-1.23,5.67-.73,3.78-1,5.69c-1.14,7.64-1.81,15.36-2.33,23.08-1,15.44-1.33,32.22-1.37,47.69Z"/>
      <path class="cls-4" d="M371.51,449.71c-19.34,3.43-40.65,6.81-60.06,9.69-9.71,1.42-19.43,2.75-29.17,3.91l-7.31.8c-2.44.26-4.89.45-7.33.68s-4.9.34-7.34.51c-1.22.1-2.45.12-3.68.13l-3.67.06,3.67-.18c1.22-.06,2.44-.12,3.66-.26,2.44-.26,4.88-.42,7.31-.75s4.86-.59,7.29-.93l7.27-1.05c9.68-1.49,19.34-3.15,29-4.9q28.9-5.3,57.65-11.42Z"/>
      <path class="cls-4" d="M379.33,448.27l-.47-4.08-.24-2-.15-2-.29-4.09-.11-4.1-.06-2,0-2.05.06-4.09c.17-2.73.23-5.45.53-8.16a169.06,169.06,0,0,1,6.05-32,202.84,202.84,0,0,1,11.5-30.37q3.46-7.33,7.49-14.38a155.27,155.27,0,0,1,8.67-13.67,156.9,156.9,0,0,0-8.24,13.91q-3.78,7.14-7,14.56a201.16,201.16,0,0,0-10.48,30.47,167.92,167.92,0,0,0-5,31.7c-.21,2.66-.18,5.33-.27,8l.06,4,0,2,.11,2,.24,4,.4,4,.21,2,.29,2,1,6.93Z"/>
      <path class="cls-4" d="M243.26,284.26a167.35,167.35,0,0,1-1.71-17.15c-.21-5.74-.27-11.48.06-17.21a235.06,235.06,0,0,1,4.3-34.07,299.13,299.13,0,0,1,8.62-33.2,289.83,289.83,0,0,1,12.24-32A290.35,290.35,0,0,0,255,182.78,299.87,299.87,0,0,0,246.89,216,232.21,232.21,0,0,0,243.11,250c-.24,5.69-.1,11.39.19,17.06s1.51,13.59,2.42,19.18Z"/>
      <path class="cls-5" d="M546.42,582.1c-8.34-7.3-18.26-17.74-62.08-42.78C454.18,522.09,432,509.83,396,475.26h0c-16.28-15.65-35.38-35.88-59.32-63.23q-6.29-7.18-12.37-14.2c-34.25-39.54-64.14-76.5-95.82-128.6-29.61-48.68-60.79-110.56-98.55-200.12,3.48,7.88,29.59,66.83,60.66,128.49C224,263.84,337.08,423.86,444.68,502.26c48,35,97.05,55.84,97.05,55.84S557.9,582.1,546.42,582.1Z"/>
      <path class="cls-6" d="M541.73,558.1c.36,6.75-10,4.73-15,1.6s-42.41-20.38-80.67-48.92c-12.34-9.2-21.7-15-31.65-22.26C391.29,470.8,338.6,412,325,395.7c-4.35-5.28-8.89-10.85-13.69-16.79-42.28-52.35-67.79-87.45-82.83-109.7,35.44,58.28,68.63,97.61,108.19,142.8,1.38,1.58,2.74,3.12,4.09,4.65L341.9,418l2.92,3.29,1.23,1.38,2.94,3.3.94,1.05q3.92,4.36,7.65,8.47l.63.68,3.11,3.4.72.78,3.19,3.44.38.42q5.56,6,10.73,11.36l.1.1c48.22,50.19,72.63,63.55,107.9,83.7,43.82,25,53.74,35.48,62.08,42.78C557.9,582.1,541.73,558.1,541.73,558.1Z"/>
    </g>
  </g>
</svg>
